AG57-Regular.ufo
<glyph name="quotedbl" format="2">
  <advance width="650"/>
  <unicode hex="0022"/>
  <note>
		quotedbl
	</note>
  <outline>
    <contour>
      <point x="375" y="1140" type="line"/>
      <point x="417" y="848" type="line"/>
      <point x="487" y="848" type="line"/>
      <point x="530" y="1140" type="line"/>
      <point x="530" y="1334" type="line"/>
      <point x="375" y="1334" type="line"/>
    </contour>
    <contour>
      <point x="120" y="1334" type="line"/>
      <point x="120" y="1140" type="line"/>
      <point x="162" y="848" type="line"/>
      <point x="232" y="848" type="line"/>
      <point x="275" y="1140" type="line"/>
      <point x="275" y="1334" type="line"/>
    </contour>
  </outline>
</glyph>
<glyph name="numbersign" format="2">
  <advance width="1127"/>
  <unicode hex="0023"/>
  <note>
		numbersign
	</note>
  <outline>
    <contour>
      <point x="672" y="401" type="line"/>
      <point x="616" y="0" type="line"/>
      <point x="757" y="0" type="line"/>
      <point x="813" y="401" type="line"/>
      <point x="1018" y="401" type="line"/>
      <point x="1036" y="530" type="line"/>
      <point x="831" y="530" type="line"/>
      <point x="869" y="804" type="line"/>
      <point x="1074" y="804" type="line"/>
      <point x="1092" y="933" type="line"/>
      <point x="887" y="933" type="line"/>
      <point x="943" y="1334" type="line"/>
      <point x="802" y="1334" type="line"/>
      <point x="746" y="933" type="line"/>
      <point x="455" y="933" type="line"/>
      <point x="511" y="1334" type="line"/>
      <point x="370" y="1334" type="line"/>
      <point x="314" y="933" type="line"/>
      <point x="109" y="933" type="line"/>
      <point x="90" y="804" type="line"/>
      <point x="296" y="804" type="line"/>
      <point x="258" y="530" type="line"/>
      <point x="53" y="530" type="line"/>
      <point x="35" y="401" type="line"/>
      <point x="240" y="401" type="line"/>
      <point x="184" y="0" type="line"/>
      <point x="325" y="0" type="line"/>
      <point x="381" y="401" type="line"/>
    </contour>
    <contour>
      <point x="690" y="530" type="line"/>
      <point x="399" y="530" type="line"/>
      <point x="437" y="804" type="line"/>
      <point x="728" y="804" type="line"/>
    </contour>
  </outline>
</glyph>
<glyph name="dollar" format="2">
  <advance width="1165"/>
  <unicode hex="0024"/>
  <note>
		dollar
	</note>
  <outline>
    <contour>
      <point x="535" y="-18" type="curve"/>
      <point x="535" y="-235" type="line"/>
      <point x="665" y="-235" type="line"/>
      <point x="665" y="-17" type="line"/>
      <point x="922" y="7"/>
      <point x="1070" y="164"/>
      <point x="1070" y="394" type="curve" smooth="yes"/>
      <point x="1070" y="545"/>
      <point x="999" y="687"/>
      <point x="761" y="740" type="curve" smooth="yes"/>
      <point x="665" y="761" type="line"/>
      <point x="665" y="1206" type="line"/>
      <point x="791" y="1186"/>
      <point x="875" y="1107"/>
      <point x="894" y="976" type="curve"/>
      <point x="1061" y="1005" type="line"/>
      <point x="1027" y="1194"/>
      <point x="877" y="1327"/>
      <point x="665" y="1350" type="curve"/>
      <point x="665" y="1569" type="line"/>
      <point x="535" y="1569" type="line"/>
      <point x="535" y="1351" type="line"/>
      <point x="303" y="1327"/>
      <point x="155" y="1172"/>
      <point x="155" y="978" type="curve" smooth="yes"/>
      <point x="155" y="839"/>
      <point x="217" y="698"/>
      <point x="454" y="645" type="curve" smooth="yes"/>
      <point x="535" y="627" type="line"/>
      <point x="535" y="127" type="line"/>
      <point x="388" y="147"/>
      <point x="270" y="246"/>
      <point x="260" y="419" type="curve"/>
      <point x="95" y="386" type="line"/>
      <point x="119" y="160"/>
      <point x="283" y="3"/>
    </contour>
    <contour>
      <point x="325" y="985" type="curve" smooth="yes"/>
      <point x="325" y="1103"/>
      <point x="398" y="1188"/>
      <point x="535" y="1207" type="curve"/>
      <point x="535" y="790" type="line"/>
      <point x="500" y="798" type="line" smooth="yes"/>
      <point x="364" y="828"/>
      <point x="325" y="903"/>
    </contour>
    <contour>
      <point x="665" y="128" type="curve"/>
      <point x="665" y="597" type="line"/>
      <point x="702" y="589" type="line" smooth="yes"/>
      <point x="856" y="554"/>
      <point x="900" y="482"/>
      <point x="900" y="379" type="curve" smooth="yes"/>
      <point x="900" y="237"/>
      <point x="807" y="149"/>
    </contour>
  </outline>
</glyph>
<glyph name="percent" format="2">
  <advance width="1667"/>
  <unicode hex="0025"/>
  <note>
		percent
	</note>
  <outline>
    <contour>
      <point x="1254" y="-20" type="curve" smooth="yes"/>
      <point x="1415" y="-20"/>
      <point x="1547" y="106"/>
      <point x="1547" y="267" type="curve" smooth="yes"/>
      <point x="1547" y="428"/>
      <point x="1415" y="554"/>
      <point x="1254" y="554" type="curve" smooth="yes"/>
      <point x="1093" y="554"/>
      <point x="961" y="428"/>
      <point x="961" y="267" type="curve" smooth="yes"/>
      <point x="961" y="106"/>
      <point x="1093" y="-20"/>
    </contour>
    <contour>
      <point x="120" y="1067" type="curve" smooth="yes"/>
      <point x="120" y="906"/>
      <point x="252" y="780"/>
      <point x="413" y="780" type="curve" smooth="yes"/>
      <point x="574" y="780"/>
      <point x="706" y="906"/>
      <point x="706" y="1067" type="curve" smooth="yes"/>
      <point x="706" y="1228"/>
      <point x="574" y="1354"/>
      <point x="413" y="1354" type="curve" smooth="yes"/>
      <point x="252" y="1354"/>
      <point x="120" y="1228"/>
    </contour>
    <contour>
      <point x="257" y="1067" type="curve" smooth="yes"/>
      <point x="257" y="1154"/>
      <point x="328" y="1221"/>
      <point x="413" y="1221" type="curve" smooth="yes"/>
      <point x="498" y="1221"/>
      <point x="569" y="1154"/>
      <point x="569" y="1067" type="curve" smooth="yes"/>
      <point x="569" y="980"/>
      <point x="498" y="913"/>
      <point x="413" y="913" type="curve" smooth="yes"/>
      <point x="328" y="913"/>
      <point x="257" y="980"/>
    </contour>
    <contour>
      <point x="1054" y="1334" type="line"/>
      <point x="465" y="0" type="line"/>
      <point x="613" y="0" type="line"/>
      <point x="1202" y="1334" type="line"/>
    </contour>
    <contour>
      <point x="1098" y="267" type="curve" smooth="yes"/>
      <point x="1098" y="354"/>
      <point x="1169" y="421"/>
      <point x="1254" y="421" type="curve" smooth="yes"/>
      <point x="1339" y="421"/>
      <point x="1410" y="354"/>
      <point x="1410" y="267" type="curve" smooth="yes"/>
      <point x="1410" y="180"/>
      <point x="1339" y="113"/>
      <point x="1254" y="113" type="curve" smooth="yes"/>
      <point x="1169" y="113"/>
      <point x="1098" y="180"/>
    </contour>
  </outline>
</glyph>
<glyph name="ampersand" format="2">
  <advance width="1343"/>
  <unicode hex="0026"/>
  <note>
		ampersand
	</note>
  <outline>
    <contour>
      <point x="525" y="-20" type="qcurve"/>
      <point x="638" y="-20"/>
      <point x="832" y="55"/>
      <point x="921" y="133" type="qcurve"/>
      <point x="1027" y="0"/>
      <point x="1196" y="0" type="qcurve"/>
      <point x="1293" y="0" type="line"/>
      <point x="1293" y="140" type="line"/>
      <point x="1228" y="140" type="line" smooth="yes"/>
      <point x="1158" y="140"/>
      <point x="1073" y="184"/>
      <point x="1021" y="246" type="qcurve"/>
      <point x="1151" y="415"/>
      <point x="1230" y="673" type="qcurve"/>
      <point x="1073" y="673" type="line"/>
      <point x="1022" y="492"/>
      <point x="927" y="362" type="qcurve"/>
      <point x="598" y="766" type="line"/>
      <point x="727" y="854"/>
      <point x="839" y="1006"/>
      <point x="839" y="1099" type="qcurve"/>
      <point x="839" y="1172"/>
      <point x="769" y="1288"/>
      <point x="638" y="1354"/>
      <point x="551" y="1354" type="qcurve"/>
      <point x="465" y="1354"/>
      <point x="333" y="1284"/>
      <point x="261" y="1161"/>
      <point x="261" y="1085" type="qcurve"/>
      <point x="261" y="1013"/>
      <point x="326" y="878"/>
      <point x="391" y="798" type="qcurve"/>
      <point x="304" y="737" type="line" smooth="yes"/>
      <point x="206" y="668"/>
      <point x="100" y="483"/>
      <point x="100" y="377" type="qcurve"/>
      <point x="100" y="254"/>
      <point x="212" y="74"/>
      <point x="405" y="-20"/>
    </contour>
    <contour>
      <point x="270" y="388" type="qcurve"/>
      <point x="270" y="466"/>
      <point x="350" y="598"/>
      <point x="438" y="662" type="qcurve"/>
      <point x="474" y="688" type="line"/>
      <point x="831" y="249" type="line"/>
      <point x="762" y="188"/>
      <point x="612" y="125"/>
      <point x="535" y="125" type="qcurve"/>
      <point x="410" y="125"/>
      <point x="270" y="267"/>
    </contour>
    <contour>
      <point x="416" y="1083" type="qcurve"/>
      <point x="416" y="1142"/>
      <point x="488" y="1224"/>
      <point x="556" y="1224" type="qcurve"/>
      <point x="620" y="1224"/>
      <point x="689" y="1151"/>
      <point x="689" y="1093" type="qcurve"/>
      <point x="689" y="1034"/>
      <point x="608" y="936"/>
      <point x="516" y="873" type="qcurve"/>
      <point x="467" y="934"/>
      <point x="416" y="1035"/>
    </contour>
  </outline>
</glyph>
<glyph name="quotesingle" format="2">
  <advance width="395"/>
  <unicode hex="0027"/>
  <note>
		quotesingle
	</note>
  <outline>
    <contour>
      <point x="162" y="848" type="line"/>
      <point x="232" y="848" type="line"/>
      <point x="275" y="1140" type="line"/>
      <point x="275" y="1334" type="line"/>
      <point x="120" y="1334" type="line"/>
      <point x="120" y="1140" type="line"/>
    </contour>
  </outline>
</glyph>
<glyph name="parenleft" format="2">
  <advance width="730"/>
  <unicode hex="0028"/>
  <note>
		parenleft
	</note>
  <outline>
    <contour>
      <point x="509" y="-380" type="curve"/>
      <point x="646" y="-380" type="line"/>
      <point x="412" y="-88"/>
      <point x="330" y="209"/>
      <point x="330" y="477" type="curve" smooth="yes"/>
      <point x="330" y="745"/>
      <point x="412" y="1042"/>
      <point x="646" y="1334" type="curve"/>
      <point x="509" y="1334" type="line"/>
      <point x="310" y="1149"/>
      <point x="140" y="830"/>
      <point x="140" y="477" type="curve" smooth="yes"/>
      <point x="140" y="124"/>
      <point x="310" y="-195"/>
    </contour>
  </outline>
</glyph>
<glyph name="parenright" format="2">
  <advance width="730"/>
  <unicode hex="0029"/>
  <note>
		parenright
	</note>
  <outline>
    <contour>
      <point x="221" y="-380" type="line"/>
      <point x="324" y="-284"/>
      <point x="491" y="-16"/>
      <point x="590" y="307"/>
      <point x="590" y="477" type="qcurve"/>
      <point x="590" y="647"/>
      <point x="491" y="970"/>
      <point x="324" y="1238"/>
      <point x="221" y="1334" type="qcurve"/>
      <point x="84" y="1334" type="line"/>
      <point x="251" y="1126"/>
      <point x="400" y="693"/>
      <point x="400" y="477" type="qcurve"/>
      <point x="400" y="261"/>
      <point x="251" y="-172"/>
      <point x="84" y="-380" type="qcurve"/>
    </contour>
  </outline>
</glyph>
<glyph name="asterisk" format="2">
  <advance width="870"/>
  <unicode hex="002A"/>
  <note>
		asterisk
	</note>
  <outline>
    <contour>
      <point x="368" y="685" type="line"/>
      <point x="502" y="685" type="line"/>
      <point x="478" y="937" type="line"/>
      <point x="683" y="790" type="line"/>
      <point x="750" y="905" type="line"/>
      <point x="518" y="1009" type="line"/>
      <point x="750" y="1113" type="line"/>
      <point x="683" y="1229" type="line"/>
      <point x="478" y="1082" type="line"/>
      <point x="502" y="1334" type="line"/>
      <point x="368" y="1334" type="line"/>
      <point x="394" y="1082" type="line"/>
      <point x="187" y="1229" type="line"/>
      <point x="120" y="1113" type="line"/>
      <point x="352" y="1009" type="line"/>
      <point x="120" y="905" type="line"/>
      <point x="187" y="790" type="line"/>
      <point x="394" y="937" type="line"/>
    </contour>
  </outline>
</glyph>
<glyph name="plus" format="2">
  <advance width="1176"/>
  <unicode hex="002B"/>
  <note>
		plus
	</note>
  <outline>
    <contour>
      <point x="515" y="514" type="line"/>
      <point x="515" y="110" type="line"/>
      <point x="661" y="110" type="line"/>
      <point x="661" y="514" type="line"/>
      <point x="1056" y="514" type="line"/>
      <point x="1056" y="654" type="line"/>
      <point x="661" y="654" type="line"/>
      <point x="661" y="1058" type="line"/>
      <point x="515" y="1058" type="line"/>
      <point x="515" y="654" type="line"/>
      <point x="120" y="654" type="line"/>
      <point x="120" y="514" type="line"/>
    </contour>
  </outline>
</glyph>
<glyph name="comma" format="2">
  <advance width="414"/>
  <unicode hex="002C"/>
  <note>
		comma
	</note>
  <outline>
    <contour>
      <point x="175" y="-292" type="line"/>
      <point x="294" y="-191"/>
      <point x="294" y="0" type="qcurve"/>
      <point x="294" y="194" type="line"/>
      <point x="120" y="194" type="line"/>
      <point x="120" y="0" type="line"/>
      <point x="210" y="0" type="line"/>
      <point x="210" y="-154"/>
      <point x="120" y="-230" type="qcurve"/>
    </contour>
  </outline>
</glyph>
<glyph name="hyphen" format="2">
  <advance width="695"/>
  <unicode hex="002D"/>
  <note>
		hyphen
	</note>
  <outline>
    <contour>
      <point x="120" y="514" type="line"/>
      <point x="575" y="514" type="line"/>
      <point x="575" y="654" type="line"/>
      <point x="120" y="654" type="line"/>
    </contour>
  </outline>
</glyph>
<glyph name="period" format="2">
  <advance width="414"/>
  <unicode hex="002E"/>
  <note>
		period
	</note>
  <outline>
    <contour>
      <point x="120" y="194" type="line"/>
      <point x="120" y="0" type="line"/>
      <point x="294" y="0" type="line"/>
      <point x="294" y="194" type="line"/>
    </contour>
  </outline>
</glyph>
<glyph name="slash" format="2">
  <advance width="907"/>
  <unicode hex="002F"/>
  <note>
		slash
	</note>
  <outline>
    <contour>
      <point x="90" y="-380" type="line"/>
      <point x="253" y="-380" type="line"/>
      <point x="817" y="1334" type="line"/>
      <point x="654" y="1334" type="line"/>
    </contour>
  </outline>
</glyph>
<glyph name="zero" format="2">
  <advance width="1120"/>
  <unicode hex="0030"/>
  <note>
		zero
	</note>
  <outline>
    <contour>
      <point x="560" y="-20" type="curve" smooth="yes"/>
      <point x="865" y="-20"/>
      <point x="1008" y="248"/>
      <point x="1008" y="667" type="curve" smooth="yes"/>
      <point x="1008" y="1088"/>
      <point x="865" y="1354"/>
      <point x="560" y="1354" type="curve" smooth="yes"/>
      <point x="253" y="1354"/>
      <point x="112" y="1088"/>
      <point x="112" y="667" type="curve" smooth="yes"/>
      <point x="112" y="248"/>
      <point x="254" y="-20"/>
    </contour>
    <contour>
      <point x="287" y="667" type="curve" smooth="yes"/>
      <point x="287" y="1002"/>
      <point x="366" y="1209"/>
      <point x="560" y="1209" type="curve" smooth="yes"/>
      <point x="753" y="1209"/>
      <point x="833" y="1002"/>
      <point x="833" y="667" type="curve" smooth="yes"/>
      <point x="833" y="334"/>
      <point x="753" y="125"/>
      <point x="560" y="125" type="curve" smooth="yes"/>
      <point x="367" y="125"/>
      <point x="287" y="334"/>
    </contour>
  </outline>
</glyph>
<glyph name="one" format="2">
  <advance width="628"/>
  <unicode hex="0031"/>
  <note>
		one
	</note>
  <outline>
    <contour>
      <point x="321" y="1051" type="curve"/>
      <point x="321" y="0" type="line"/>
      <point x="488" y="0" type="line"/>
      <point x="488" y="1334" type="line"/>
      <point x="357" y="1334" type="line"/>
      <point x="315" y="1181"/>
      <point x="234" y="1113"/>
      <point x="90" y="1105" type="curve"/>
      <point x="90" y="970" type="line"/>
      <point x="192" y="970"/>
      <point x="282" y="1006"/>
    </contour>
  </outline>
</glyph>
<glyph name="two" format="2">
  <advance width="987"/>
  <unicode hex="0032"/>
  <note>
		two
	</note>
  <outline>
    <contour>
      <point x="91" y="0" type="line"/>
      <point x="897" y="0" type="line"/>
      <point x="897" y="150" type="line"/>
      <point x="316" y="150" type="line"/>
      <point x="657" y="361"/>
      <point x="889" y="764"/>
      <point x="889" y="936" type="qcurve"/>
      <point x="889" y="1061"/>
      <point x="796" y="1250"/>
      <point x="618" y="1354"/>
      <point x="496" y="1354" type="qcurve"/>
      <point x="377" y="1354"/>
      <point x="194" y="1252"/>
      <point x="90" y="1049"/>
      <point x="90" y="902" type="qcurve"/>
      <point x="90" y="876"/>
      <point x="91" y="862" type="qcurve"/>
      <point x="250" y="832" type="line"/>
      <point x="248" y="872"/>
      <point x="248" y="888" type="qcurve"/>
      <point x="248" y="1061"/>
      <point x="383" y="1209"/>
      <point x="495" y="1209" type="qcurve"/>
      <point x="603" y="1209"/>
      <point x="714" y="1055"/>
      <point x="714" y="926" type="qcurve"/>
      <point x="714" y="843"/>
      <point x="631" y="614"/>
      <point x="355" y="301"/>
      <point x="91" y="141" type="qcurve"/>
    </contour>
  </outline>
</glyph>
<glyph name="three" format="2">
  <advance width="1067"/>
  <unicode hex="0033"/>
  <note>
		three
	</note>
  <outline>
    <contour>
      <point x="543" y="-20" type="qcurve"/>
      <point x="667" y="-20"/>
      <point x="849" y="77"/>
      <point x="946" y="252"/>
      <point x="946" y="367" type="qcurve"/>
      <point x="946" y="486"/>
      <point x="826" y="645"/>
      <point x="696" y="685" type="qcurve"/>
      <point x="806" y="724"/>
      <point x="920" y="879"/>
      <point x="920" y="988" type="qcurve"/>
      <point x="920" y="1094"/>
      <point x="828" y="1261"/>
      <point x="657" y="1354"/>
      <point x="543" y="1354" type="qcurve"/>
      <point x="417" y="1354"/>
      <point x="238" y="1255"/>
      <point x="143" y="1083"/>
      <point x="136" y="972" type="qcurve"/>
      <point x="302" y="951" type="line"/>
      <point x="307" y="1070"/>
      <point x="427" y="1209"/>
      <point x="537" y="1209" type="qcurve"/>
      <point x="604" y="1209"/>
      <point x="701" y="1150"/>
      <point x="752" y="1047"/>
      <point x="752" y="982" type="qcurve"/>
      <point x="752" y="910"/>
      <point x="688" y="809"/>
      <point x="580" y="759"/>
      <point x="512" y="759" type="qcurve"/>
      <point x="361" y="759" type="line"/>
      <point x="361" y="609" type="line"/>
      <point x="513" y="609" type="line" smooth="yes"/>
      <point x="586" y="609"/>
      <point x="707" y="557"/>
      <point x="779" y="451"/>
      <point x="779" y="372" type="qcurve"/>
      <point x="779" y="300"/>
      <point x="723" y="188"/>
      <point x="616" y="125"/>
      <point x="543" y="125" type="qcurve"/>
      <point x="415" y="125"/>
      <point x="292" y="275"/>
      <point x="290" y="411" type="qcurve"/>
      <point x="121" y="390" type="line"/>
      <point x="129" y="202"/>
      <point x="338" y="-20"/>
    </contour>
  </outline>
</glyph>
<glyph name="four" format="2">
  <advance width="1068"/>
  <unicode hex="0034"/>
  <note>
		four
	</note>
  <outline>
    <contour>
      <point x="627" y="0" type="line"/>
      <point x="794" y="0" type="line"/>
      <point x="794" y="304" type="line"/>
      <point x="968" y="304" type="line"/>
      <point x="968" y="449" type="line"/>
      <point x="794" y="449" type="line"/>
      <point x="794" y="1334" type="line"/>
      <point x="660" y="1334" type="line"/>
      <point x="100" y="478" type="line"/>
      <point x="100" y="304" type="line"/>
      <point x="627" y="304" type="line"/>
    </contour>
    <contour>
      <point x="244" y="444" type="qcurve"/>
      <point x="279" y="485"/>
      <point x="309" y="532" type="qcurve"/>
      <point x="536" y="880" type="line" smooth="yes"/>
      <point x="566" y="927"/>
      <point x="610" y="1004"/>
      <point x="637" y="1063" type="qcurve"/>
      <point x="630" y="985"/>
      <point x="630" y="880" type="qcurve"/>
      <point x="630" y="449" type="line"/>
      <point x="355" y="449" type="line" smooth="yes"/>
      <point x="288" y="449"/>
    </contour>
  </outline>
</glyph>
<glyph name="five" format="2">
  <advance width="1037"/>
  <unicode hex="0035"/>
  <note>
		five
	</note>
  <outline>
    <contour>
      <point x="517" y="-20" type="qcurve"/>
      <point x="646" y="-20"/>
      <point x="831" y="106"/>
      <point x="925" y="322"/>
      <point x="925" y="454" type="qcurve"/>
      <point x="925" y="583"/>
      <point x="844" y="792"/>
      <point x="675" y="916"/>
      <point x="548" y="916" type="qcurve"/>
      <point x="476" y="916"/>
      <point x="361" y="865"/>
      <point x="329" y="822" type="qcurve"/>
      <point x="352" y="1189" type="line"/>
      <point x="865" y="1189" type="line"/>
      <point x="865" y="1334" type="line"/>
      <point x="214" y="1334" type="line"/>
      <point x="169" y="556" type="line"/>
      <point x="299" y="556" type="line"/>
      <point x="314" y="667"/>
      <point x="433" y="776"/>
      <point x="520" y="776" type="qcurve"/>
      <point x="636" y="776"/>
      <point x="750" y="594"/>
      <point x="750" y="448" type="qcurve"/>
      <point x="750" y="355"/>
      <point x="698" y="209"/>
      <point x="593" y="125"/>
      <point x="517" y="125" type="qcurve"/>
      <point x="414" y="125"/>
      <point x="294" y="267"/>
      <point x="282" y="394" type="qcurve"/>
      <point x="112" y="374" type="line"/>
      <point x="126" y="261"/>
      <point x="228" y="82"/>
      <point x="401" y="-20"/>
    </contour>
  </outline>
</glyph>
<glyph name="six" format="2">
  <advance width="1055"/>
  <unicode hex="0036"/>
  <note>
		six
	</note>
  <outline>
    <contour>
      <point x="546" y="-20" type="qcurve"/>
      <point x="671" y="-20"/>
      <point x="855" y="94"/>
      <point x="954" y="292"/>
      <point x="954" y="417" type="qcurve"/>
      <point x="954" y="550"/>
      <point x="860" y="753"/>
      <point x="683" y="866"/>
      <point x="563" y="866" type="qcurve"/>
      <point x="473" y="866"/>
      <point x="325" y="788"/>
      <point x="284" y="718" type="qcurve"/>
      <point x="289" y="949"/>
      <point x="428" y="1209"/>
      <point x="564" y="1209" type="qcurve"/>
      <point x="642" y="1209"/>
      <point x="756" y="1102"/>
      <point x="783" y="1004" type="qcurve"/>
      <point x="946" y="1039" type="line"/>
      <point x="904" y="1190"/>
      <point x="703" y="1354"/>
      <point x="569" y="1354" type="qcurve"/>
      <point x="348" y="1354"/>
      <point x="112" y="982"/>
      <point x="112" y="607" type="qcurve"/>
      <point x="112" y="462"/>
      <point x="155" y="246"/>
      <point x="205" y="163" type="qcurve"/>
      <point x="315" y="-20"/>
    </contour>
    <contour>
      <point x="294" y="441" type="qcurve"/>
      <point x="294" y="525"/>
      <point x="352" y="651"/>
      <point x="464" y="721"/>
      <point x="541" y="721" type="qcurve"/>
      <point x="613" y="721"/>
      <point x="724" y="641"/>
      <point x="784" y="500"/>
      <point x="784" y="412" type="qcurve"/>
      <point x="784" y="325"/>
      <point x="725" y="195"/>
      <point x="618" y="125"/>
      <point x="546" y="125" type="qcurve"/>
      <point x="457" y="125"/>
      <point x="344" y="220"/>
      <point x="294" y="365"/>
    </contour>
  </outline>
</glyph>
<glyph name="seven" format="2">
  <advance width="1008"/>
  <unicode hex="0037"/>
  <note>
		seven
	</note>
  <outline>
    <contour>
      <point x="295" y="0" type="curve"/>
      <point x="473" y="0" type="line"/>
      <point x="487" y="525"/>
      <point x="704" y="859"/>
      <point x="918" y="1154" type="curve"/>
      <point x="918" y="1334" type="line"/>
      <point x="90" y="1334" type="line"/>
      <point x="90" y="1184" type="line"/>
      <point x="666" y="1184" type="line" smooth="yes"/>
      <point x="699" y="1184"/>
      <point x="731" y="1184"/>
      <point x="779" y="1188" type="curve"/>
      <point x="746" y="1156"/>
      <point x="726" y="1131"/>
      <point x="696" y="1089" type="curve" smooth="yes"/>
      <point x="511" y="830"/>
      <point x="328" y="514"/>
    </contour>
  </outline>
</glyph>
<glyph name="eight" format="2">
  <advance width="1072"/>
  <unicode hex="0038"/>
  <note>
		eight
	</note>
  <outline>
    <contour>
      <point x="536" y="-20" type="curve" smooth="yes"/>
      <point x="768" y="-20"/>
      <point x="951" y="133"/>
      <point x="951" y="367" type="curve" smooth="yes"/>
      <point x="951" y="532"/>
      <point x="870" y="650"/>
      <point x="727" y="709" type="curve"/>
      <point x="855" y="766"/>
      <point x="926" y="873"/>
      <point x="926" y="1009" type="curve" smooth="yes"/>
      <point x="926" y="1219"/>
      <point x="753" y="1354"/>
      <point x="536" y="1354" type="curve" smooth="yes"/>
      <point x="319" y="1354"/>
      <point x="146" y="1219"/>
      <point x="146" y="1009" type="curve" smooth="yes"/>
      <point x="146" y="873"/>
      <point x="217" y="766"/>
      <point x="345" y="709" type="curve"/>
      <point x="202" y="650"/>
      <point x="121" y="532"/>
      <point x="121" y="367" type="curve" smooth="yes"/>
      <point x="121" y="133"/>
      <point x="304" y="-20"/>
    </contour>
    <contour>
      <point x="286" y="379" type="curve" smooth="yes"/>
      <point x="286" y="545"/>
      <point x="409" y="631"/>
      <point x="536" y="631" type="curve" smooth="yes"/>
      <point x="663" y="631"/>
      <point x="786" y="545"/>
      <point x="786" y="379" type="curve" smooth="yes"/>
      <point x="786" y="213"/>
      <point x="663" y="125"/>
      <point x="536" y="125" type="curve" smooth="yes"/>
      <point x="409" y="125"/>
      <point x="286" y="213"/>
    </contour>
    <contour>
      <point x="306" y="999" type="curve" smooth="yes"/>
      <point x="306" y="1143"/>
      <point x="429" y="1209"/>
      <point x="536" y="1209" type="curve" smooth="yes"/>
      <point x="643" y="1209"/>
      <point x="766" y="1143"/>
      <point x="766" y="999" type="curve" smooth="yes"/>
      <point x="766" y="856"/>
      <point x="643" y="776"/>
      <point x="536" y="776" type="curve" smooth="yes"/>
      <point x="429" y="776"/>
      <point x="306" y="856"/>
    </contour>
  </outline>
</glyph>
<glyph name="nine" format="2">
  <advance width="1055"/>
  <unicode hex="0039"/>
  <note>
		nine
	</note>
  <outline>
    <contour>
      <point x="506" y="-20" type="qcurve"/>
      <point x="659" y="-20"/>
      <point x="851" y="136"/>
      <point x="943" y="456"/>
      <point x="943" y="707" type="qcurve"/>
      <point x="943" y="848"/>
      <point x="911" y="1052"/>
      <point x="872" y="1134" type="qcurve"/>
      <point x="821" y="1241"/>
      <point x="638" y="1354"/>
      <point x="509" y="1354" type="qcurve"/>
      <point x="384" y="1354"/>
      <point x="199" y="1243"/>
      <point x="101" y="1046"/>
      <point x="101" y="922" type="qcurve"/>
      <point x="101" y="790"/>
      <point x="197" y="583"/>
      <point x="374" y="468"/>
      <point x="492" y="468" type="qcurve"/>
      <point x="581" y="468"/>
      <point x="729" y="545"/>
      <point x="771" y="613" type="qcurve"/>
      <point x="767" y="371"/>
      <point x="645" y="125"/>
      <point x="511" y="125" type="qcurve"/>
      <point x="426" y="125"/>
      <point x="309" y="231"/>
      <point x="282" y="330" type="qcurve"/>
      <point x="119" y="295" type="line"/>
      <point x="161" y="143"/>
      <point x="365" y="-20"/>
    </contour>
    <contour>
      <point x="271" y="922" type="qcurve"/>
      <point x="271" y="1009"/>
      <point x="330" y="1139"/>
      <point x="437" y="1209"/>
      <point x="509" y="1209" type="qcurve"/>
      <point x="597" y="1209"/>
      <point x="708" y="1114"/>
      <point x="756" y="970"/>
      <point x="756" y="893" type="qcurve"/>
      <point x="756" y="765"/>
      <point x="629" y="613"/>
      <point x="514" y="613" type="qcurve"/>
      <point x="442" y="613"/>
      <point x="331" y="693"/>
      <point x="271" y="834"/>
    </contour>
  </outline>
</glyph>
<glyph name="less" format="2">
  <advance width="1176"/>
  <unicode hex="003C"/>
  <note>
		less
	</note>
  <outline>
    <contour>
      <point x="120" y="507" type="line"/>
      <point x="1056" y="83" type="line"/>
      <point x="1056" y="250" type="line"/>
      <point x="432" y="530" type="line" smooth="yes"/>
      <point x="392" y="548"/>
      <point x="352" y="566"/>
      <point x="292" y="584" type="curve"/>
      <point x="352" y="602"/>
      <point x="392" y="620"/>
      <point x="432" y="638" type="curve" smooth="yes"/>
      <point x="1056" y="918" type="line"/>
      <point x="1056" y="1085" type="line"/>
      <point x="120" y="660" type="line"/>
    </contour>
  </outline>
</glyph>
<glyph name="equal" format="2">
  <advance width="1176"/>
  <unicode hex="003D"/>
  <note>
		equal
	</note>
  <outline>
    <contour>
      <point x="120" y="454" type="line"/>
      <point x="120" y="314" type="line"/>
      <point x="1056" y="314" type="line"/>
      <point x="1056" y="454" type="line"/>
    </contour>
    <contour>
      <point x="120" y="854" type="line"/>
      <point x="120" y="714" type="line"/>
      <point x="1056" y="714" type="line"/>
      <point x="1056" y="854" type="line"/>
    </contour>
  </outline>
</glyph>
<glyph name="greater" format="2">
  <advance width="1176"/>
  <unicode hex="003E"/>
  <note>
		greater
	</note>
  <outline>
    <contour>
      <point x="744" y="530" type="curve" smooth="yes"/>
      <point x="120" y="250" type="line"/>
      <point x="120" y="83" type="line"/>
      <point x="1056" y="507" type="line"/>
      <point x="1056" y="660" type="line"/>
      <point x="120" y="1085" type="line"/>
      <point x="120" y="918" type="line"/>
      <point x="744" y="638" type="line" smooth="yes"/>
      <point x="784" y="620"/>
      <point x="824" y="602"/>
      <point x="884" y="584" type="curve"/>
      <point x="824" y="566"/>
      <point x="784" y="548"/>
    </contour>
  </outline>
</glyph>
<glyph name="question" format="2">
  <advance width="927"/>
  <unicode hex="003F"/>
  <note>
		question
	</note>
  <outline>
    <contour>
      <point x="310" y="313" type="line"/>
      <point x="418" y="313" type="line"/>
      <point x="418" y="417" type="line" smooth="yes"/>
      <point x="418" y="467"/>
      <point x="450" y="528"/>
      <point x="486" y="556" type="qcurve"/>
      <point x="670" y="702" type="line" smooth="yes"/>
      <point x="728" y="748"/>
      <point x="797" y="830"/>
      <point x="832" y="934"/>
      <point x="832" y="1006" type="qcurve"/>
      <point x="832" y="1106"/>
      <point x="746" y="1264"/>
      <point x="582" y="1354"/>
      <point x="470" y="1354" type="qcurve"/>
      <point x="350" y="1354"/>
      <point x="182" y="1262"/>
      <point x="96" y="1094"/>
      <point x="95" y="981" type="qcurve"/>
      <point x="252" y="954" type="line"/>
      <point x="245" y="1209"/>
      <point x="469" y="1209" type="qcurve"/>
      <point x="566" y="1209"/>
      <point x="663" y="1102"/>
      <point x="663" y="1006" type="qcurve"/>
      <point x="663" y="939"/>
      <point x="616" y="846"/>
      <point x="548" y="791" type="qcurve"/>
      <point x="382" y="658" type="line" smooth="yes"/>
      <point x="346" y="629"/>
      <point x="310" y="558"/>
      <point x="310" y="507" type="qcurve"/>
    </contour>
    <contour>
      <point x="277" y="0" type="line"/>
      <point x="451" y="0" type="line"/>
      <point x="451" y="194" type="line"/>
      <point x="277" y="194" type="line"/>
    </contour>
  </outline>
</glyph>
<glyph name="at" format="2">
  <advance width="1760"/>
  <unicode hex="0040"/>
  <note>
		at
	</note>
  <outline>
    <contour>
      <point x="886" y="-400" type="qcurve"/>
      <point x="1111" y="-400"/>
      <point x="1286" y="-316" type="qcurve"/>
      <point x="1286" y="-165" type="line"/>
      <point x="1198" y="-210"/>
      <point x="993" y="-257"/>
      <point x="886" y="-257" type="qcurve"/>
      <point x="703" y="-257"/>
      <point x="421" y="-93"/>
      <point x="265" y="197"/>
      <point x="265" y="380" type="qcurve"/>
      <point x="265" y="562"/>
      <point x="422" y="858"/>
      <point x="705" y="1028"/>
      <point x="886" y="1028" type="qcurve"/>
      <point x="1069" y="1028"/>
      <point x="1347" y="891"/>
      <point x="1499" y="644"/>
      <point x="1499" y="485" type="qcurve"/>
      <point x="1499" y="319"/>
      <point x="1370" y="142"/>
      <point x="1226" y="135" type="qcurve"/>
      <point x="1226" y="762" type="line"/>
      <point x="1093" y="762" type="line"/>
      <point x="1093" y="674"/>
      <point x="1098" y="630" type="qcurve"/>
      <point x="1061" y="699"/>
      <point x="924" y="778"/>
      <point x="842" y="778" type="qcurve"/>
      <point x="740" y="778"/>
      <point x="587" y="682"/>
      <point x="505" y="502"/>
      <point x="505" y="380" type="qcurve"/>
      <point x="505" y="259"/>
      <point x="587" y="80"/>
      <point x="740" y="-16"/>
      <point x="842" y="-16" type="qcurve"/>
      <point x="925" y="-16"/>
      <point x="1061" y="62"/>
      <point x="1098" y="132" type="qcurve"/>
      <point x="1093" y="88"/>
      <point x="1093" y="0" type="qcurve"/>
      <point x="1180" y="0" type="line" smooth="yes"/>
      <point x="1419" y="0"/>
      <point x="1648" y="257"/>
      <point x="1648" y="485" type="qcurve"/>
      <point x="1648" y="684"/>
      <point x="1457" y="997"/>
      <point x="1110" y="1174"/>
      <point x="886" y="1174" type="qcurve"/>
      <point x="662" y="1174"/>
      <point x="309" y="966"/>
      <point x="112" y="604"/>
      <point x="112" y="380" type="qcurve"/>
      <point x="112" y="157"/>
      <point x="308" y="-198"/>
      <point x="660" y="-400"/>
    </contour>
    <contour>
      <point x="649" y="380" type="qcurve"/>
      <point x="649" y="512"/>
      <point x="767" y="661"/>
      <point x="869" y="661" type="qcurve"/>
      <point x="971" y="661"/>
      <point x="1089" y="513"/>
      <point x="1089" y="380" type="qcurve"/>
      <point x="1089" y="248"/>
      <point x="970" y="101"/>
      <point x="869" y="101" type="qcurve"/>
      <point x="768" y="101"/>
      <point x="649" y="248"/>
    </contour>
  </outline>
</glyph>
<glyph name="A" format="2">
  <advance width="1319"/>
  <unicode hex="0041"/>
  <note>
		A
	</note>
  <outline>
    <contour>
      <point x="589" y="1334" type="line"/>
      <point x="50" y="0" type="line"/>
      <point x="226" y="0" type="line"/>
      <point x="363" y="351" type="line"/>
      <point x="951" y="351" type="line"/>
      <point x="1090" y="0" type="line"/>
      <point x="1269" y="0" type="line"/>
      <point x="726" y="1334" type="line"/>
    </contour>
    <contour>
      <point x="710" y="962" type="curve" smooth="yes"/>
      <point x="896" y="491" type="line"/>
      <point x="418" y="491" type="line"/>
      <point x="602" y="962" type="line" smooth="yes"/>
      <point x="625" y="1020"/>
      <point x="640" y="1060"/>
      <point x="656" y="1120" type="curve"/>
      <point x="672" y="1060"/>
      <point x="687" y="1020"/>
    </contour>
  </outline>
</glyph>
<glyph name="B" format="2">
  <advance width="1225"/>
  <unicode hex="0042"/>
  <note>
		B
	</note>
  <outline>
    <contour>
      <point x="688" y="1334" type="curve" smooth="yes"/>
      <point x="140" y="1334" type="line"/>
      <point x="140" y="0" type="line"/>
      <point x="729" y="0" type="line" smooth="yes"/>
      <point x="1020" y="0"/>
      <point x="1130" y="156"/>
      <point x="1130" y="368" type="curve" smooth="yes"/>
      <point x="1130" y="545"/>
      <point x="1059" y="650"/>
      <point x="906" y="704" type="curve"/>
      <point x="1029" y="756"/>
      <point x="1089" y="850"/>
      <point x="1089" y="999" type="curve" smooth="yes"/>
      <point x="1089" y="1196"/>
      <point x="979" y="1334"/>
    </contour>
    <contour>
      <point x="727" y="150" type="curve" smooth="yes"/>
      <point x="304" y="150" type="line"/>
      <point x="304" y="610" type="line"/>
      <point x="727" y="610" type="line" smooth="yes"/>
      <point x="898" y="610"/>
      <point x="957" y="527"/>
      <point x="957" y="380" type="curve" smooth="yes"/>
      <point x="957" y="233"/>
      <point x="898" y="150"/>
    </contour>
    <contour>
      <point x="686" y="760" type="curve" smooth="yes"/>
      <point x="304" y="760" type="line"/>
      <point x="304" y="1184" type="line"/>
      <point x="686" y="1184" type="line" smooth="yes"/>
      <point x="857" y="1184"/>
      <point x="916" y="1105"/>
      <point x="916" y="982" type="curve" smooth="yes"/>
      <point x="916" y="839"/>
      <point x="857" y="760"/>
    </contour>
  </outline>
</glyph>
<glyph name="C" format="2">
  <advance width="1439"/>
  <unicode hex="0043"/>
  <note>
		C
	</note>
  <outline>
    <contour>
      <point x="744" y="-20" type="curve" smooth="yes"/>
      <point x="1051" y="-20"/>
      <point x="1266" y="156"/>
      <point x="1344" y="428" type="curve"/>
      <point x="1170" y="449" type="line"/>
      <point x="1110" y="254"/>
      <point x="961" y="125"/>
      <point x="744" y="125" type="curve" smooth="yes"/>
      <point x="461" y="125"/>
      <point x="286" y="352"/>
      <point x="286" y="667" type="curve" smooth="yes"/>
      <point x="286" y="982"/>
      <point x="461" y="1209"/>
      <point x="744" y="1209" type="curve" smooth="yes"/>
      <point x="966" y="1209"/>
      <point x="1117" y="1075"/>
      <point x="1174" y="872" type="curve"/>
      <point x="1340" y="920" type="line"/>
      <point x="1258" y="1184"/>
      <point x="1046" y="1354"/>
      <point x="744" y="1354" type="curve" smooth="yes"/>
      <point x="359" y="1354"/>
      <point x="112" y="1070"/>
      <point x="112" y="667" type="curve" smooth="yes"/>
      <point x="112" y="264"/>
      <point x="359" y="-20"/>
    </contour>
  </outline>
</glyph>
<glyph name="D" format="2">
  <advance width="1340"/>
  <unicode hex="0044"/>
  <note>
		D
	</note>
  <outline>
    <contour>
      <point x="140" y="0" type="line"/>
      <point x="677" y="0" type="line" smooth="yes"/>
      <point x="853" y="0"/>
      <point x="1101" y="168"/>
      <point x="1228" y="469"/>
      <point x="1228" y="666" type="qcurve"/>
      <point x="1228" y="864"/>
      <point x="1101" y="1166"/>
      <point x="853" y="1334"/>
      <point x="677" y="1334" type="qcurve"/>
      <point x="140" y="1334" type="line"/>
    </contour>
    <contour>
      <point x="306" y="150" type="line"/>
      <point x="306" y="1184" type="line"/>
      <point x="677" y="1184" type="line" smooth="yes"/>
      <point x="802" y="1184"/>
      <point x="971" y="1054"/>
      <point x="1053" y="822"/>
      <point x="1053" y="666" type="qcurve"/>
      <point x="1053" y="511"/>
      <point x="971" y="279"/>
      <point x="802" y="150"/>
      <point x="677" y="150" type="qcurve"/>
    </contour>
  </outline>
</glyph>
<glyph name="E" format="2">
  <advance width="1189"/>
  <unicode hex="0045"/>
  <note>
		E
	</note>
  <outline>
    <contour>
      <point x="140" y="1334" type="line"/>
      <point x="140" y="0" type="line"/>
      <point x="1089" y="0" type="line"/>
      <point x="1089" y="150" type="line"/>
      <point x="306" y="150" type="line"/>
      <point x="306" y="601" type="line"/>
      <point x="957" y="601" type="line"/>
      <point x="957" y="751" type="line"/>
      <point x="306" y="751" type="line"/>
      <point x="306" y="1184" type="line"/>
      <point x="1049" y="1184" type="line"/>
      <point x="1049" y="1334" type="line"/>
    </contour>
  </outline>
</glyph>
<glyph name="F" format="2">
  <advance width="1102"/>
  <unicode hex="0046"/>
  <note>
		F
	</note>
  <outline>
    <contour>
      <point x="140" y="0" type="line"/>
      <point x="306" y="0" type="line"/>
      <point x="306" y="603" type="line"/>
      <point x="946" y="603" type="line"/>
      <point x="946" y="753" type="line"/>
      <point x="306" y="753" type="line"/>
      <point x="306" y="1184" type="line"/>
      <point x="1002" y="1184" type="line"/>
      <point x="1002" y="1334" type="line"/>
      <point x="140" y="1334" type="line"/>
    </contour>
  </outline>
</glyph>
<glyph name="G" format="2">
  <advance width="1485"/>
  <unicode hex="0047"/>
  <note>
		G
	</note>
  <outline>
    <contour>
      <point x="734" y="-20" type="curve" smooth="yes"/>
      <point x="967" y="-20"/>
      <point x="1126" y="79"/>
      <point x="1210" y="265" type="curve"/>
      <point x="1205" y="224"/>
      <point x="1205" y="183"/>
      <point x="1205" y="152" type="curve" smooth="yes"/>
      <point x="1205" y="0" type="line"/>
      <point x="1345" y="0" type="line"/>
      <point x="1345" y="700" type="line"/>
      <point x="774" y="700" type="line"/>
      <point x="774" y="560" type="line"/>
      <point x="1194" y="560" type="line"/>
      <point x="1182" y="303"/>
      <point x="1018" y="125"/>
      <point x="744" y="125" type="curve" smooth="yes"/>
      <point x="461" y="125"/>
      <point x="287" y="352"/>
      <point x="287" y="667" type="curve" smooth="yes"/>
      <point x="287" y="982"/>
      <point x="461" y="1209"/>
      <point x="744" y="1209" type="curve" smooth="yes"/>
      <point x="947" y="1209"/>
      <point x="1091" y="1094"/>
      <point x="1145" y="924" type="curve"/>
      <point x="1309" y="972" type="line"/>
      <point x="1227" y="1201"/>
      <point x="1029" y="1354"/>
      <point x="744" y="1354" type="curve" smooth="yes"/>
      <point x="359" y="1354"/>
      <point x="112" y="1070"/>
      <point x="112" y="667" type="curve" smooth="yes"/>
      <point x="112" y="264"/>
      <point x="359" y="-20"/>
    </contour>
  </outline>
</glyph>
<glyph name="H" format="2">
  <advance width="1330"/>
  <unicode hex="0048"/>
  <note>
		H
	</note>
  <outline>
    <contour>
      <point x="140" y="1334" type="line"/>
      <point x="140" y="0" type="line"/>
      <point x="306" y="0" type="line"/>
      <point x="306" y="608" type="line"/>
      <point x="1024" y="608" type="line"/>
      <point x="1024" y="0" type="line"/>
      <point x="1190" y="0" type="line"/>
      <point x="1190" y="1334" type="line"/>
      <point x="1024" y="1334" type="line"/>
      <point x="1024" y="753" type="line"/>
      <point x="306" y="753" type="line"/>
      <point x="306" y="1334" type="line"/>
    </contour>
  </outline>
</glyph>
<glyph name="I" format="2">
  <advance width="446"/>
  <unicode hex="0049"/>
  <note>
		I
	</note>
  <outline>
    <contour>
      <point x="140" y="0" type="line"/>
      <point x="306" y="0" type="line"/>
      <point x="306" y="1334" type="line"/>
      <point x="140" y="1334" type="line"/>
    </contour>
  </outline>
</glyph>
<glyph name="J" format="2">
  <advance width="811"/>
  <unicode hex="004A"/>
  <note>
		J
	</note>
  <outline>
    <contour>
      <point x="334" y="-20" type="qcurve"/>
      <point x="500" y="-20"/>
      <point x="671" y="153"/>
      <point x="671" y="305" type="qcurve"/>
      <point x="671" y="1334" type="line"/>
      <point x="503" y="1334" type="line"/>
      <point x="503" y="318" type="line" smooth="yes"/>
      <point x="503" y="221"/>
      <point x="412" y="130"/>
      <point x="322" y="130" type="qcurve"/>
      <point x="195" y="130"/>
      <point x="90" y="185" type="qcurve"/>
      <point x="90" y="23" type="line"/>
      <point x="198" y="-20"/>
    </contour>
  </outline>
</glyph>
<glyph name="K" format="2">
  <advance width="1276"/>
  <unicode hex="004B"/>
  <note>
		K
	</note>
  <outline>
    <contour>
      <point x="140" y="1334" type="line"/>
      <point x="140" y="0" type="line"/>
      <point x="306" y="0" type="line"/>
      <point x="306" y="443" type="line"/>
      <point x="517" y="656" type="line"/>
      <point x="1036" y="0" type="line"/>
      <point x="1246" y="0" type="line"/>
      <point x="629" y="770" type="line"/>
      <point x="1188" y="1334" type="line"/>
      <point x="973" y="1334" type="line"/>
      <point x="306" y="657" type="line"/>
      <point x="306" y="1334" type="line"/>
    </contour>
  </outline>
</glyph>
<glyph name="L" format="2">
  <advance width="1060"/>
  <unicode hex="004C"/>
  <note>
		L
	</note>
  <outline>
    <contour>
      <point x="140" y="0" type="line"/>
      <point x="970" y="0" type="line"/>
      <point x="970" y="150" type="line"/>
      <point x="306" y="150" type="line"/>
      <point x="306" y="1334" type="line"/>
      <point x="140" y="1334" type="line"/>
    </contour>
  </outline>
</glyph>
<glyph name="M" format="2">
  <advance width="1574"/>
  <unicode hex="004D"/>
  <note>
		M
	</note>
  <outline>
    <contour>
      <point x="140" y="1334" type="line"/>
      <point x="140" y="0" type="line"/>
      <point x="300" y="0" type="line"/>
      <point x="300" y="884" type="line" smooth="yes"/>
      <point x="300" y="951"/>
      <point x="300" y="1019"/>
      <point x="292" y="1136" type="curve"/>
      <point x="324" y="1024"/>
      <point x="349" y="961"/>
      <point x="374" y="899" type="curve" smooth="yes"/>
      <point x="729" y="0" type="line"/>
      <point x="861" y="0" type="line"/>
      <point x="1200" y="899" type="line" smooth="yes"/>
      <point x="1224" y="962"/>
      <point x="1247" y="1024"/>
      <point x="1284" y="1136" type="curve"/>
      <point x="1276" y="1019"/>
      <point x="1276" y="951"/>
      <point x="1276" y="884" type="curve" smooth="yes"/>
      <point x="1276" y="0" type="line"/>
      <point x="1434" y="0" type="line"/>
      <point x="1434" y="1334" type="line"/>
      <point x="1210" y="1334" type="line"/>
      <point x="843" y="341" type="line" smooth="yes"/>
      <point x="825" y="293"/>
      <point x="813" y="257"/>
      <point x="798" y="192" type="curve"/>
      <point x="782" y="257"/>
      <point x="772" y="293"/>
      <point x="753" y="341" type="curve" smooth="yes"/>
      <point x="366" y="1334" type="line"/>
    </contour>
  </outline>
</glyph>
<glyph name="N" format="2">
  <advance width="1311"/>
  <unicode hex="004E"/>
  <note>
		N
	</note>
  <outline>
    <contour>
      <point x="140" y="1334" type="line"/>
      <point x="140" y="0" type="line"/>
      <point x="300" y="0" type="line"/>
      <point x="300" y="885" type="line" smooth="yes"/>
      <point x="300" y="953"/>
      <point x="300" y="1000"/>
      <point x="290" y="1088" type="curve"/>
      <point x="327" y="1009"/>
      <point x="355" y="967"/>
      <point x="392" y="914" type="curve" smooth="yes"/>
      <point x="1027" y="0" type="line"/>
      <point x="1171" y="0" type="line"/>
      <point x="1171" y="1334" type="line"/>
      <point x="1011" y="1334" type="line"/>
      <point x="1011" y="449" type="line" smooth="yes"/>
      <point x="1011" y="381"/>
      <point x="1011" y="334"/>
      <point x="1021" y="246" type="curve"/>
      <point x="984" y="325"/>
      <point x="956" y="367"/>
      <point x="919" y="420" type="curve" smooth="yes"/>
      <point x="284" y="1334" type="line"/>
    </contour>
  </outline>
</glyph>
<glyph name="O" format="2">
  <advance width="1500"/>
  <unicode hex="004F"/>
  <note>
		O
	</note>
  <outline>
    <contour>
      <point x="750" y="-20" type="qcurve"/>
      <point x="943" y="-20"/>
      <point x="1232" y="154"/>
      <point x="1388" y="466"/>
      <point x="1388" y="667" type="qcurve"/>
      <point x="1388" y="868"/>
      <point x="1232" y="1180"/>
      <point x="943" y="1354"/>
      <point x="750" y="1354" type="qcurve"/>
      <point x="558" y="1354"/>
      <point x="268" y="1180"/>
      <point x="112" y="868"/>
      <point x="112" y="667" type="qcurve"/>
      <point x="112" y="466"/>
      <point x="269" y="154"/>
      <point x="558" y="-20"/>
    </contour>
    <contour>
      <point x="287" y="667" type="qcurve"/>
      <point x="287" y="825"/>
      <point x="399" y="1071"/>
      <point x="608" y="1209"/>
      <point x="750" y="1209" type="qcurve"/>
      <point x="892" y="1209"/>
      <point x="1101" y="1071"/>
      <point x="1213" y="825"/>
      <point x="1213" y="667" type="qcurve"/>
      <point x="1213" y="509"/>
      <point x="1101" y="263"/>
      <point x="892" y="125"/>
      <point x="750" y="125" type="qcurve"/>
      <point x="608" y="125"/>
      <point x="399" y="263"/>
      <point x="287" y="509"/>
    </contour>
  </outline>
</glyph>
<glyph name="P" format="2">
  <advance width="1141"/>
  <unicode hex="0050"/>
  <note>
		P
	</note>
  <outline>
    <contour>
      <point x="602" y="1334" type="curve" smooth="yes"/>
      <point x="140" y="1334" type="line"/>
      <point x="140" y="0" type="line"/>
      <point x="306" y="0" type="line"/>
      <point x="306" y="559" type="line"/>
      <point x="602" y="559" type="line" smooth="yes"/>
      <point x="893" y="559"/>
      <point x="1046" y="705"/>
      <point x="1046" y="946" type="curve" smooth="yes"/>
      <point x="1046" y="1188"/>
      <point x="893" y="1334"/>
    </contour>
    <contour>
      <point x="612" y="709" type="curve" smooth="yes"/>
      <point x="306" y="709" type="line"/>
      <point x="306" y="1184" type="line"/>
      <point x="612" y="1184" type="line" smooth="yes"/>
      <point x="784" y="1184"/>
      <point x="873" y="1101"/>
      <point x="873" y="946" type="curve" smooth="yes"/>
      <point x="873" y="791"/>
      <point x="784" y="709"/>
    </contour>
  </outline>
</glyph>
<glyph name="Q" format="2">
  <advance width="1500"/>
  <unicode hex="0051"/>
  <note>
		Q
	</note>
  <outline>
    <contour>
      <point x="1221" y="67" type="curve" smooth="yes"/>
      <point x="1363" y="-61" type="line"/>
      <point x="1470" y="64" type="line"/>
      <point x="1327" y="185" type="line" smooth="yes"/>
      <point x="1308" y="201"/>
      <point x="1290" y="216"/>
      <point x="1263" y="232" type="curve"/>
      <point x="1344" y="347"/>
      <point x="1388" y="496"/>
      <point x="1388" y="667" type="curve" smooth="yes"/>
      <point x="1388" y="1071"/>
      <point x="1142" y="1354"/>
      <point x="750" y="1354" type="curve" smooth="yes"/>
      <point x="359" y="1354"/>
      <point x="112" y="1071"/>
      <point x="112" y="667" type="curve" smooth="yes"/>
      <point x="112" y="264"/>
      <point x="359" y="-20"/>
      <point x="750" y="-20" type="curve" smooth="yes"/>
      <point x="918" y="-20"/>
      <point x="1060" y="32"/>
      <point x="1166" y="124" type="curve"/>
      <point x="1185" y="101"/>
      <point x="1203" y="84"/>
    </contour>
    <contour>
      <point x="287" y="667" type="curve" smooth="yes"/>
      <point x="287" y="983"/>
      <point x="461" y="1209"/>
      <point x="750" y="1209" type="curve" smooth="yes"/>
      <point x="1039" y="1209"/>
      <point x="1213" y="983"/>
      <point x="1213" y="667" type="curve" smooth="yes"/>
      <point x="1213" y="352"/>
      <point x="1039" y="125"/>
      <point x="750" y="125" type="curve" smooth="yes"/>
      <point x="461" y="125"/>
      <point x="287" y="352"/>
    </contour>
  </outline>
</glyph>
<glyph name="R" format="2">
  <advance width="1179"/>
  <unicode hex="0052"/>
  <note>
		R
	</note>
  <outline>
    <contour>
      <point x="620" y="1334" type="curve" smooth="yes"/>
      <point x="140" y="1334" type="line"/>
      <point x="140" y="0" type="line"/>
      <point x="306" y="0" type="line"/>
      <point x="306" y="565" type="line"/>
      <point x="642" y="565" type="line"/>
      <point x="941" y="0" type="line"/>
      <point x="1129" y="0" type="line"/>
      <point x="809" y="589" type="line"/>
      <point x="977" y="638"/>
      <point x="1064" y="761"/>
      <point x="1064" y="946" type="curve" smooth="yes"/>
      <point x="1064" y="1190"/>
      <point x="912" y="1334"/>
    </contour>
    <contour>
      <point x="630" y="703" type="curve" smooth="yes"/>
      <point x="306" y="703" type="line"/>
      <point x="306" y="1184" type="line"/>
      <point x="630" y="1184" type="line" smooth="yes"/>
      <point x="802" y="1184"/>
      <point x="891" y="1105"/>
      <point x="891" y="944" type="curve" smooth="yes"/>
      <point x="891" y="782"/>
      <point x="802" y="703"/>
    </contour>
  </outline>
</glyph>
<glyph name="S" format="2">
  <advance width="1165"/>
  <unicode hex="0053"/>
  <note>
		S
	</note>
  <outline>
    <contour>
      <point x="594" y="-20" type="qcurve"/>
      <point x="742" y="-20"/>
      <point x="957" y="82"/>
      <point x="1070" y="269"/>
      <point x="1070" y="394" type="qcurve"/>
      <point x="1070" y="520"/>
      <point x="931" y="703"/>
      <point x="771" y="739" type="qcurve"/>
      <point x="500" y="799" type="line" smooth="yes"/>
      <point x="325" y="838"/>
      <point x="325" y="985" type="qcurve"/>
      <point x="325" y="1088"/>
      <point x="467" y="1209"/>
      <point x="597" y="1209" type="qcurve"/>
      <point x="721" y="1209"/>
      <point x="878" y="1089"/>
      <point x="894" y="976" type="qcurve"/>
      <point x="1061" y="1005" type="line"/>
      <point x="1043" y="1109"/>
      <point x="917" y="1267"/>
      <point x="719" y="1354"/>
      <point x="597" y="1354" type="qcurve"/>
      <point x="466" y="1354"/>
      <point x="265" y="1255"/>
      <point x="155" y="1083"/>
      <point x="155" y="978" type="qcurve"/>
      <point x="155" y="859"/>
      <point x="287" y="682"/>
      <point x="444" y="647" type="qcurve"/>
      <point x="702" y="589" type="line" smooth="yes"/>
      <point x="809" y="565"/>
      <point x="897" y="461"/>
      <point x="897" y="379" type="qcurve"/>
      <point x="897" y="298"/>
      <point x="820" y="184"/>
      <point x="683" y="125"/>
      <point x="594" y="125" type="qcurve"/>
      <point x="505" y="125"/>
      <point x="357" y="192"/>
      <point x="265" y="324"/>
      <point x="260" y="419" type="qcurve"/>
      <point x="95" y="386" type="line"/>
      <point x="108" y="265"/>
      <point x="237" y="81"/>
      <point x="454" y="-20"/>
    </contour>
  </outline>
</glyph>
<glyph name="T" format="2">
  <advance width="1170"/>
  <unicode hex="0054"/>
  <note>
		T
	</note>
  <outline>
    <contour>
      <point x="502" y="1187" type="line"/>
      <point x="502" y="0" type="line"/>
      <point x="668" y="0" type="line"/>
      <point x="668" y="1187" type="line"/>
      <point x="1080" y="1187" type="line"/>
      <point x="1080" y="1334" type="line"/>
      <point x="90" y="1334" type="line"/>
      <point x="90" y="1187" type="line"/>
    </contour>
  </outline>
</glyph>
<glyph name="U" format="2">
  <advance width="1308"/>
  <unicode hex="0055"/>
  <note>
		U
	</note>
  <outline>
    <contour>
      <point x="654" y="-20" type="qcurve"/>
      <point x="829" y="-20"/>
      <point x="1059" y="111"/>
      <point x="1168" y="341"/>
      <point x="1168" y="491" type="qcurve"/>
      <point x="1168" y="1334" type="line"/>
      <point x="1001" y="1334" type="line"/>
      <point x="1001" y="499" type="line" smooth="yes"/>
      <point x="1001" y="319"/>
      <point x="830" y="125"/>
      <point x="654" y="125" type="qcurve"/>
      <point x="477" y="125"/>
      <point x="306" y="319"/>
      <point x="306" y="499" type="qcurve"/>
      <point x="306" y="1334" type="line"/>
      <point x="140" y="1334" type="line"/>
      <point x="140" y="491" type="line" smooth="yes"/>
      <point x="140" y="341"/>
      <point x="249" y="111"/>
      <point x="479" y="-20"/>
    </contour>
  </outline>
</glyph>
<glyph name="V" format="2">
  <advance width="1239"/>
  <unicode hex="0056"/>
  <note>
		V
	</note>
  <outline>
    <contour>
      <point x="50" y="1334" type="line"/>
      <point x="553" y="0" type="line"/>
      <point x="690" y="0" type="line"/>
      <point x="1189" y="1334" type="line"/>
      <point x="1013" y="1334" type="line"/>
      <point x="677" y="412" type="line" smooth="yes"/>
      <point x="656" y="354"/>
      <point x="639" y="307"/>
      <point x="623" y="247" type="curve"/>
      <point x="607" y="307"/>
      <point x="590" y="354"/>
      <point x="569" y="412" type="curve" smooth="yes"/>
      <point x="229" y="1334" type="line"/>
    </contour>
  </outline>
</glyph>
<glyph name="W" format="2">
  <advance width="1869"/>
  <unicode hex="0057"/>
  <note>
		W
	</note>
  <outline>
    <contour>
      <point x="50" y="1334" type="line"/>
      <point x="473" y="0" type="line"/>
      <point x="620" y="0" type="line"/>
      <point x="881" y="883" type="line" smooth="yes"/>
      <point x="903" y="956"/>
      <point x="918" y="1021"/>
      <point x="935" y="1106" type="curve"/>
      <point x="952" y="1021"/>
      <point x="968" y="956"/>
      <point x="989" y="883" type="curve" smooth="yes"/>
      <point x="1249" y="0" type="line"/>
      <point x="1396" y="0" type="line"/>
      <point x="1819" y="1334" type="line"/>
      <point x="1643" y="1334" type="line"/>
      <point x="1366" y="421" type="line" smooth="yes"/>
      <point x="1346" y="354"/>
      <point x="1334" y="304"/>
      <point x="1321" y="234" type="curve"/>
      <point x="1309" y="304"/>
      <point x="1299" y="354"/>
      <point x="1279" y="421" type="curve" smooth="yes"/>
      <point x="1010" y="1334" type="line"/>
      <point x="859" y="1334" type="line"/>
      <point x="590" y="421" type="line" smooth="yes"/>
      <point x="570" y="354"/>
      <point x="560" y="304"/>
      <point x="548" y="234" type="curve"/>
      <point x="535" y="304"/>
      <point x="523" y="354"/>
      <point x="503" y="421" type="curve" smooth="yes"/>
      <point x="226" y="1334" type="line"/>
    </contour>
  </outline>
</glyph>
<glyph name="X" format="2">
  <advance width="1284"/>
  <unicode hex="0058"/>
  <note>
		X
	</note>
  <outline>
    <contour>
      <point x="543" y="693" type="line"/>
      <point x="50" y="0" type="line"/>
      <point x="250" y="0" type="line"/>
      <point x="526" y="392" type="line" smooth="yes"/>
      <point x="564" y="446"/>
      <point x="604" y="503"/>
      <point x="642" y="587" type="curve"/>
      <point x="681" y="503"/>
      <point x="721" y="446"/>
      <point x="759" y="392" type="curve" smooth="yes"/>
      <point x="1034" y="0" type="line"/>
      <point x="1234" y="0" type="line"/>
      <point x="741" y="693" type="line"/>
      <point x="1194" y="1334" type="line"/>
      <point x="998" y="1334" type="line"/>
      <point x="759" y="994" type="line" smooth="yes"/>
      <point x="721" y="940"/>
      <point x="681" y="883"/>
      <point x="642" y="799" type="curve"/>
      <point x="603" y="883"/>
      <point x="563" y="940"/>
      <point x="525" y="994" type="curve" smooth="yes"/>
      <point x="286" y="1334" type="line"/>
      <point x="90" y="1334" type="line"/>
    </contour>
  </outline>
</glyph>
<glyph name="Y" format="2">
  <advance width="1261"/>
  <unicode hex="0059"/>
  <note>
		Y
	</note>
  <outline>
    <contour>
      <point x="547" y="0" type="line"/>
      <point x="714" y="0" type="line"/>
      <point x="714" y="532" type="line"/>
      <point x="1211" y="1334" type="line"/>
      <point x="1025" y="1334" type="line"/>
      <point x="686" y="778" type="line" smooth="yes"/>
      <point x="668" y="748"/>
      <point x="643" y="699"/>
      <point x="631" y="666" type="qcurve"/>
      <point x="611" y="721"/>
      <point x="577" y="778" type="qcurve"/>
      <point x="237" y="1334" type="line"/>
      <point x="50" y="1334" type="line"/>
      <point x="547" y="532" type="line"/>
    </contour>
  </outline>
</glyph>
<glyph name="Z" format="2">
  <advance width="1218"/>
  <unicode hex="005A"/>
  <note>
		Z
	</note>
  <outline>
    <contour>
      <point x="90" y="0" type="line"/>
      <point x="1128" y="0" type="line"/>
      <point x="1128" y="150" type="line"/>
      <point x="376" y="150" type="line" smooth="yes"/>
      <point x="311" y="150"/>
      <point x="268" y="145" type="qcurve"/>
      <point x="326" y="203"/>
      <point x="351" y="236" type="qcurve"/>
      <point x="1075" y="1214" type="line"/>
      <point x="1075" y="1334" type="line"/>
      <point x="115" y="1334" type="line"/>
      <point x="115" y="1184" type="line"/>
      <point x="760" y="1184" type="line" smooth="yes"/>
      <point x="825" y="1184"/>
      <point x="868" y="1189" type="qcurve"/>
      <point x="810" y="1131"/>
      <point x="785" y="1098" type="qcurve"/>
      <point x="90" y="160" type="line"/>
    </contour>
  </outline>
</glyph>
<glyph name="bracketleft" format="2">
  <advance width="653"/>
  <unicode hex="005B"/>
  <note>
		bracketleft
	</note>
  <outline>
    <contour>
      <point x="140" y="1334" type="line"/>
      <point x="140" y="-380" type="line"/>
      <point x="563" y="-380" type="line"/>
      <point x="563" y="-240" type="line"/>
      <point x="307" y="-240" type="line"/>
      <point x="307" y="1194" type="line"/>
      <point x="563" y="1194" type="line"/>
      <point x="563" y="1334" type="line"/>
    </contour>
  </outline>
</glyph>
<glyph name="backslash" format="2">
  <advance width="907"/>
  <unicode hex="005C"/>
  <note>
		backslash
	</note>
  <outline>
    <contour>
      <point x="817" y="-380" type="line"/>
      <point x="253" y="1334" type="line"/>
      <point x="90" y="1334" type="line"/>
      <point x="654" y="-380" type="line"/>
    </contour>
  </outline>
</glyph>
<glyph name="bracketright" format="2">
  <advance width="653"/>
  <unicode hex="005D"/>
  <note>
		bracketright
	</note>
  <outline>
    <contour>
      <point x="90" y="-380" type="line"/>
      <point x="513" y="-380" type="line"/>
      <point x="513" y="1334" type="line"/>
      <point x="90" y="1334" type="line"/>
      <point x="90" y="1194" type="line"/>
      <point x="346" y="1194" type="line"/>
      <point x="346" y="-240" type="line"/>
      <point x="90" y="-240" type="line"/>
    </contour>
  </outline>
</glyph>
<glyph name="asciicircum" format="2">
  <advance width="1117"/>
  <unicode hex="005E"/>
  <note>
		asciicircum
	</note>
  <outline>
    <contour>
      <point x="483" y="1334" type="line"/>
      <point x="120" y="667" type="line"/>
      <point x="286" y="667" type="line"/>
      <point x="559" y="1173" type="line"/>
      <point x="831" y="667" type="line"/>
      <point x="997" y="667" type="line"/>
      <point x="635" y="1334" type="line"/>
    </contour>
  </outline>
</glyph>
<glyph name="underscore" format="2">
  <advance width="783"/>
  <unicode hex="005F"/>
  <note>
		underscore
	</note>
  <outline>
    <contour>
      <point x="-1" y="-250" type="line"/>
      <point x="-1" y="-380" type="line"/>
      <point x="784" y="-380" type="line"/>
      <point x="784" y="-250" type="line"/>
    </contour>
  </outline>
</glyph>
<glyph name="grave" format="2">
  <advance width="400"/>
  <unicode hex="0060"/>
  <note>
		grave
	</note>
  <outline>
    <contour>
      <point x="50" y="1334" type="line"/>
      <point x="240" y="1069" type="line"/>
      <point x="350" y="1069" type="line"/>
      <point x="263" y="1334" type="line"/>
    </contour>
  </outline>
</glyph>
<glyph name="a" format="2">
  <advance width="993"/>
  <unicode hex="0061"/>
  <note>
		a
	</note>
  <outline>
    <contour>
      <point x="422" y="-20" type="qcurve"/>
      <point x="518" y="-20"/>
      <point x="678" y="72"/>
      <point x="726" y="161" type="qcurve"/>
      <point x="720" y="116"/>
      <point x="720" y="71" type="qcurve"/>
      <point x="720" y="36"/>
      <point x="723" y="0" type="qcurve"/>
      <point x="883" y="0" type="line"/>
      <point x="873" y="71"/>
      <point x="873" y="161" type="qcurve"/>
      <point x="873" y="638" type="line" smooth="yes"/>
      <point x="873" y="791"/>
      <point x="697" y="948"/>
      <point x="507" y="948" type="qcurve"/>
      <point x="164" y="948"/>
      <point x="142" y="656" type="qcurve"/>
      <point x="296" y="649" type="line"/>
      <point x="302" y="739"/>
      <point x="405" y="818"/>
      <point x="507" y="818" type="qcurve"/>
      <point x="611" y="818"/>
      <point x="718" y="735"/>
      <point x="718" y="642" type="qcurve"/>
      <point x="718" y="560" type="line"/>
      <point x="416" y="516" type="line" smooth="yes"/>
      <point x="268" y="494"/>
      <point x="110" y="370"/>
      <point x="110" y="251" type="qcurve"/>
      <point x="110" y="170"/>
      <point x="186" y="47"/>
      <point x="327" y="-20"/>
    </contour>
    <contour>
      <point x="270" y="256" type="qcurve"/>
      <point x="270" y="321"/>
      <point x="349" y="389"/>
      <point x="430" y="401" type="qcurve"/>
      <point x="718" y="446" type="line"/>
      <point x="718" y="366" type="line" smooth="yes"/>
      <point x="718" y="293"/>
      <point x="652" y="177"/>
      <point x="528" y="110"/>
      <point x="446" y="110" type="qcurve"/>
      <point x="365" y="110"/>
      <point x="270" y="189"/>
    </contour>
  </outline>
</glyph>
<glyph name="b" format="2">
  <advance width="1100"/>
  <unicode hex="0062"/>
  <note>
		b
	</note>
  <outline>
    <contour>
      <point x="588" y="-20" type="qcurve"/>
      <point x="713" y="-20"/>
      <point x="899" y="99"/>
      <point x="1000" y="318"/>
      <point x="1000" y="464" type="qcurve"/>
      <point x="1000" y="610"/>
      <point x="899" y="829"/>
      <point x="713" y="948"/>
      <point x="588" y="948" type="qcurve"/>
      <point x="486" y="948"/>
      <point x="320" y="849"/>
      <point x="270" y="757" type="qcurve"/>
      <point x="277" y="795"/>
      <point x="280" y="871"/>
      <point x="280" y="928" type="qcurve"/>
      <point x="280" y="1334" type="line"/>
      <point x="120" y="1334" type="line"/>
      <point x="120" y="0" type="line"/>
      <point x="275" y="0" type="line"/>
      <point x="275" y="63"/>
      <point x="272" y="145"/>
      <point x="267" y="187" type="qcurve"/>
      <point x="312" y="88"/>
      <point x="481" y="-20"/>
    </contour>
    <contour>
      <point x="280" y="464" type="qcurve"/>
      <point x="280" y="570"/>
      <point x="348" y="728"/>
      <point x="473" y="813"/>
      <point x="557" y="813" type="qcurve"/>
      <point x="641" y="813"/>
      <point x="767" y="728"/>
      <point x="835" y="571"/>
      <point x="835" y="464" type="qcurve"/>
      <point x="835" y="356"/>
      <point x="766" y="198"/>
      <point x="640" y="115"/>
      <point x="557" y="115" type="qcurve"/>
      <point x="474" y="115"/>
      <point x="349" y="198"/>
      <point x="280" y="356"/>
    </contour>
  </outline>
</glyph>
<glyph name="c" format="2">
  <advance width="1042"/>
  <unicode hex="0063"/>
  <note>
		c
	</note>
  <outline>
    <contour>
      <point x="538" y="-20" type="qcurve"/>
      <point x="699" y="-20"/>
      <point x="915" y="150"/>
      <point x="957" y="303" type="qcurve"/>
      <point x="797" y="341" type="line"/>
      <point x="771" y="228"/>
      <point x="639" y="110"/>
      <point x="538" y="110" type="qcurve"/>
      <point x="457" y="110"/>
      <point x="334" y="194"/>
      <point x="265" y="354"/>
      <point x="265" y="464" type="qcurve"/>
      <point x="265" y="573"/>
      <point x="332" y="733"/>
      <point x="456" y="818"/>
      <point x="538" y="818" type="qcurve"/>
      <point x="637" y="818"/>
      <point x="766" y="708"/>
      <point x="793" y="602" type="qcurve"/>
      <point x="950" y="648" type="line"/>
      <point x="906" y="791"/>
      <point x="693" y="948"/>
      <point x="538" y="948" type="qcurve"/>
      <point x="408" y="948"/>
      <point x="209" y="829"/>
      <point x="100" y="609"/>
      <point x="100" y="464" type="qcurve"/>
      <point x="100" y="320"/>
      <point x="209" y="101"/>
      <point x="408" y="-20"/>
    </contour>
  </outline>
</glyph>
<glyph name="d" format="2">
  <advance width="1100"/>
  <unicode hex="0064"/>
  <note>
		d
	</note>
  <outline>
    <contour>
      <point x="512" y="-20" type="curve" smooth="yes"/>
      <point x="654" y="-20"/>
      <point x="773" y="55"/>
      <point x="833" y="187" type="curve"/>
      <point x="825" y="124"/>
      <point x="825" y="63"/>
      <point x="825" y="0" type="curve"/>
      <point x="980" y="0" type="line"/>
      <point x="980" y="1334" type="line"/>
      <point x="820" y="1334" type="line"/>
      <point x="820" y="928" type="line" smooth="yes"/>
      <point x="820" y="871"/>
      <point x="820" y="814"/>
      <point x="830" y="757" type="curve"/>
      <point x="763" y="880"/>
      <point x="648" y="948"/>
      <point x="512" y="948" type="curve" smooth="yes"/>
      <point x="259" y="948"/>
      <point x="100" y="758"/>
      <point x="100" y="464" type="curve" smooth="yes"/>
      <point x="100" y="170"/>
      <point x="259" y="-20"/>
    </contour>
    <contour>
      <point x="265" y="464" type="curve" smooth="yes"/>
      <point x="265" y="679"/>
      <point x="373" y="813"/>
      <point x="543" y="813" type="curve" smooth="yes"/>
      <point x="712" y="813"/>
      <point x="820" y="679"/>
      <point x="820" y="464" type="curve" smooth="yes"/>
      <point x="820" y="244"/>
      <point x="709" y="115"/>
      <point x="543" y="115" type="curve" smooth="yes"/>
      <point x="376" y="115"/>
      <point x="265" y="244"/>
    </contour>
  </outline>
</glyph>
<glyph name="e" format="2">
  <advance width="1051"/>
  <unicode hex="0065"/>
  <note>
		e
	</note>
  <outline>
    <contour>
      <point x="533" y="-20" type="curve" smooth="yes"/>
      <point x="718" y="-20"/>
      <point x="859" y="77"/>
      <point x="926" y="240" type="curve"/>
      <point x="773" y="284" type="line"/>
      <point x="729" y="170"/>
      <point x="641" y="110"/>
      <point x="533" y="110" type="curve" smooth="yes"/>
      <point x="376" y="110"/>
      <point x="269" y="232"/>
      <point x="261" y="438" type="curve"/>
      <point x="951" y="438" type="line"/>
      <point x="951" y="464" type="line" smooth="yes"/>
      <point x="951" y="758"/>
      <point x="793" y="948"/>
      <point x="531" y="948" type="curve" smooth="yes"/>
      <point x="270" y="948"/>
      <point x="100" y="758"/>
      <point x="100" y="464" type="curve" smooth="yes"/>
      <point x="100" y="174"/>
      <point x="268" y="-20"/>
    </contour>
    <contour>
      <point x="785" y="560" type="curve"/>
      <point x="267" y="560" type="line"/>
      <point x="294" y="725"/>
      <point x="391" y="818"/>
      <point x="531" y="818" type="curve" smooth="yes"/>
      <point x="671" y="818"/>
      <point x="761" y="725"/>
    </contour>
  </outline>
</glyph>
<glyph name="f" format="2">
  <advance width="659"/>
  <unicode hex="0066"/>
  <note>
		f
	</note>
  <outline>
    <contour>
      <point x="203" y="0" type="line"/>
      <point x="363" y="0" type="line"/>
      <point x="363" y="798" type="line"/>
      <point x="580" y="798" type="line"/>
      <point x="580" y="928" type="line"/>
      <point x="363" y="928" type="line"/>
      <point x="363" y="1087" type="line" smooth="yes"/>
      <point x="363" y="1146"/>
      <point x="412" y="1199"/>
      <point x="466" y="1199" type="qcurve"/>
      <point x="533" y="1199"/>
      <point x="594" y="1161" type="qcurve"/>
      <point x="594" y="1309" type="line"/>
      <point x="520" y="1344"/>
      <point x="430" y="1344" type="qcurve"/>
      <point x="325" y="1344"/>
      <point x="203" y="1213"/>
      <point x="203" y="1092" type="qcurve"/>
      <point x="203" y="928" type="line"/>
      <point x="35" y="928" type="line"/>
      <point x="35" y="798" type="line"/>
      <point x="203" y="798" type="line"/>
    </contour>
  </outline>
</glyph>
<glyph name="g" format="2">
  <advance width="1100"/>
  <unicode hex="0067"/>
  <note>
		g
	</note>
  <outline>
    <contour>
      <point x="554" y="-400" type="qcurve"/>
      <point x="682" y="-400"/>
      <point x="874" y="-304"/>
      <point x="980" y="-117"/>
      <point x="980" y="16" type="qcurve"/>
      <point x="980" y="928" type="line"/>
      <point x="825" y="928" type="line"/>
      <point x="825" y="867"/>
      <point x="828" y="787"/>
      <point x="833" y="746" type="qcurve"/>
      <point x="787" y="842"/>
      <point x="616" y="948"/>
      <point x="514" y="948" type="qcurve"/>
      <point x="391" y="948"/>
      <point x="203" y="828"/>
      <point x="100" y="611"/>
      <point x="100" y="470" type="qcurve"/>
      <point x="100" y="328"/>
      <point x="203" y="111"/>
      <point x="391" y="-8"/>
      <point x="514" y="-8" type="qcurve"/>
      <point x="613" y="-8"/>
      <point x="781" y="92"/>
      <point x="830" y="182" type="qcurve"/>
      <point x="823" y="145"/>
      <point x="820" y="71"/>
      <point x="820" y="16" type="qcurve"/>
      <point x="820" y="-121"/>
      <point x="676" y="-255"/>
      <point x="554" y="-255" type="qcurve"/>
      <point x="443" y="-255"/>
      <point x="299" y="-162"/>
      <point x="281" y="-76" type="qcurve"/>
      <point x="120" y="-126" type="line"/>
      <point x="160" y="-255"/>
      <point x="387" y="-400"/>
    </contour>
    <contour>
      <point x="266" y="470" type="qcurve"/>
      <point x="266" y="573"/>
      <point x="335" y="729"/>
      <point x="461" y="813"/>
      <point x="543" y="813" type="qcurve"/>
      <point x="625" y="813"/>
      <point x="750" y="729"/>
      <point x="819" y="573"/>
      <point x="819" y="470" type="qcurve"/>
      <point x="819" y="366"/>
      <point x="752" y="211"/>
      <point x="627" y="127"/>
      <point x="543" y="127" type="qcurve"/>
      <point x="459" y="127"/>
      <point x="334" y="211"/>
      <point x="266" y="366"/>
    </contour>
  </outline>
</glyph>
<glyph name="h" format="2">
  <advance width="1005"/>
  <unicode hex="0068"/>
  <note>
		h
	</note>
  <outline>
    <contour>
      <point x="120" y="1334" type="line"/>
      <point x="120" y="0" type="line"/>
      <point x="280" y="0" type="line"/>
      <point x="280" y="521" type="line" smooth="yes"/>
      <point x="280" y="698"/>
      <point x="401" y="813"/>
      <point x="539" y="813" type="curve" smooth="yes"/>
      <point x="660" y="813"/>
      <point x="725" y="738"/>
      <point x="725" y="598" type="curve" smooth="yes"/>
      <point x="725" y="0" type="line"/>
      <point x="885" y="0" type="line"/>
      <point x="885" y="631" type="line" smooth="yes"/>
      <point x="885" y="824"/>
      <point x="768" y="948"/>
      <point x="579" y="948" type="curve" smooth="yes"/>
      <point x="429" y="948"/>
      <point x="321" y="863"/>
      <point x="267" y="744" type="curve"/>
      <point x="276" y="805"/>
      <point x="280" y="866"/>
      <point x="280" y="928" type="curve" smooth="yes"/>
      <point x="280" y="1334" type="line"/>
    </contour>
  </outline>
</glyph>
<glyph name="i" format="2">
  <advance width="400"/>
  <unicode hex="0069"/>
  <note>
		i
	</note>
  <outline>
    <contour>
      <point x="120" y="1334" type="line"/>
      <point x="120" y="1104" type="line"/>
      <point x="280" y="1104" type="line"/>
      <point x="280" y="1334" type="line"/>
    </contour>
    <contour>
      <point x="120" y="928" type="line"/>
      <point x="120" y="0" type="line"/>
      <point x="280" y="0" type="line"/>
      <point x="280" y="928" type="line"/>
    </contour>
  </outline>
</glyph>
<glyph name="j" format="2">
  <advance width="400"/>
  <unicode hex="006A"/>
  <note>
		j
	</note>
  <outline>
    <contour>
      <point x="120" y="1104" type="line"/>
      <point x="280" y="1104" type="line"/>
      <point x="280" y="1334" type="line"/>
      <point x="120" y="1334" type="line"/>
    </contour>
    <contour>
      <point x="-75" y="-380" type="line"/>
      <point x="-18" y="-390"/>
      <point x="36" y="-390" type="qcurve"/>
      <point x="147" y="-390"/>
      <point x="280" y="-271"/>
      <point x="280" y="-158" type="qcurve"/>
      <point x="280" y="928" type="line"/>
      <point x="120" y="928" type="line"/>
      <point x="120" y="-130" type="line" smooth="yes"/>
      <point x="120" y="-189"/>
      <point x="63" y="-245"/>
      <point x="5" y="-245" type="qcurve"/>
      <point x="-38" y="-245"/>
      <point x="-75" y="-236" type="qcurve"/>
    </contour>
  </outline>
</glyph>
<glyph name="l" format="2">
  <advance width="400"/>
  <unicode hex="006C"/>
  <note>
		l
	</note>
  <outline>
    <contour>
      <point x="120" y="0" type="line"/>
      <point x="280" y="0" type="line"/>
      <point x="280" y="1334" type="line"/>
      <point x="120" y="1334" type="line"/>
    </contour>
  </outline>
</glyph>
<glyph name="m" format="2">
  <advance width="1480"/>
  <unicode hex="006D"/>
  <note>
		m
	</note>
  <outline>
    <contour>
      <point x="275" y="928" type="curve"/>
      <point x="120" y="928" type="line"/>
      <point x="120" y="0" type="line"/>
      <point x="280" y="0" type="line"/>
      <point x="280" y="521" type="line" smooth="yes"/>
      <point x="280" y="698"/>
      <point x="361" y="813"/>
      <point x="494" y="813" type="curve" smooth="yes"/>
      <point x="615" y="813"/>
      <point x="660" y="738"/>
      <point x="660" y="598" type="curve" smooth="yes"/>
      <point x="660" y="0" type="line"/>
      <point x="820" y="0" type="line"/>
      <point x="820" y="521" type="line" smooth="yes"/>
      <point x="820" y="698"/>
      <point x="901" y="813"/>
      <point x="1034" y="813" type="curve" smooth="yes"/>
      <point x="1155" y="813"/>
      <point x="1200" y="738"/>
      <point x="1200" y="598" type="curve" smooth="yes"/>
      <point x="1200" y="0" type="line"/>
      <point x="1360" y="0" type="line"/>
      <point x="1360" y="631" type="line" smooth="yes"/>
      <point x="1360" y="824"/>
      <point x="1263" y="948"/>
      <point x="1069" y="948" type="curve" smooth="yes"/>
      <point x="931" y="948"/>
      <point x="845" y="862"/>
      <point x="803" y="759" type="curve"/>
      <point x="767" y="877"/>
      <point x="676" y="948"/>
      <point x="529" y="948" type="curve" smooth="yes"/>
      <point x="384" y="948"/>
      <point x="300" y="858"/>
      <point x="267" y="744" type="curve"/>
      <point x="275" y="805"/>
      <point x="275" y="866"/>
    </contour>
  </outline>
</glyph>
<glyph name="n" format="2">
  <advance width="1005"/>
  <unicode hex="006E"/>
  <note>
		n
	</note>
  <outline>
    <contour>
      <point x="275" y="928" type="curve"/>
      <point x="120" y="928" type="line"/>
      <point x="120" y="0" type="line"/>
      <point x="280" y="0" type="line"/>
      <point x="280" y="521" type="line" smooth="yes"/>
      <point x="280" y="698"/>
      <point x="401" y="813"/>
      <point x="539" y="813" type="curve" smooth="yes"/>
      <point x="660" y="813"/>
      <point x="725" y="738"/>
      <point x="725" y="598" type="curve" smooth="yes"/>
      <point x="725" y="0" type="line"/>
      <point x="885" y="0" type="line"/>
      <point x="885" y="631" type="line" smooth="yes"/>
      <point x="885" y="824"/>
      <point x="768" y="948"/>
      <point x="579" y="948" type="curve" smooth="yes"/>
      <point x="429" y="948"/>
      <point x="321" y="863"/>
      <point x="267" y="744" type="curve"/>
      <point x="275" y="805"/>
      <point x="275" y="866"/>
    </contour>
  </outline>
</glyph>
<glyph name="o" format="2">
  <advance width="1080"/>
  <unicode hex="006F"/>
  <note>
		o
	</note>
  <outline>
    <contour>
      <point x="540" y="-20" type="curve" smooth="yes"/>
      <point x="813" y="-20"/>
      <point x="980" y="174"/>
      <point x="980" y="464" type="curve" smooth="yes"/>
      <point x="980" y="758"/>
      <point x="813" y="948"/>
      <point x="540" y="948" type="curve" smooth="yes"/>
      <point x="268" y="948"/>
      <point x="100" y="758"/>
      <point x="100" y="464" type="curve" smooth="yes"/>
      <point x="100" y="174"/>
      <point x="267" y="-20"/>
    </contour>
    <contour>
      <point x="265" y="464" type="curve" smooth="yes"/>
      <point x="265" y="684"/>
      <point x="365" y="818"/>
      <point x="540" y="818" type="curve" smooth="yes"/>
      <point x="715" y="818"/>
      <point x="815" y="684"/>
      <point x="815" y="464" type="curve" smooth="yes"/>
      <point x="815" y="239"/>
      <point x="712" y="110"/>
      <point x="540" y="110" type="curve" smooth="yes"/>
      <point x="369" y="110"/>
      <point x="265" y="239"/>
    </contour>
  </outline>
</glyph>
<glyph name="p" format="2">
  <advance width="1100"/>
  <unicode hex="0070"/>
  <note>
		p
	</note>
  <outline>
    <contour>
      <point x="275" y="928" type="curve"/>
      <point x="120" y="928" type="line"/>
      <point x="120" y="-380" type="line"/>
      <point x="280" y="-380" type="line"/>
      <point x="280" y="0" type="line" smooth="yes"/>
      <point x="280" y="57"/>
      <point x="280" y="114"/>
      <point x="270" y="171" type="curve"/>
      <point x="337" y="48"/>
      <point x="452" y="-20"/>
      <point x="588" y="-20" type="curve" smooth="yes"/>
      <point x="841" y="-20"/>
      <point x="1000" y="170"/>
      <point x="1000" y="464" type="curve" smooth="yes"/>
      <point x="1000" y="758"/>
      <point x="841" y="948"/>
      <point x="588" y="948" type="curve" smooth="yes"/>
      <point x="446" y="948"/>
      <point x="327" y="873"/>
      <point x="267" y="741" type="curve"/>
      <point x="274" y="804"/>
      <point x="275" y="865"/>
    </contour>
    <contour>
      <point x="280" y="464" type="curve" smooth="yes"/>
      <point x="280" y="684"/>
      <point x="391" y="813"/>
      <point x="557" y="813" type="curve" smooth="yes"/>
      <point x="724" y="813"/>
      <point x="835" y="684"/>
      <point x="835" y="464" type="curve" smooth="yes"/>
      <point x="835" y="249"/>
      <point x="727" y="115"/>
      <point x="557" y="115" type="curve" smooth="yes"/>
      <point x="388" y="115"/>
      <point x="280" y="249"/>
    </contour>
  </outline>
</glyph>
<glyph name="q" format="2">
  <advance width="1100"/>
  <unicode hex="0071"/>
  <note>
		q
	</note>
  <outline>
    <contour>
      <point x="820" y="0" type="curve" smooth="yes"/>
      <point x="820" y="-380" type="line"/>
      <point x="980" y="-380" type="line"/>
      <point x="980" y="928" type="line"/>
      <point x="825" y="928" type="line"/>
      <point x="825" y="865"/>
      <point x="826" y="804"/>
      <point x="833" y="741" type="curve"/>
      <point x="773" y="873"/>
      <point x="654" y="948"/>
      <point x="512" y="948" type="curve" smooth="yes"/>
      <point x="259" y="948"/>
      <point x="100" y="758"/>
      <point x="100" y="464" type="curve" smooth="yes"/>
      <point x="100" y="170"/>
      <point x="259" y="-20"/>
      <point x="512" y="-20" type="curve" smooth="yes"/>
      <point x="648" y="-20"/>
      <point x="763" y="48"/>
      <point x="830" y="171" type="curve"/>
      <point x="820" y="114"/>
      <point x="820" y="57"/>
    </contour>
    <contour>
      <point x="265" y="464" type="curve" smooth="yes"/>
      <point x="265" y="684"/>
      <point x="376" y="813"/>
      <point x="543" y="813" type="curve" smooth="yes"/>
      <point x="709" y="813"/>
      <point x="820" y="684"/>
      <point x="820" y="464" type="curve" smooth="yes"/>
      <point x="820" y="249"/>
      <point x="712" y="115"/>
      <point x="543" y="115" type="curve" smooth="yes"/>
      <point x="373" y="115"/>
      <point x="265" y="249"/>
    </contour>
  </outline>
</glyph>
<glyph name="r" format="2">
  <advance width="661"/>
  <unicode hex="0072"/>
  <note>
		r
	</note>
  <outline>
    <contour>
      <point x="120" y="0" type="line"/>
      <point x="280" y="0" type="line"/>
      <point x="280" y="532" type="line" smooth="yes"/>
      <point x="280" y="656"/>
      <point x="432" y="784"/>
      <point x="581" y="784" type="qcurve"/>
      <point x="581" y="948" type="line"/>
      <point x="478" y="948"/>
      <point x="315" y="846"/>
      <point x="267" y="744" type="qcurve"/>
      <point x="272" y="786"/>
      <point x="275" y="868"/>
      <point x="275" y="928" type="qcurve"/>
      <point x="120" y="928" type="line"/>
    </contour>
  </outline>
</glyph>
<glyph name="s" format="2">
  <advance width="919"/>
  <unicode hex="0073"/>
  <note>
		s
	</note>
  <outline>
    <contour>
      <point x="468" y="-20" type="curve" smooth="yes"/>
      <point x="684" y="-20"/>
      <point x="839" y="108"/>
      <point x="839" y="285" type="curve" smooth="yes"/>
      <point x="839" y="433"/>
      <point x="745" y="498"/>
      <point x="602" y="529" type="curve" smooth="yes"/>
      <point x="412" y="570" type="line" smooth="yes"/>
      <point x="327" y="588"/>
      <point x="274" y="615"/>
      <point x="274" y="689" type="curve" smooth="yes"/>
      <point x="274" y="766"/>
      <point x="345" y="818"/>
      <point x="458" y="818" type="curve" smooth="yes"/>
      <point x="575" y="818"/>
      <point x="652" y="767"/>
      <point x="662" y="664" type="curve"/>
      <point x="816" y="681" type="line"/>
      <point x="797" y="848"/>
      <point x="649" y="948"/>
      <point x="458" y="948" type="curve" smooth="yes"/>
      <point x="264" y="948"/>
      <point x="119" y="840"/>
      <point x="119" y="677" type="curve" smooth="yes"/>
      <point x="119" y="533"/>
      <point x="209" y="462"/>
      <point x="372" y="427" type="curve" smooth="yes"/>
      <point x="537" y="392" type="line" smooth="yes"/>
      <point x="632" y="372"/>
      <point x="679" y="344"/>
      <point x="679" y="272" type="curve" smooth="yes"/>
      <point x="679" y="181"/>
      <point x="603" y="110"/>
      <point x="468" y="110" type="curve" smooth="yes"/>
      <point x="326" y="110"/>
      <point x="230" y="190"/>
      <point x="225" y="299" type="curve"/>
      <point x="70" y="291" type="line"/>
      <point x="80" y="106"/>
      <point x="244" y="-20"/>
    </contour>
  </outline>
</glyph>
<glyph name="t" format="2">
  <advance width="641"/>
  <unicode hex="0074"/>
  <note>
		t
	</note>
  <outline>
    <contour>
      <point x="450" y="-10" type="qcurve"/>
      <point x="504" y="-10"/>
      <point x="561" y="0" type="qcurve"/>
      <point x="561" y="142" type="line"/>
      <point x="517" y="135"/>
      <point x="481" y="135" type="qcurve"/>
      <point x="419" y="135"/>
      <point x="363" y="188"/>
      <point x="363" y="250" type="qcurve"/>
      <point x="363" y="798" type="line"/>
      <point x="561" y="798" type="line"/>
      <point x="561" y="928" type="line"/>
      <point x="363" y="928" type="line"/>
      <point x="363" y="1198" type="line"/>
      <point x="203" y="1198" type="line"/>
      <point x="203" y="928" type="line"/>
      <point x="35" y="928" type="line"/>
      <point x="35" y="798" type="line"/>
      <point x="203" y="798" type="line"/>
      <point x="203" y="222" type="line" smooth="yes"/>
      <point x="203" y="107"/>
      <point x="331" y="-10"/>
    </contour>
  </outline>
</glyph>
<glyph name="u" format="2">
  <advance width="995"/>
  <unicode hex="0075"/>
  <note>
		u
	</note>
  <outline>
    <contour>
      <point x="421" y="-20" type="curve" smooth="yes"/>
      <point x="566" y="-20"/>
      <point x="674" y="65"/>
      <point x="728" y="184" type="curve"/>
      <point x="720" y="123"/>
      <point x="720" y="62"/>
      <point x="720" y="0" type="curve"/>
      <point x="875" y="0" type="line"/>
      <point x="875" y="928" type="line"/>
      <point x="715" y="928" type="line"/>
      <point x="715" y="407" type="line" smooth="yes"/>
      <point x="715" y="230"/>
      <point x="594" y="115"/>
      <point x="461" y="115" type="curve" smooth="yes"/>
      <point x="340" y="115"/>
      <point x="280" y="190"/>
      <point x="280" y="330" type="curve" smooth="yes"/>
      <point x="280" y="928" type="line"/>
      <point x="120" y="928" type="line"/>
      <point x="120" y="297" type="line" smooth="yes"/>
      <point x="120" y="104"/>
      <point x="232" y="-20"/>
    </contour>
  </outline>
</glyph>
<glyph name="v" format="2">
  <advance width="968"/>
  <unicode hex="0076"/>
  <note>
		v
	</note>
  <outline>
    <contour>
      <point x="50" y="928" type="line"/>
      <point x="414" y="0" type="line"/>
      <point x="552" y="0" type="line"/>
      <point x="918" y="928" type="line"/>
      <point x="744" y="928" type="line"/>
      <point x="520" y="333" type="line" smooth="yes"/>
      <point x="508" y="300"/>
      <point x="495" y="256"/>
      <point x="483" y="203" type="curve"/>
      <point x="471" y="256"/>
      <point x="458" y="300"/>
      <point x="446" y="333" type="curve" smooth="yes"/>
      <point x="224" y="928" type="line"/>
    </contour>
  </outline>
</glyph>
<glyph name="w" format="2">
  <advance width="1403"/>
  <unicode hex="0077"/>
  <note>
		w
	</note>
  <outline>
    <contour>
      <point x="50" y="928" type="line"/>
      <point x="362" y="0" type="line"/>
      <point x="508" y="0" type="line"/>
      <point x="673" y="573" type="line" smooth="yes"/>
      <point x="683" y="606"/>
      <point x="692" y="645"/>
      <point x="702" y="693" type="curve"/>
      <point x="712" y="645"/>
      <point x="722" y="606"/>
      <point x="731" y="573" type="curve" smooth="yes"/>
      <point x="895" y="0" type="line"/>
      <point x="1041" y="0" type="line"/>
      <point x="1353" y="928" type="line"/>
      <point x="1183" y="928" type="line"/>
      <point x="1004" y="335" type="line" smooth="yes"/>
      <point x="994" y="302"/>
      <point x="985" y="267"/>
      <point x="975" y="215" type="curve"/>
      <point x="965" y="267"/>
      <point x="955" y="302"/>
      <point x="945" y="335" type="curve" smooth="yes"/>
      <point x="773" y="928" type="line"/>
      <point x="630" y="928" type="line"/>
      <point x="458" y="335" type="line" smooth="yes"/>
      <point x="448" y="302"/>
      <point x="439" y="267"/>
      <point x="429" y="215" type="curve"/>
      <point x="419" y="267"/>
      <point x="409" y="302"/>
      <point x="399" y="335" type="curve" smooth="yes"/>
      <point x="220" y="928" type="line"/>
    </contour>
  </outline>
</glyph>
<glyph name="x" format="2">
  <advance width="936"/>
  <unicode hex="0078"/>
  <note>
		x
	</note>
  <outline>
    <contour>
      <point x="379" y="470" type="line"/>
      <point x="50" y="0" type="line"/>
      <point x="232" y="0" type="line"/>
      <point x="394" y="237" type="line" smooth="yes"/>
      <point x="421" y="277"/>
      <point x="443" y="310"/>
      <point x="468" y="368" type="curve"/>
      <point x="492" y="310"/>
      <point x="513" y="277"/>
      <point x="541" y="237" type="curve" smooth="yes"/>
      <point x="704" y="0" type="line"/>
      <point x="886" y="0" type="line"/>
      <point x="557" y="470" type="line"/>
      <point x="876" y="928" type="line"/>
      <point x="698" y="928" type="line"/>
      <point x="542" y="700" type="line" smooth="yes"/>
      <point x="514" y="660"/>
      <point x="493" y="627"/>
      <point x="468" y="569" type="curve"/>
      <point x="442" y="627"/>
      <point x="420" y="660"/>
      <point x="393" y="700" type="curve" smooth="yes"/>
      <point x="238" y="928" type="line"/>
      <point x="60" y="928" type="line"/>
    </contour>
  </outline>
</glyph>
<glyph name="y" format="2">
  <advance width="1035"/>
  <unicode hex="0079"/>
  <note>
		y
	</note>
  <outline>
    <contour>
      <point x="301" y="-389" type="qcurve"/>
      <point x="393" y="-389"/>
      <point x="505" y="-343"/>
      <point x="569" y="-254"/>
      <point x="596" y="-178" type="qcurve"/>
      <point x="985" y="928" type="line"/>
      <point x="811" y="928" type="line"/>
      <point x="583" y="249" type="line" smooth="yes"/>
      <point x="565" y="193"/>
      <point x="540" y="99" type="qcurve"/>
      <point x="507" y="203"/>
      <point x="489" y="249" type="qcurve"/>
      <point x="224" y="928" type="line"/>
      <point x="50" y="928" type="line"/>
      <point x="463" y="-95" type="line"/>
      <point x="447" y="-143" type="line" smooth="yes"/>
      <point x="429" y="-195"/>
      <point x="367" y="-244"/>
      <point x="301" y="-244" type="qcurve"/>
      <point x="223" y="-244"/>
      <point x="149" y="-226" type="qcurve"/>
      <point x="149" y="-371" type="line"/>
      <point x="224" y="-389"/>
    </contour>
  </outline>
</glyph>
<glyph name="z" format="2">
  <advance width="910"/>
  <unicode hex="007A"/>
  <note>
		z
	</note>
  <outline>
    <contour>
      <point x="80" y="0" type="line"/>
      <point x="830" y="0" type="line"/>
      <point x="830" y="130" type="line"/>
      <point x="368" y="130" type="line" smooth="yes"/>
      <point x="303" y="130"/>
      <point x="260" y="125" type="qcurve"/>
      <point x="315" y="182"/>
      <point x="337" y="210" type="qcurve"/>
      <point x="805" y="801" type="line"/>
      <point x="805" y="928" type="line"/>
      <point x="120" y="928" type="line"/>
      <point x="120" y="798" type="line"/>
      <point x="517" y="798" type="line" smooth="yes"/>
      <point x="582" y="798"/>
      <point x="625" y="803" type="qcurve"/>
      <point x="570" y="746"/>
      <point x="548" y="718" type="qcurve"/>
      <point x="80" y="127" type="line"/>
    </contour>
  </outline>
</glyph>
<glyph name="braceleft" format="2">
  <advance width="750"/>
  <unicode hex="007B"/>
  <note>
		braceleft
	</note>
  <outline>
    <contour>
      <point x="521" y="-380" type="curve" smooth="yes"/>
      <point x="660" y="-380" type="line"/>
      <point x="660" y="-240" type="line"/>
      <point x="562" y="-240" type="line" smooth="yes"/>
      <point x="451" y="-240"/>
      <point x="404" y="-199"/>
      <point x="404" y="-83" type="curve" smooth="yes"/>
      <point x="404" y="261" type="line" smooth="yes"/>
      <point x="404" y="380"/>
      <point x="355" y="446"/>
      <point x="256" y="477" type="curve"/>
      <point x="355" y="508"/>
      <point x="404" y="574"/>
      <point x="404" y="693" type="curve" smooth="yes"/>
      <point x="404" y="1037" type="line" smooth="yes"/>
      <point x="404" y="1153"/>
      <point x="451" y="1194"/>
      <point x="562" y="1194" type="curve" smooth="yes"/>
      <point x="660" y="1194" type="line"/>
      <point x="660" y="1334" type="line"/>
      <point x="521" y="1334" type="line" smooth="yes"/>
      <point x="326" y="1334"/>
      <point x="237" y="1244"/>
      <point x="237" y="1060" type="curve" smooth="yes"/>
      <point x="237" y="703" type="line" smooth="yes"/>
      <point x="237" y="587"/>
      <point x="183" y="547"/>
      <point x="90" y="547" type="curve"/>
      <point x="90" y="407" type="line"/>
      <point x="183" y="407"/>
      <point x="237" y="367"/>
      <point x="237" y="251" type="curve" smooth="yes"/>
      <point x="237" y="-106" type="line" smooth="yes"/>
      <point x="237" y="-290"/>
      <point x="326" y="-380"/>
    </contour>
  </outline>
</glyph>
<glyph name="bar" format="2">
  <advance width="420"/>
  <unicode hex="007C"/>
  <note>
		bar
	</note>
  <outline>
    <contour>
      <point x="140" y="-380" type="line"/>
      <point x="280" y="-380" type="line"/>
      <point x="280" y="1334" type="line"/>
      <point x="140" y="1334" type="line"/>
    </contour>
  </outline>
</glyph>
<glyph name="braceright" format="2">
  <advance width="743"/>
  <unicode hex="007D"/>
  <note>
		braceright
	</note>
  <outline>
    <contour>
      <point x="187" y="-244" type="curve" smooth="yes"/>
      <point x="90" y="-244" type="line"/>
      <point x="90" y="-382" type="line"/>
      <point x="223" y="-382" type="line" smooth="yes"/>
      <point x="417" y="-382"/>
      <point x="507" y="-292"/>
      <point x="507" y="-108" type="curve" smooth="yes"/>
      <point x="507" y="251" type="line" smooth="yes"/>
      <point x="507" y="367"/>
      <point x="560" y="407"/>
      <point x="653" y="407" type="curve"/>
      <point x="653" y="545" type="line"/>
      <point x="560" y="545"/>
      <point x="507" y="585"/>
      <point x="507" y="701" type="curve" smooth="yes"/>
      <point x="507" y="1060" type="line" smooth="yes"/>
      <point x="507" y="1244"/>
      <point x="417" y="1334"/>
      <point x="223" y="1334" type="curve" smooth="yes"/>
      <point x="90" y="1334" type="line"/>
      <point x="90" y="1196" type="line"/>
      <point x="187" y="1196" type="line" smooth="yes"/>
      <point x="299" y="1196"/>
      <point x="346" y="1155"/>
      <point x="346" y="1039" type="curve" smooth="yes"/>
      <point x="346" y="692" type="line" smooth="yes"/>
      <point x="346" y="573"/>
      <point x="383" y="507"/>
      <point x="484" y="476" type="curve"/>
      <point x="383" y="445"/>
      <point x="346" y="379"/>
      <point x="346" y="260" type="curve" smooth="yes"/>
      <point x="346" y="-87" type="line" smooth="yes"/>
      <point x="346" y="-203"/>
      <point x="299" y="-244"/>
    </contour>
  </outline>
</glyph>
<glyph name="asciitilde" format="2">
  <advance width="1176"/>
  <unicode hex="007E"/>
  <note>
		asciitilde
	</note>
  <outline>
    <contour>
      <point x="793" y="436" type="qcurve"/>
      <point x="872" y="436"/>
      <point x="985" y="515"/>
      <point x="1048" y="648"/>
      <point x="1056" y="728" type="qcurve"/>
      <point x="921" y="728" type="line"/>
      <point x="911" y="658"/>
      <point x="842" y="581"/>
      <point x="785" y="581" type="qcurve"/>
      <point x="742" y="581"/>
      <point x="669" y="615"/>
      <point x="617" y="649" type="qcurve"/>
      <point x="553" y="690"/>
      <point x="458" y="732"/>
      <point x="396" y="732" type="qcurve"/>
      <point x="314" y="732"/>
      <point x="195" y="653"/>
      <point x="129" y="521"/>
      <point x="120" y="440" type="qcurve"/>
      <point x="255" y="440" type="line"/>
      <point x="266" y="509"/>
      <point x="340" y="586"/>
      <point x="399" y="586" type="qcurve"/>
      <point x="437" y="586"/>
      <point x="508" y="554"/>
      <point x="560" y="521" type="qcurve"/>
      <point x="626" y="480"/>
      <point x="728" y="436"/>
    </contour>
  </outline>
</glyph>
<glyph name="exclamdown" format="2">
  <advance width="454"/>
  <unicode hex="00A1"/>
  <note>
		exclamdown
	</note>
  <outline>
    <contour>
      <point x="140" y="-380" type="line"/>
      <point x="313" y="-380" type="line"/>
      <point x="313" y="0" type="line"/>
      <point x="265" y="615" type="line"/>
      <point x="188" y="615" type="line"/>
      <point x="140" y="0" type="line"/>
    </contour>
    <contour>
      <point x="140" y="734" type="line"/>
      <point x="314" y="734" type="line"/>
      <point x="314" y="928" type="line"/>
      <point x="140" y="928" type="line"/>
    </contour>
  </outline>
</glyph>
<glyph name="cent" format="2">
  <advance width="1042"/>
  <unicode hex="00A2"/>
  <note>
		cent
	</note>
  <outline>
    <contour>
      <point x="479" y="0" type="line"/>
      <point x="589" y="0" type="line"/>
      <point x="589" y="185" type="line"/>
      <point x="729" y="198"/>
      <point x="918" y="366"/>
      <point x="957" y="506" type="qcurve"/>
      <point x="797" y="544" type="line"/>
      <point x="774" y="446"/>
      <point x="669" y="330"/>
      <point x="589" y="317" type="qcurve"/>
      <point x="589" y="1017" type="line"/>
      <point x="667" y="1004"/>
      <point x="770" y="896"/>
      <point x="793" y="805" type="qcurve"/>
      <point x="950" y="851" type="line"/>
      <point x="910" y="981"/>
      <point x="724" y="1136"/>
      <point x="589" y="1149" type="qcurve"/>
      <point x="589" y="1334" type="line"/>
      <point x="479" y="1334" type="line"/>
      <point x="479" y="1148" type="line"/>
      <point x="365" y="1135"/>
      <point x="194" y="1009"/>
      <point x="100" y="801"/>
      <point x="100" y="667" type="qcurve"/>
      <point x="100" y="534"/>
      <point x="193" y="326"/>
      <point x="365" y="199"/>
      <point x="479" y="186" type="qcurve"/>
    </contour>
    <contour>
      <point x="265" y="667" type="qcurve"/>
      <point x="265" y="810"/>
      <point x="380" y="993"/>
      <point x="479" y="1015" type="qcurve"/>
      <point x="479" y="319" type="line"/>
      <point x="380" y="341"/>
      <point x="265" y="523"/>
    </contour>
  </outline>
</glyph>
<glyph name="sterling" format="2">
  <advance width="1217"/>
  <unicode hex="00A3"/>
  <note>
		sterling
	</note>
  <outline>
    <contour>
      <point x="107" y="0" type="line"/>
      <point x="1127" y="0" type="line"/>
      <point x="1127" y="150" type="line"/>
      <point x="288" y="150" type="line"/>
      <point x="453" y="255"/>
      <point x="453" y="451" type="qcurve"/>
      <point x="453" y="484"/>
      <point x="446" y="540" type="qcurve"/>
      <point x="845" y="540" type="line"/>
      <point x="845" y="680" type="line"/>
      <point x="423" y="680" type="line"/>
      <point x="410" y="761"/>
      <point x="395" y="880"/>
      <point x="395" y="936" type="qcurve"/>
      <point x="395" y="1064"/>
      <point x="538" y="1209"/>
      <point x="662" y="1209" type="qcurve"/>
      <point x="781" y="1209"/>
      <point x="925" y="1079"/>
      <point x="938" y="959" type="qcurve"/>
      <point x="1114" y="959" type="line"/>
      <point x="1105" y="1074"/>
      <point x="994" y="1253"/>
      <point x="797" y="1354"/>
      <point x="662" y="1354" type="qcurve"/>
      <point x="522" y="1354"/>
      <point x="323" y="1245"/>
      <point x="222" y="1055"/>
      <point x="222" y="936" type="qcurve"/>
      <point x="222" y="880"/>
      <point x="236" y="761"/>
      <point x="250" y="680" type="qcurve"/>
      <point x="81" y="680" type="line"/>
      <point x="81" y="540" type="line"/>
      <point x="272" y="540" type="line"/>
      <point x="279" y="482"/>
      <point x="279" y="447" type="qcurve"/>
      <point x="279" y="354"/>
      <point x="199" y="209"/>
      <point x="107" y="150" type="qcurve"/>
    </contour>
  </outline>
</glyph>
<glyph name="currency" format="2">
  <advance width="1199"/>
  <unicode hex="00A4"/>
  <note>
		currency
	</note>
  <outline>
    <contour>
      <point x="183" y="166" type="line"/>
      <point x="337" y="321" type="line"/>
      <point x="393" y="278"/>
      <point x="527" y="232"/>
      <point x="600" y="232" type="qcurve"/>
      <point x="672" y="232"/>
      <point x="806" y="278"/>
      <point x="862" y="320" type="qcurve"/>
      <point x="1016" y="166" type="line"/>
      <point x="1099" y="249" type="line"/>
      <point x="945" y="403" type="line"/>
      <point x="988" y="458"/>
      <point x="1035" y="594"/>
      <point x="1035" y="667" type="qcurve"/>
      <point x="1035" y="740"/>
      <point x="988" y="876"/>
      <point x="945" y="931" type="qcurve"/>
      <point x="1099" y="1085" type="line"/>
      <point x="1016" y="1168" type="line"/>
      <point x="862" y="1014" type="line"/>
      <point x="806" y="1056"/>
      <point x="672" y="1102"/>
      <point x="600" y="1102" type="qcurve"/>
      <point x="527" y="1102"/>
      <point x="393" y="1056"/>
      <point x="337" y="1013" type="qcurve"/>
      <point x="183" y="1168" type="line"/>
      <point x="100" y="1085" type="line"/>
      <point x="254" y="931" type="line"/>
      <point x="211" y="876"/>
      <point x="164" y="740"/>
      <point x="164" y="667" type="qcurve"/>
      <point x="164" y="594"/>
      <point x="211" y="458"/>
      <point x="254" y="403" type="qcurve"/>
      <point x="100" y="249" type="line"/>
    </contour>
    <contour>
      <point x="319" y="667" type="qcurve"/>
      <point x="319" y="743"/>
      <point x="395" y="871"/>
      <point x="523" y="947"/>
      <point x="599" y="947" type="qcurve"/>
      <point x="675" y="947"/>
      <point x="803" y="871"/>
      <point x="879" y="743"/>
      <point x="879" y="667" type="qcurve"/>
      <point x="879" y="591"/>
      <point x="803" y="463"/>
      <point x="675" y="387"/>
      <point x="599" y="387" type="qcurve"/>
      <point x="523" y="387"/>
      <point x="395" y="463"/>
      <point x="319" y="591"/>
    </contour>
  </outline>
</glyph>
<glyph name="brokenbar" format="2">
  <advance width="420"/>
  <unicode hex="00A6"/>
  <note>
		brokenbar
	</note>
  <outline>
    <contour>
      <point x="140" y="1334" type="line"/>
      <point x="140" y="629" type="line"/>
      <point x="280" y="629" type="line"/>
      <point x="280" y="1334" type="line"/>
    </contour>
    <contour>
      <point x="140" y="325" type="line"/>
      <point x="140" y="-380" type="line"/>
      <point x="280" y="-380" type="line"/>
      <point x="280" y="325" type="line"/>
    </contour>
  </outline>
</glyph>
<glyph name="section" format="2">
  <advance width="1016"/>
  <unicode hex="00A7"/>
  <note>
		section
	</note>
  <outline>
    <contour>
      <point x="508" y="-20" type="qcurve"/>
      <point x="620" y="-20"/>
      <point x="793" y="51"/>
      <point x="889" y="183"/>
      <point x="889" y="270" type="qcurve"/>
      <point x="889" y="405"/>
      <point x="778" y="475" type="qcurve"/>
      <point x="843" y="509"/>
      <point x="921" y="611"/>
      <point x="921" y="680" type="qcurve"/>
      <point x="921" y="772"/>
      <point x="801" y="887"/>
      <point x="688" y="910" type="qcurve"/>
      <point x="443" y="960" type="line" smooth="yes"/>
      <point x="374" y="974"/>
      <point x="306" y="1030"/>
      <point x="306" y="1080" type="qcurve"/>
      <point x="306" y="1121"/>
      <point x="354" y="1186"/>
      <point x="446" y="1224"/>
      <point x="509" y="1224" type="qcurve"/>
      <point x="598" y="1224"/>
      <point x="705" y="1146"/>
      <point x="712" y="1070" type="qcurve"/>
      <point x="867" y="1081" type="line"/>
      <point x="859" y="1165"/>
      <point x="763" y="1288"/>
      <point x="606" y="1354"/>
      <point x="509" y="1354" type="qcurve"/>
      <point x="408" y="1354"/>
      <point x="245" y="1283"/>
      <point x="151" y="1152"/>
      <point x="151" y="1067" type="qcurve"/>
      <point x="151" y="936"/>
      <point x="264" y="869" type="qcurve"/>
      <point x="197" y="834"/>
      <point x="119" y="729"/>
      <point x="119" y="658" type="qcurve"/>
      <point x="119" y="571"/>
      <point x="240" y="461"/>
      <point x="345" y="439" type="qcurve"/>
      <point x="588" y="388" type="line" smooth="yes"/>
      <point x="655" y="374"/>
      <point x="729" y="315"/>
      <point x="729" y="262" type="qcurve"/>
      <point x="729" y="193"/>
      <point x="615" y="112"/>
      <point x="508" y="112" type="qcurve"/>
      <point x="431" y="112"/>
      <point x="316" y="161"/>
      <point x="253" y="246"/>
      <point x="250" y="299" type="qcurve"/>
      <point x="95" y="291" type="line"/>
      <point x="99" y="199"/>
      <point x="205" y="58"/>
      <point x="389" y="-20"/>
    </contour>
    <contour>
      <point x="274" y="694" type="qcurve"/>
      <point x="274" y="736"/>
      <point x="328" y="807"/>
      <point x="375" y="826" type="qcurve"/>
      <point x="626" y="774" type="line" smooth="yes"/>
      <point x="693" y="760"/>
      <point x="766" y="701"/>
      <point x="766" y="647" type="qcurve"/>
      <point x="766" y="564"/>
      <point x="673" y="521" type="qcurve"/>
      <point x="406" y="574" type="line" smooth="yes"/>
      <point x="341" y="587"/>
      <point x="274" y="644"/>
    </contour>
  </outline>
</glyph>
<glyph name="copyright" format="2">
  <advance width="1598"/>
  <unicode hex="00A9"/>
  <note>
		copyright
	</note>
  <outline>
    <contour>
      <point x="802" y="-20" type="qcurve"/>
      <point x="987" y="-20"/>
      <point x="1301" y="166"/>
      <point x="1486" y="483"/>
      <point x="1486" y="670" type="qcurve"/>
      <point x="1486" y="854"/>
      <point x="1301" y="1168"/>
      <point x="986" y="1354"/>
      <point x="802" y="1354" type="qcurve"/>
      <point x="615" y="1354"/>
      <point x="298" y="1169"/>
      <point x="112" y="854"/>
      <point x="112" y="670" type="qcurve"/>
      <point x="112" y="483"/>
      <point x="298" y="166"/>
      <point x="615" y="-20"/>
    </contour>
    <contour>
      <point x="236" y="669" type="qcurve"/>
      <point x="236" y="820"/>
      <point x="389" y="1078"/>
      <point x="648" y="1230"/>
      <point x="801" y="1230" type="qcurve"/>
      <point x="952" y="1230"/>
      <point x="1210" y="1078"/>
      <point x="1362" y="820"/>
      <point x="1362" y="669" type="qcurve"/>
      <point x="1362" y="516"/>
      <point x="1210" y="256"/>
      <point x="953" y="104"/>
      <point x="801" y="104" type="qcurve"/>
      <point x="648" y="104"/>
      <point x="388" y="256"/>
      <point x="236" y="516"/>
    </contour>
    <contour>
      <point x="438" y="667" type="qcurve"/>
      <point x="438" y="547"/>
      <point x="528" y="367"/>
      <point x="692" y="270"/>
      <point x="802" y="270" type="qcurve"/>
      <point x="936" y="270"/>
      <point x="1119" y="413"/>
      <point x="1151" y="540" type="qcurve"/>
      <point x="1013" y="572" type="line"/>
      <point x="993" y="482"/>
      <point x="882" y="385"/>
      <point x="802" y="385" type="qcurve"/>
      <point x="735" y="385"/>
      <point x="636" y="452"/>
      <point x="582" y="579"/>
      <point x="582" y="667" type="qcurve"/>
      <point x="582" y="800"/>
      <point x="700" y="950"/>
      <point x="802" y="950" type="qcurve"/>
      <point x="882" y="950"/>
      <point x="992" y="854"/>
      <point x="1012" y="766" type="qcurve"/>
      <point x="1147" y="809" type="line"/>
      <point x="1113" y="930"/>
      <point x="932" y="1065"/>
      <point x="802" y="1065" type="qcurve"/>
      <point x="693" y="1065"/>
      <point x="528" y="968"/>
      <point x="438" y="788"/>
    </contour>
  </outline>
</glyph>
<glyph name="ordfeminine" format="2">
  <advance width="898"/>
  <unicode hex="00AA"/>
  <note>
		ordfeminine
	</note>
  <outline>
    <contour>
      <point x="387" y="501" type="qcurve"/>
      <point x="466" y="501"/>
      <point x="601" y="572"/>
      <point x="643" y="641" type="qcurve"/>
      <point x="641" y="624"/>
      <point x="641" y="590" type="qcurve"/>
      <point x="641" y="551"/>
      <point x="645" y="519" type="qcurve"/>
      <point x="788" y="519" type="line"/>
      <point x="784" y="571"/>
      <point x="784" y="664" type="qcurve"/>
      <point x="784" y="1079" type="line" smooth="yes"/>
      <point x="784" y="1215"/>
      <point x="629" y="1354"/>
      <point x="461" y="1354" type="qcurve"/>
      <point x="151" y="1354"/>
      <point x="137" y="1084" type="qcurve"/>
      <point x="282" y="1084" type="line"/>
      <point x="286" y="1163"/>
      <point x="372" y="1231"/>
      <point x="461" y="1231" type="qcurve"/>
      <point x="550" y="1231"/>
      <point x="639" y="1162"/>
      <point x="639" y="1083" type="qcurve"/>
      <point x="639" y="1016" type="line"/>
      <point x="380" y="978" type="line" smooth="yes"/>
      <point x="250" y="959"/>
      <point x="110" y="848"/>
      <point x="110" y="742" type="qcurve"/>
      <point x="110" y="670"/>
      <point x="177" y="561"/>
      <point x="303" y="501"/>
    </contour>
    <contour>
      <point x="259" y="747" type="qcurve"/>
      <point x="259" y="801"/>
      <point x="325" y="857"/>
      <point x="395" y="868" type="qcurve"/>
      <point x="639" y="906" type="line"/>
      <point x="639" y="842" type="line" smooth="yes"/>
      <point x="639" y="780"/>
      <point x="583" y="681"/>
      <point x="478" y="625"/>
      <point x="407" y="625" type="qcurve"/>
      <point x="338" y="625"/>
      <point x="259" y="690"/>
    </contour>
  </outline>
</glyph>
<glyph name="guillemotleft" format="2">
  <advance width="942"/>
  <unicode hex="00AB"/>
  <note>
		guillemotleft
	</note>
  <outline>
    <contour>
      <point x="96" y="516" type="line"/>
      <point x="459" y="240" type="line"/>
      <point x="459" y="407" type="line"/>
      <point x="221" y="584" type="line"/>
      <point x="459" y="761" type="line"/>
      <point x="459" y="928" type="line"/>
      <point x="96" y="652" type="line"/>
    </contour>
    <contour>
      <point x="459" y="652" type="line"/>
      <point x="459" y="516" type="line"/>
      <point x="822" y="240" type="line"/>
      <point x="822" y="407" type="line"/>
      <point x="584" y="584" type="line"/>
      <point x="822" y="761" type="line"/>
      <point x="822" y="928" type="line"/>
    </contour>
  </outline>
</glyph>
<glyph name="logicalnot" format="2">
  <advance width="1176"/>
  <unicode hex="00AC"/>
  <note>
		logicalnot
	</note>
  <outline>
    <contour>
      <point x="910" y="110" type="line"/>
      <point x="1056" y="110" type="line"/>
      <point x="1056" y="654" type="line"/>
      <point x="120" y="654" type="line"/>
      <point x="120" y="514" type="line"/>
      <point x="910" y="514" type="line"/>
    </contour>
  </outline>
</glyph>
<glyph name="uni00AD" format="2">
  <advance width="695"/>
  <unicode hex="00AD"/>
  <note>
		uni00AD
	</note>
  <outline>
    <contour>
      <point x="120" y="654" type="line"/>
      <point x="120" y="514" type="line"/>
      <point x="575" y="514" type="line"/>
      <point x="575" y="654" type="line"/>
    </contour>
  </outline>
</glyph>
<glyph name="registered" format="2">
  <advance width="1124"/>
  <unicode hex="00AE"/>
  <note>
		registered
	</note>
  <outline>
    <contour>
      <point x="565" y="469" type="curve" smooth="yes"/>
      <point x="804" y="469"/>
      <point x="1004" y="668"/>
      <point x="1004" y="914" type="curve" smooth="yes"/>
      <point x="1004" y="1154"/>
      <point x="804" y="1354"/>
      <point x="565" y="1354" type="curve" smooth="yes"/>
      <point x="320" y="1354"/>
      <point x="120" y="1154"/>
      <point x="120" y="914" type="curve" smooth="yes"/>
      <point x="120" y="668"/>
      <point x="320" y="469"/>
    </contour>
    <contour>
      <point x="204" y="914" type="curve" smooth="yes"/>
      <point x="204" y="1109"/>
      <point x="365" y="1270"/>
      <point x="564" y="1270" type="curve" smooth="yes"/>
      <point x="761" y="1270"/>
      <point x="921" y="1109"/>
      <point x="921" y="914" type="curve" smooth="yes"/>
      <point x="921" y="714"/>
      <point x="761" y="553"/>
      <point x="564" y="553" type="curve" smooth="yes"/>
      <point x="365" y="553"/>
      <point x="204" y="714"/>
    </contour>
    <contour>
      <point x="580" y="1157" type="curve" smooth="yes"/>
      <point x="391" y="1157" type="line"/>
      <point x="391" y="670" type="line"/>
      <point x="479" y="670" type="line"/>
      <point x="479" y="859" type="line"/>
      <point x="572" y="859" type="line"/>
      <point x="668" y="670" type="line"/>
      <point x="766" y="670" type="line"/>
      <point x="659" y="871" type="line"/>
      <point x="717" y="892"/>
      <point x="749" y="938"/>
      <point x="749" y="1007" type="curve" smooth="yes"/>
      <point x="749" y="1102"/>
      <point x="688" y="1157"/>
    </contour>
    <contour>
      <point x="579" y="935" type="curve" smooth="yes"/>
      <point x="479" y="935" type="line"/>
      <point x="479" y="1075" type="line"/>
      <point x="579" y="1075" type="line" smooth="yes"/>
      <point x="632" y="1075"/>
      <point x="657" y="1056"/>
      <point x="657" y="1005" type="curve" smooth="yes"/>
      <point x="657" y="955"/>
      <point x="632" y="935"/>
    </contour>
  </outline>
</glyph>
<glyph name="macron" format="2">
  <advance width="680"/>
  <unicode hex="00AF"/>
  <note>
		macron
	</note>
  <outline>
    <contour>
      <point x="50" y="1224" type="line"/>
      <point x="50" y="1094" type="line"/>
      <point x="630" y="1094" type="line"/>
      <point x="630" y="1224" type="line"/>
    </contour>
  </outline>
</glyph>
<glyph name="degree" format="2">
  <advance width="826"/>
  <unicode hex="00B0"/>
  <note>
		degree
	</note>
  <outline>
    <contour>
      <point x="413" y="780" type="curve" smooth="yes"/>
      <point x="574" y="780"/>
      <point x="706" y="906"/>
      <point x="706" y="1067" type="curve" smooth="yes"/>
      <point x="706" y="1228"/>
      <point x="574" y="1354"/>
      <point x="413" y="1354" type="curve" smooth="yes"/>
      <point x="252" y="1354"/>
      <point x="120" y="1228"/>
      <point x="120" y="1067" type="curve" smooth="yes"/>
      <point x="120" y="906"/>
      <point x="252" y="780"/>
    </contour>
    <contour>
      <point x="257" y="1067" type="curve" smooth="yes"/>
      <point x="257" y="1154"/>
      <point x="328" y="1221"/>
      <point x="413" y="1221" type="curve" smooth="yes"/>
      <point x="498" y="1221"/>
      <point x="569" y="1154"/>
      <point x="569" y="1067" type="curve" smooth="yes"/>
      <point x="569" y="980"/>
      <point x="498" y="913"/>
      <point x="413" y="913" type="curve" smooth="yes"/>
      <point x="328" y="913"/>
      <point x="257" y="980"/>
    </contour>
  </outline>
</glyph>
<glyph name="plusminus" format="2">
  <advance width="1176"/>
  <unicode hex="00B1"/>
  <note>
		plusminus
	</note>
  <outline>
    <contour>
      <point x="120" y="610" type="line"/>
      <point x="515" y="610" type="line"/>
      <point x="515" y="280" type="line"/>
      <point x="661" y="280" type="line"/>
      <point x="661" y="610" type="line"/>
      <point x="1056" y="610" type="line"/>
      <point x="1056" y="750" type="line"/>
      <point x="661" y="750" type="line"/>
      <point x="661" y="1080" type="line"/>
      <point x="515" y="1080" type="line"/>
      <point x="515" y="750" type="line"/>
      <point x="120" y="750" type="line"/>
    </contour>
    <contour>
      <point x="120" y="0" type="line"/>
      <point x="1056" y="0" type="line"/>
      <point x="1056" y="140" type="line"/>
      <point x="120" y="140" type="line"/>
    </contour>
  </outline>
</glyph>
<glyph name="acute" format="2">
  <advance width="400"/>
  <unicode hex="00B4"/>
  <note>
		acute
	</note>
  <outline>
    <contour>
      <point x="137" y="1334" type="line"/>
      <point x="50" y="1069" type="line"/>
      <point x="160" y="1069" type="line"/>
      <point x="350" y="1334" type="line"/>
    </contour>
  </outline>
</glyph>
<glyph name="paragraph" format="2">
  <advance width="1111"/>
  <unicode hex="00B6"/>
  <note>
		paragraph
	</note>
  <outline>
    <contour>
      <point x="545" y="526" type="curve" smooth="yes"/>
      <point x="581" y="526" type="line"/>
      <point x="581" y="-380" type="line"/>
      <point x="711" y="-380" type="line"/>
      <point x="711" y="1334" type="line"/>
      <point x="545" y="1334" type="line" smooth="yes"/>
      <point x="226" y="1334"/>
      <point x="95" y="1120"/>
      <point x="95" y="930" type="curve" smooth="yes"/>
      <point x="95" y="740"/>
      <point x="226" y="526"/>
    </contour>
    <contour>
      <point x="841" y="1334" type="line"/>
      <point x="841" y="-380" type="line"/>
      <point x="971" y="-380" type="line"/>
      <point x="971" y="1334" type="line"/>
    </contour>
  </outline>
</glyph>
<glyph name="periodcentered" format="2">
  <advance width="414"/>
  <unicode hex="00B7"/>
  <note>
		periodcentered
	</note>
  <outline>
    <contour>
      <point x="120" y="764" type="line"/>
      <point x="120" y="570" type="line"/>
      <point x="294" y="570" type="line"/>
      <point x="294" y="764" type="line"/>
    </contour>
  </outline>
</glyph>
<glyph name="cedilla" format="2">
  <advance width="456"/>
  <unicode hex="00B8"/>
  <note>
		cedilla
	</note>
  <outline>
    <contour>
      <point x="174" y="-400" type="curve" smooth="yes"/>
      <point x="306" y="-400"/>
      <point x="406" y="-340"/>
      <point x="406" y="-222" type="curve" smooth="yes"/>
      <point x="406" y="-159"/>
      <point x="368" y="-71"/>
      <point x="219" y="-62" type="curve"/>
      <point x="252" y="26" type="line"/>
      <point x="161" y="26" type="line"/>
      <point x="94" y="-148" type="line"/>
      <point x="113" y="-146"/>
      <point x="129" y="-145"/>
      <point x="148" y="-145" type="curve" smooth="yes"/>
      <point x="229" y="-145"/>
      <point x="278" y="-173"/>
      <point x="278" y="-231" type="curve" smooth="yes"/>
      <point x="278" y="-294"/>
      <point x="228" y="-327"/>
      <point x="142" y="-327" type="curve" smooth="yes"/>
      <point x="113" y="-327"/>
      <point x="86" y="-324"/>
      <point x="50" y="-314" type="curve"/>
      <point x="50" y="-381" type="line"/>
      <point x="96" y="-395"/>
      <point x="142" y="-400"/>
    </contour>
  </outline>
</glyph>
<glyph name="ordmasculine" format="2">
  <advance width="976"/>
  <unicode hex="00BA"/>
  <note>
		ordmasculine
	</note>
  <outline>
    <contour>
      <point x="488" y="507" type="qcurve"/>
      <point x="606" y="507"/>
      <point x="782" y="614"/>
      <point x="876" y="806"/>
      <point x="876" y="933" type="qcurve"/>
      <point x="876" y="1061"/>
      <point x="782" y="1254"/>
      <point x="607" y="1359"/>
      <point x="488" y="1359" type="qcurve"/>
      <point x="369" y="1359"/>
      <point x="194" y="1254"/>
      <point x="100" y="1061"/>
      <point x="100" y="933" type="qcurve"/>
      <point x="100" y="806"/>
      <point x="194" y="614"/>
      <point x="370" y="507"/>
    </contour>
    <contour>
      <point x="254" y="933" type="qcurve"/>
      <point x="254" y="1075"/>
      <point x="377" y="1236"/>
      <point x="488" y="1236" type="qcurve"/>
      <point x="599" y="1236"/>
      <point x="722" y="1075"/>
      <point x="722" y="933" type="qcurve"/>
      <point x="722" y="788"/>
      <point x="599" y="630"/>
      <point x="488" y="630" type="qcurve"/>
      <point x="377" y="630"/>
      <point x="254" y="788"/>
    </contour>
  </outline>
</glyph>
<glyph name="guillemotright" format="2">
  <advance width="942"/>
  <unicode hex="00BB"/>
  <note>
		guillemotright
	</note>
  <outline>
    <contour>
      <point x="483" y="240" type="line"/>
      <point x="846" y="516" type="line"/>
      <point x="846" y="652" type="line"/>
      <point x="483" y="928" type="line"/>
      <point x="483" y="761" type="line"/>
      <point x="721" y="584" type="line"/>
      <point x="483" y="407" type="line"/>
    </contour>
    <contour>
      <point x="120" y="240" type="line"/>
      <point x="483" y="516" type="line"/>
      <point x="483" y="652" type="line"/>
      <point x="120" y="928" type="line"/>
      <point x="120" y="761" type="line"/>
      <point x="358" y="584" type="line"/>
      <point x="120" y="407" type="line"/>
    </contour>
  </outline>
</glyph>
<glyph name="questiondown" format="2">
  <advance width="927"/>
  <unicode hex="00BF"/>
  <note>
		questiondown
	</note>
  <outline>
    <contour>
      <point x="457" y="-400" type="curve" smooth="yes"/>
      <point x="701" y="-400"/>
      <point x="830" y="-252"/>
      <point x="832" y="-27" type="curve"/>
      <point x="675" y="0" type="line"/>
      <point x="680" y="-172"/>
      <point x="606" y="-255"/>
      <point x="458" y="-255" type="curve" smooth="yes"/>
      <point x="325" y="-255"/>
      <point x="264" y="-177"/>
      <point x="264" y="-52" type="curve" smooth="yes"/>
      <point x="264" y="32"/>
      <point x="284" y="87"/>
      <point x="379" y="163" type="curve" smooth="yes"/>
      <point x="545" y="296" type="line" smooth="yes"/>
      <point x="591" y="333"/>
      <point x="617" y="377"/>
      <point x="617" y="447" type="curve" smooth="yes"/>
      <point x="617" y="615" type="line"/>
      <point x="509" y="615" type="line"/>
      <point x="509" y="537" type="line" smooth="yes"/>
      <point x="509" y="466"/>
      <point x="485" y="433"/>
      <point x="441" y="398" type="curve" smooth="yes"/>
      <point x="257" y="252" type="line" smooth="yes"/>
      <point x="149" y="167"/>
      <point x="95" y="95"/>
      <point x="95" y="-52" type="curve" smooth="yes"/>
      <point x="95" y="-251"/>
      <point x="228" y="-400"/>
    </contour>
    <contour>
      <point x="476" y="928" type="line"/>
      <point x="476" y="734" type="line"/>
      <point x="650" y="734" type="line"/>
      <point x="650" y="928" type="line"/>
    </contour>
  </outline>
</glyph>
<glyph name="AE" format="2">
  <advance width="1763"/>
  <unicode hex="00C6"/>
  <note>
		AE
	</note>
  <outline>
    <contour>
      <point x="50" y="0" type="line"/>
      <point x="226" y="0" type="line"/>
      <point x="365" y="351" type="line"/>
      <point x="874" y="351" type="line"/>
      <point x="874" y="0" type="line"/>
      <point x="1663" y="0" type="line"/>
      <point x="1663" y="150" type="line"/>
      <point x="1040" y="150" type="line"/>
      <point x="1040" y="601" type="line"/>
      <point x="1531" y="601" type="line"/>
      <point x="1531" y="751" type="line"/>
      <point x="1040" y="751" type="line"/>
      <point x="1040" y="1184" type="line"/>
      <point x="1623" y="1184" type="line"/>
      <point x="1623" y="1334" type="line"/>
      <point x="589" y="1334" type="line"/>
    </contour>
    <contour>
      <point x="420" y="491" type="line"/>
      <point x="694" y="1184" type="line"/>
      <point x="874" y="1184" type="line"/>
      <point x="874" y="491" type="line"/>
    </contour>
  </outline>
</glyph>
<glyph name="Ccedilla" format="2">
  <advance width="1439"/>
  <unicode hex="00C7"/>
  <note>
		Ccedilla
	</note>
  <outline>
    <contour>
      <point x="723" y="-400" type="qcurve"/>
      <point x="826" y="-400"/>
      <point x="955" y="-308"/>
      <point x="955" y="-222" type="qcurve"/>
      <point x="955" y="-163"/>
      <point x="869" y="-68"/>
      <point x="768" y="-62" type="qcurve"/>
      <point x="784" y="-19" type="line"/>
      <point x="925" y="-12"/>
      <point x="1151" y="102"/>
      <point x="1306" y="297"/>
      <point x="1344" y="428" type="qcurve"/>
      <point x="1170" y="449" type="line"/>
      <point x="1124" y="299"/>
      <point x="903" y="125"/>
      <point x="744" y="125" type="qcurve"/>
      <point x="605" y="125"/>
      <point x="398" y="264"/>
      <point x="286" y="510"/>
      <point x="286" y="667" type="qcurve"/>
      <point x="286" y="824"/>
      <point x="398" y="1070"/>
      <point x="605" y="1209"/>
      <point x="744" y="1209" type="qcurve"/>
      <point x="907" y="1209"/>
      <point x="1130" y="1028"/>
      <point x="1174" y="872" type="qcurve"/>
      <point x="1340" y="920" type="line"/>
      <point x="1299" y="1053"/>
      <point x="1133" y="1248"/>
      <point x="893" y="1354"/>
      <point x="744" y="1354" type="qcurve"/>
      <point x="555" y="1354"/>
      <point x="268" y="1180"/>
      <point x="112" y="868"/>
      <point x="112" y="667" type="qcurve"/>
      <point x="112" y="476"/>
      <point x="254" y="173"/>
      <point x="517" y="-6"/>
      <point x="693" y="-18" type="qcurve"/>
      <point x="643" y="-148" type="line"/>
      <point x="672" y="-145"/>
      <point x="697" y="-145" type="qcurve"/>
      <point x="759" y="-145"/>
      <point x="827" y="-188"/>
      <point x="827" y="-231" type="qcurve"/>
      <point x="827" y="-278"/>
      <point x="756" y="-327"/>
      <point x="691" y="-327" type="qcurve"/>
      <point x="646" y="-327"/>
      <point x="599" y="-314" type="qcurve"/>
      <point x="599" y="-381" type="line"/>
      <point x="661" y="-400"/>
    </contour>
  </outline>
</glyph>
<glyph name="Idieresis" format="2">
  <advance width="446"/>
  <unicode hex="00CF"/>
  <note>
		Idieresis
	</note>
  <outline>
    <contour>
      <point x="297" y="1405" type="line"/>
      <point x="457" y="1405" type="line"/>
      <point x="457" y="1585" type="line"/>
      <point x="297" y="1585" type="line"/>
    </contour>
    <contour>
      <point x="-9" y="1405" type="line"/>
      <point x="151" y="1405" type="line"/>
      <point x="151" y="1585" type="line"/>
      <point x="-9" y="1585" type="line"/>
    </contour>
    <contour>
      <point x="140" y="0" type="line"/>
      <point x="306" y="0" type="line"/>
      <point x="306" y="1334" type="line"/>
      <point x="140" y="1334" type="line"/>
    </contour>
  </outline>
</glyph>
<glyph name="Eth" format="2">
  <advance width="1366"/>
  <unicode hex="00D0"/>
  <note>
		Eth
	</note>
  <outline>
    <contour>
      <point x="35" y="602" type="line"/>
      <point x="166" y="602" type="line"/>
      <point x="166" y="0" type="line"/>
      <point x="703" y="0" type="line" smooth="yes"/>
      <point x="879" y="0"/>
      <point x="1127" y="168"/>
      <point x="1254" y="469"/>
      <point x="1254" y="666" type="qcurve"/>
      <point x="1254" y="864"/>
      <point x="1127" y="1166"/>
      <point x="879" y="1334"/>
      <point x="703" y="1334" type="qcurve"/>
      <point x="166" y="1334" type="line"/>
      <point x="166" y="732" type="line"/>
      <point x="35" y="732" type="line"/>
    </contour>
    <contour>
      <point x="332" y="150" type="line"/>
      <point x="332" y="602" type="line"/>
      <point x="697" y="602" type="line"/>
      <point x="697" y="732" type="line"/>
      <point x="332" y="732" type="line"/>
      <point x="332" y="1184" type="line"/>
      <point x="703" y="1184" type="line" smooth="yes"/>
      <point x="828" y="1184"/>
      <point x="997" y="1054"/>
      <point x="1079" y="822"/>
      <point x="1079" y="666" type="qcurve"/>
      <point x="1079" y="511"/>
      <point x="997" y="279"/>
      <point x="828" y="150"/>
      <point x="703" y="150" type="qcurve"/>
    </contour>
  </outline>
</glyph>
<glyph name="multiply" format="2">
  <advance width="1176"/>
  <unicode hex="00D7"/>
  <note>
		multiply
	</note>
  <outline>
    <contour>
      <point x="262" y="158" type="line"/>
      <point x="588" y="485" type="line"/>
      <point x="914" y="158" type="line"/>
      <point x="1013" y="257" type="line"/>
      <point x="687" y="584" type="line"/>
      <point x="1013" y="910" type="line"/>
      <point x="914" y="1009" type="line"/>
      <point x="588" y="683" type="line"/>
      <point x="262" y="1009" type="line"/>
      <point x="163" y="910" type="line"/>
      <point x="489" y="584" type="line"/>
      <point x="163" y="257" type="line"/>
    </contour>
  </outline>
</glyph>
<glyph name="Oslash" format="2">
  <advance width="1500"/>
  <unicode hex="00D8"/>
  <note>
		Oslash
	</note>
  <outline>
    <contour>
      <point x="268" y="191" type="curve"/>
      <point x="112" y="5" type="line"/>
      <point x="212" y="-80" type="line"/>
      <point x="363" y="101" type="line"/>
      <point x="466" y="24"/>
      <point x="597" y="-20"/>
      <point x="750" y="-20" type="curve" smooth="yes"/>
      <point x="1142" y="-20"/>
      <point x="1388" y="264"/>
      <point x="1388" y="667" type="curve" smooth="yes"/>
      <point x="1388" y="859"/>
      <point x="1333" y="1023"/>
      <point x="1233" y="1143" type="curve"/>
      <point x="1388" y="1329" type="line"/>
      <point x="1289" y="1414" type="line"/>
      <point x="1138" y="1233" type="line"/>
      <point x="1035" y="1310"/>
      <point x="904" y="1354"/>
      <point x="750" y="1354" type="curve" smooth="yes"/>
      <point x="359" y="1354"/>
      <point x="112" y="1071"/>
      <point x="112" y="667" type="curve" smooth="yes"/>
      <point x="112" y="476"/>
      <point x="168" y="311"/>
    </contour>
    <contour>
      <point x="287" y="667" type="curve" smooth="yes"/>
      <point x="287" y="983"/>
      <point x="461" y="1209"/>
      <point x="750" y="1209" type="curve" smooth="yes"/>
      <point x="865" y="1209"/>
      <point x="961" y="1173"/>
      <point x="1036" y="1111" type="curve"/>
      <point x="377" y="323" type="line"/>
      <point x="319" y="414"/>
      <point x="287" y="533"/>
    </contour>
    <contour>
      <point x="465" y="223" type="curve"/>
      <point x="1123" y="1011" type="line"/>
      <point x="1181" y="920"/>
      <point x="1213" y="802"/>
      <point x="1213" y="667" type="curve" smooth="yes"/>
      <point x="1213" y="352"/>
      <point x="1039" y="125"/>
      <point x="750" y="125" type="curve" smooth="yes"/>
      <point x="636" y="125"/>
      <point x="539" y="160"/>
    </contour>
  </outline>
</glyph>
<glyph name="Thorn" format="2">
  <advance width="1141"/>
  <unicode hex="00DE"/>
  <note>
		Thorn
	</note>
  <outline>
    <contour>
      <point x="140" y="0" type="line"/>
      <point x="306" y="0" type="line"/>
      <point x="306" y="290" type="line"/>
      <point x="602" y="290" type="line" smooth="yes"/>
      <point x="818" y="290"/>
      <point x="1046" y="494"/>
      <point x="1046" y="677" type="qcurve"/>
      <point x="1046" y="861"/>
      <point x="818" y="1065"/>
      <point x="602" y="1065" type="qcurve"/>
      <point x="306" y="1065" type="line"/>
      <point x="306" y="1334" type="line"/>
      <point x="140" y="1334" type="line"/>
    </contour>
    <contour>
      <point x="306" y="440" type="line"/>
      <point x="306" y="915" type="line"/>
      <point x="612" y="915" type="line" smooth="yes"/>
      <point x="741" y="915"/>
      <point x="873" y="794"/>
      <point x="873" y="677" type="qcurve"/>
      <point x="873" y="561"/>
      <point x="741" y="440"/>
      <point x="612" y="440" type="qcurve"/>
    </contour>
  </outline>
</glyph>
<glyph name="germandbls" format="2">
  <advance width="1039"/>
  <unicode hex="00DF"/>
  <note>
		germandbls
	</note>
  <outline>
    <contour>
      <point x="553" y="-10" type="curve" smooth="yes"/>
      <point x="831" y="-10"/>
      <point x="939" y="156"/>
      <point x="939" y="396" type="curve" smooth="yes"/>
      <point x="939" y="613"/>
      <point x="857" y="757"/>
      <point x="642" y="792" type="curve"/>
      <point x="771" y="833"/>
      <point x="838" y="932"/>
      <point x="838" y="1056" type="curve" smooth="yes"/>
      <point x="838" y="1219"/>
      <point x="728" y="1354"/>
      <point x="487" y="1354" type="curve" smooth="yes"/>
      <point x="216" y="1354"/>
      <point x="120" y="1209"/>
      <point x="120" y="978" type="curve" smooth="yes"/>
      <point x="120" y="0" type="line"/>
      <point x="280" y="0" type="line"/>
      <point x="280" y="988" type="line" smooth="yes"/>
      <point x="280" y="1137"/>
      <point x="335" y="1224"/>
      <point x="487" y="1224" type="curve" smooth="yes"/>
      <point x="611" y="1224"/>
      <point x="679" y="1157"/>
      <point x="679" y="1046" type="curve" smooth="yes"/>
      <point x="679" y="924"/>
      <point x="599" y="847"/>
      <point x="425" y="847" type="curve" smooth="yes"/>
      <point x="379" y="847" type="line"/>
      <point x="379" y="717" type="line"/>
      <point x="425" y="717" type="line" smooth="yes"/>
      <point x="678" y="717"/>
      <point x="774" y="603"/>
      <point x="774" y="405" type="curve" smooth="yes"/>
      <point x="774" y="223"/>
      <point x="713" y="130"/>
      <point x="553" y="130" type="curve" smooth="yes"/>
      <point x="481" y="130"/>
      <point x="418" y="143"/>
      <point x="379" y="159" type="curve"/>
      <point x="379" y="16" type="line"/>
      <point x="429" y="0"/>
      <point x="486" y="-10"/>
    </contour>
  </outline>
</glyph>
<glyph name="ae" format="2">
  <advance width="1654"/>
  <unicode hex="00E6"/>
  <note>
		ae
	</note>
  <outline>
    <contour>
      <point x="422" y="-20" type="curve" smooth="yes"/>
      <point x="607" y="-20"/>
      <point x="721" y="48"/>
      <point x="794" y="177" type="curve"/>
      <point x="866" y="51"/>
      <point x="981" y="-20"/>
      <point x="1136" y="-20" type="curve" smooth="yes"/>
      <point x="1321" y="-20"/>
      <point x="1462" y="77"/>
      <point x="1529" y="240" type="curve"/>
      <point x="1376" y="284" type="line"/>
      <point x="1332" y="170"/>
      <point x="1244" y="110"/>
      <point x="1136" y="110" type="curve" smooth="yes"/>
      <point x="989" y="110"/>
      <point x="877" y="222"/>
      <point x="869" y="438" type="curve"/>
      <point x="1554" y="438" type="line"/>
      <point x="1554" y="464" type="line" smooth="yes"/>
      <point x="1554" y="758"/>
      <point x="1396" y="948"/>
      <point x="1134" y="948" type="curve" smooth="yes"/>
      <point x="1000" y="948"/>
      <point x="894" y="894"/>
      <point x="825" y="788" type="curve"/>
      <point x="782" y="895"/>
      <point x="686" y="948"/>
      <point x="507" y="948" type="curve" smooth="yes"/>
      <point x="265" y="948"/>
      <point x="156" y="839"/>
      <point x="142" y="656" type="curve"/>
      <point x="296" y="649" type="line"/>
      <point x="304" y="772"/>
      <point x="375" y="818"/>
      <point x="507" y="818" type="curve" smooth="yes"/>
      <point x="641" y="818"/>
      <point x="718" y="770"/>
      <point x="718" y="642" type="curve" smooth="yes"/>
      <point x="718" y="560" type="line"/>
      <point x="416" y="516" type="line" smooth="yes"/>
      <point x="231" y="489"/>
      <point x="110" y="418"/>
      <point x="110" y="251" type="curve" smooth="yes"/>
      <point x="110" y="88"/>
      <point x="230" y="-20"/>
    </contour>
    <contour>
      <point x="270" y="256" type="curve" smooth="yes"/>
      <point x="270" y="345"/>
      <point x="326" y="385"/>
      <point x="430" y="401" type="curve" smooth="yes"/>
      <point x="718" y="446" type="line"/>
      <point x="718" y="366" type="line" smooth="yes"/>
      <point x="718" y="221"/>
      <point x="614" y="110"/>
      <point x="446" y="110" type="curve" smooth="yes"/>
      <point x="339" y="110"/>
      <point x="270" y="166"/>
    </contour>
    <contour>
      <point x="1388" y="560" type="curve"/>
      <point x="875" y="560" type="line"/>
      <point x="903" y="725"/>
      <point x="1003" y="818"/>
      <point x="1134" y="818" type="curve" smooth="yes"/>
      <point x="1274" y="818"/>
      <point x="1364" y="725"/>
    </contour>
  </outline>
</glyph>
<glyph name="ccedilla" format="2">
  <advance width="1042"/>
  <unicode hex="00E7"/>
  <note>
		ccedilla
	</note>
  <outline>
    <contour>
      <point x="517" y="-400" type="qcurve"/>
      <point x="620" y="-400"/>
      <point x="749" y="-308"/>
      <point x="749" y="-222" type="qcurve"/>
      <point x="749" y="-163"/>
      <point x="663" y="-68"/>
      <point x="562" y="-62" type="qcurve"/>
      <point x="578" y="-19" type="line"/>
      <point x="723" y="-8"/>
      <point x="918" y="160"/>
      <point x="957" y="303" type="qcurve"/>
      <point x="797" y="341" type="line"/>
      <point x="771" y="228"/>
      <point x="639" y="110"/>
      <point x="538" y="110" type="qcurve"/>
      <point x="457" y="110"/>
      <point x="334" y="194"/>
      <point x="265" y="354"/>
      <point x="265" y="464" type="qcurve"/>
      <point x="265" y="573"/>
      <point x="332" y="733"/>
      <point x="456" y="818"/>
      <point x="538" y="818" type="qcurve"/>
      <point x="637" y="818"/>
      <point x="766" y="708"/>
      <point x="793" y="602" type="qcurve"/>
      <point x="950" y="648" type="line"/>
      <point x="906" y="791"/>
      <point x="693" y="948"/>
      <point x="538" y="948" type="qcurve"/>
      <point x="408" y="948"/>
      <point x="209" y="829"/>
      <point x="100" y="609"/>
      <point x="100" y="464" type="qcurve"/>
      <point x="100" y="330"/>
      <point x="196" y="120"/>
      <point x="371" y="-6"/>
      <point x="487" y="-18" type="qcurve"/>
      <point x="437" y="-148" type="line"/>
      <point x="466" y="-145"/>
      <point x="491" y="-145" type="qcurve"/>
      <point x="553" y="-145"/>
      <point x="621" y="-188"/>
      <point x="621" y="-231" type="qcurve"/>
      <point x="621" y="-278"/>
      <point x="550" y="-327"/>
      <point x="485" y="-327" type="qcurve"/>
      <point x="440" y="-327"/>
      <point x="393" y="-314" type="qcurve"/>
      <point x="393" y="-381" type="line"/>
      <point x="455" y="-400"/>
    </contour>
  </outline>
</glyph>
<glyph name="igrave" format="2">
  <advance width="400"/>
  <unicode hex="00EC"/>
  <note>
		igrave
	</note>
  <outline>
    <contour>
      <point x="145" y="1069" type="line"/>
      <point x="255" y="1069" type="line"/>
      <point x="218" y="1334" type="line"/>
      <point x="25" y="1334" type="line"/>
    </contour>
    <contour>
      <point x="120" y="0" type="line"/>
      <point x="280" y="0" type="line"/>
      <point x="280" y="928" type="line"/>
      <point x="120" y="928" type="line"/>
    </contour>
  </outline>
</glyph>
<glyph name="icircumflex" format="2">
  <advance width="400"/>
  <unicode hex="00EE"/>
  <note>
		icircumflex
	</note>
  <outline>
    <contour>
      <point x="-35" y="1069" type="line"/>
      <point x="116" y="1069" type="line"/>
      <point x="200" y="1232" type="line"/>
      <point x="284" y="1069" type="line"/>
      <point x="435" y="1069" type="line"/>
      <point x="296" y="1334" type="line"/>
      <point x="104" y="1334" type="line"/>
    </contour>
    <contour>
      <point x="120" y="0" type="line"/>
      <point x="280" y="0" type="line"/>
      <point x="280" y="928" type="line"/>
      <point x="120" y="928" type="line"/>
    </contour>
  </outline>
</glyph>
<glyph name="idieresis" format="2">
  <advance width="400"/>
  <unicode hex="00EF"/>
  <note>
		idieresis
	</note>
  <outline>
    <contour>
      <point x="240" y="1069" type="line"/>
      <point x="380" y="1069" type="line"/>
      <point x="380" y="1260" type="line"/>
      <point x="240" y="1260" type="line"/>
    </contour>
    <contour>
      <point x="20" y="1069" type="line"/>
      <point x="160" y="1069" type="line"/>
      <point x="160" y="1260" type="line"/>
      <point x="20" y="1260" type="line"/>
    </contour>
    <contour>
      <point x="120" y="0" type="line"/>
      <point x="280" y="0" type="line"/>
      <point x="280" y="928" type="line"/>
      <point x="120" y="928" type="line"/>
    </contour>
  </outline>
</glyph>
<glyph name="eth" format="2">
  <advance width="1080"/>
  <unicode hex="00F0"/>
  <note>
		eth
	</note>
  <outline>
    <contour>
      <point x="540" y="-20" type="curve" smooth="yes"/>
      <point x="805" y="-20"/>
      <point x="980" y="170"/>
      <point x="980" y="496" type="curve" smooth="yes"/>
      <point x="980" y="736"/>
      <point x="883" y="976"/>
      <point x="736" y="1159" type="curve"/>
      <point x="967" y="1256" type="line"/>
      <point x="922" y="1354" type="line"/>
      <point x="660" y="1244" type="line"/>
      <point x="619" y="1285"/>
      <point x="576" y="1322"/>
      <point x="530" y="1354" type="curve"/>
      <point x="390" y="1296" type="line"/>
      <point x="438" y="1260"/>
      <point x="481" y="1223"/>
      <point x="520" y="1185" type="curve"/>
      <point x="281" y="1085" type="line"/>
      <point x="326" y="988" type="line"/>
      <point x="599" y="1102" type="line"/>
      <point x="675" y="1012"/>
      <point x="734" y="913"/>
      <point x="784" y="799" type="curve"/>
      <point x="720" y="888"/>
      <point x="616" y="936"/>
      <point x="509" y="936" type="curve" smooth="yes"/>
      <point x="264" y="936"/>
      <point x="100" y="746"/>
      <point x="100" y="458" type="curve" smooth="yes"/>
      <point x="100" y="174"/>
      <point x="275" y="-20"/>
    </contour>
    <contour>
      <point x="265" y="458" type="curve" smooth="yes"/>
      <point x="265" y="668"/>
      <point x="373" y="806"/>
      <point x="540" y="806" type="curve" smooth="yes"/>
      <point x="707" y="806"/>
      <point x="815" y="668"/>
      <point x="815" y="458" type="curve" smooth="yes"/>
      <point x="815" y="244"/>
      <point x="704" y="110"/>
      <point x="540" y="110" type="curve" smooth="yes"/>
      <point x="377" y="110"/>
      <point x="265" y="244"/>
    </contour>
  </outline>
</glyph>
<glyph name="divide" format="2">
  <advance width="1176"/>
  <unicode hex="00F7"/>
  <note>
		divide
	</note>
  <outline>
    <contour>
      <point x="120" y="514" type="line"/>
      <point x="1056" y="514" type="line"/>
      <point x="1056" y="654" type="line"/>
      <point x="120" y="654" type="line"/>
    </contour>
    <contour>
      <point x="501" y="110" type="line"/>
      <point x="675" y="110" type="line"/>
      <point x="675" y="304" type="line"/>
      <point x="501" y="304" type="line"/>
    </contour>
    <contour>
      <point x="501" y="865" type="line"/>
      <point x="675" y="865" type="line"/>
      <point x="675" y="1058" type="line"/>
      <point x="501" y="1058" type="line"/>
    </contour>
  </outline>
</glyph>
<glyph name="oslash" format="2">
  <advance width="1080"/>
  <unicode hex="00F8"/>
  <note>
		oslash
	</note>
  <outline>
    <contour>
      <point x="199" y="136" type="curve"/>
      <point x="101" y="17" type="line"/>
      <point x="187" y="-52" type="line"/>
      <point x="278" y="59" type="line"/>
      <point x="348" y="8"/>
      <point x="436" y="-20"/>
      <point x="540" y="-20" type="curve" smooth="yes"/>
      <point x="813" y="-20"/>
      <point x="980" y="174"/>
      <point x="980" y="464" type="curve" smooth="yes"/>
      <point x="980" y="598"/>
      <point x="945" y="711"/>
      <point x="881" y="793" type="curve"/>
      <point x="978" y="911" type="line"/>
      <point x="893" y="980" type="line"/>
      <point x="803" y="870" type="line"/>
      <point x="733" y="920"/>
      <point x="644" y="948"/>
      <point x="540" y="948" type="curve" smooth="yes"/>
      <point x="268" y="948"/>
      <point x="100" y="758"/>
      <point x="100" y="464" type="curve" smooth="yes"/>
      <point x="100" y="331"/>
      <point x="135" y="219"/>
    </contour>
    <contour>
      <point x="265" y="464" type="curve" smooth="yes"/>
      <point x="265" y="684"/>
      <point x="365" y="818"/>
      <point x="540" y="818" type="curve" smooth="yes"/>
      <point x="609" y="818"/>
      <point x="666" y="797"/>
      <point x="711" y="758" type="curve"/>
      <point x="303" y="262" type="line"/>
      <point x="278" y="316"/>
      <point x="265" y="384"/>
    </contour>
    <contour>
      <point x="369" y="170" type="curve"/>
      <point x="777" y="666" type="line"/>
      <point x="802" y="612"/>
      <point x="815" y="543"/>
      <point x="815" y="464" type="curve" smooth="yes"/>
      <point x="815" y="239"/>
      <point x="712" y="110"/>
      <point x="540" y="110" type="curve" smooth="yes"/>
      <point x="472" y="110"/>
      <point x="414" y="131"/>
    </contour>
  </outline>
</glyph>
<glyph name="thorn" format="2">
  <advance width="1100"/>
  <unicode hex="00FE"/>
  <note>
		thorn
	</note>
  <outline>
    <contour>
      <point x="120" y="1334" type="line"/>
      <point x="120" y="-380" type="line"/>
      <point x="280" y="-380" type="line"/>
      <point x="280" y="0" type="line" smooth="yes"/>
      <point x="280" y="57"/>
      <point x="280" y="114"/>
      <point x="270" y="171" type="curve"/>
      <point x="337" y="48"/>
      <point x="452" y="-20"/>
      <point x="588" y="-20" type="curve" smooth="yes"/>
      <point x="841" y="-20"/>
      <point x="1000" y="170"/>
      <point x="1000" y="464" type="curve" smooth="yes"/>
      <point x="1000" y="758"/>
      <point x="841" y="948"/>
      <point x="588" y="948" type="curve" smooth="yes"/>
      <point x="452" y="948"/>
      <point x="337" y="880"/>
      <point x="270" y="757" type="curve"/>
      <point x="280" y="814"/>
      <point x="280" y="871"/>
      <point x="280" y="928" type="curve" smooth="yes"/>
      <point x="280" y="1334" type="line"/>
    </contour>
    <contour>
      <point x="280" y="464" type="curve" smooth="yes"/>
      <point x="280" y="679"/>
      <point x="388" y="813"/>
      <point x="557" y="813" type="curve" smooth="yes"/>
      <point x="727" y="813"/>
      <point x="835" y="679"/>
      <point x="835" y="464" type="curve" smooth="yes"/>
      <point x="835" y="249"/>
      <point x="727" y="115"/>
      <point x="557" y="115" type="curve" smooth="yes"/>
      <point x="388" y="115"/>
      <point x="280" y="249"/>
    </contour>
  </outline>
</glyph>
<glyph name="Aogonek" format="2">
  <advance width="1319"/>
  <unicode hex="0104"/>
  <note>
		Aogonek
	</note>
  <outline>
    <contour>
      <point x="1182" y="-354" type="qcurve"/>
      <point x="1235" y="-354"/>
      <point x="1269" y="-344" type="qcurve"/>
      <point x="1269" y="-245" type="line"/>
      <point x="1244" y="-250"/>
      <point x="1223" y="-250" type="qcurve"/>
      <point x="1177" y="-250"/>
      <point x="1124" y="-205"/>
      <point x="1124" y="-161" type="qcurve"/>
      <point x="1124" y="-107"/>
      <point x="1207" y="-21"/>
      <point x="1269" y="0" type="qcurve"/>
      <point x="726" y="1334" type="line"/>
      <point x="589" y="1334" type="line"/>
      <point x="50" y="0" type="line"/>
      <point x="226" y="0" type="line"/>
      <point x="363" y="351" type="line"/>
      <point x="951" y="351" type="line"/>
      <point x="1090" y="0" type="line"/>
      <point x="987" y="-84"/>
      <point x="987" y="-184" type="qcurve"/>
      <point x="987" y="-261"/>
      <point x="1096" y="-354"/>
    </contour>
    <contour>
      <point x="418" y="491" type="line"/>
      <point x="602" y="962" type="line" smooth="yes"/>
      <point x="621" y="1011"/>
      <point x="645" y="1078"/>
      <point x="656" y="1120" type="qcurve"/>
      <point x="667" y="1078"/>
      <point x="691" y="1011"/>
      <point x="710" y="962" type="qcurve"/>
      <point x="896" y="491" type="line"/>
    </contour>
  </outline>
</glyph>
<glyph name="Dcroat" format="2">
  <advance width="1366"/>
  <unicode hex="0110"/>
  <note>
		Dcroat
	</note>
  <outline>
    <contour>
      <point x="35" y="732" type="line"/>
      <point x="35" y="602" type="line"/>
      <point x="166" y="602" type="line"/>
      <point x="166" y="0" type="line"/>
      <point x="703" y="0" type="line" smooth="yes"/>
      <point x="1062" y="0"/>
      <point x="1254" y="275"/>
      <point x="1254" y="666" type="curve" smooth="yes"/>
      <point x="1254" y="1059"/>
      <point x="1062" y="1334"/>
      <point x="703" y="1334" type="curve" smooth="yes"/>
      <point x="166" y="1334" type="line"/>
      <point x="166" y="732" type="line"/>
    </contour>
    <contour>
      <point x="703" y="150" type="curve" smooth="yes"/>
      <point x="332" y="150" type="line"/>
      <point x="332" y="602" type="line"/>
      <point x="697" y="602" type="line"/>
      <point x="697" y="732" type="line"/>
      <point x="332" y="732" type="line"/>
      <point x="332" y="1184" type="line"/>
      <point x="703" y="1184" type="line" smooth="yes"/>
      <point x="960" y="1184"/>
      <point x="1079" y="971"/>
      <point x="1079" y="666" type="curve" smooth="yes"/>
      <point x="1079" y="363"/>
      <point x="960" y="150"/>
    </contour>
  </outline>
</glyph>
<glyph name="eogonek" format="2">
  <advance width="1051"/>
  <unicode hex="0119"/>
  <note>
		eogonek
	</note>
  <outline>
    <contour>
      <point x="716" y="-354" type="qcurve"/>
      <point x="768" y="-354"/>
      <point x="802" y="-344" type="qcurve"/>
      <point x="802" y="-245" type="line"/>
      <point x="775" y="-250"/>
      <point x="756" y="-250" type="qcurve"/>
      <point x="710" y="-250"/>
      <point x="657" y="-205"/>
      <point x="657" y="-161" type="qcurve"/>
      <point x="657" y="-108"/>
      <point x="729" y="4"/>
      <point x="796" y="64" type="qcurve"/>
      <point x="887" y="147"/>
      <point x="926" y="240" type="qcurve"/>
      <point x="773" y="284" type="line"/>
      <point x="740" y="199"/>
      <point x="615" y="110"/>
      <point x="533" y="110" type="qcurve"/>
      <point x="455" y="110"/>
      <point x="335" y="188"/>
      <point x="265" y="336"/>
      <point x="261" y="438" type="qcurve"/>
      <point x="951" y="438" type="line"/>
      <point x="951" y="464" type="line" smooth="yes"/>
      <point x="951" y="610"/>
      <point x="850" y="829"/>
      <point x="660" y="948"/>
      <point x="531" y="948" type="qcurve"/>
      <point x="402" y="948"/>
      <point x="207" y="829"/>
      <point x="100" y="610"/>
      <point x="100" y="464" type="qcurve"/>
      <point x="100" y="320"/>
      <point x="206" y="101"/>
      <point x="402" y="-20"/>
      <point x="533" y="-20" type="qcurve"/>
      <point x="582" y="-20"/>
      <point x="627" y="-11" type="qcurve"/>
      <point x="520" y="-93"/>
      <point x="520" y="-194" type="qcurve"/>
      <point x="520" y="-270"/>
      <point x="627" y="-354"/>
    </contour>
    <contour>
      <point x="267" y="560" type="line"/>
      <point x="287" y="683"/>
      <point x="426" y="818"/>
      <point x="531" y="818" type="qcurve"/>
      <point x="636" y="818"/>
      <point x="767" y="684"/>
      <point x="785" y="560" type="qcurve"/>
    </contour>
  </outline>
</glyph>
<glyph name="Hbar" format="2">
  <advance width="1380"/>
  <unicode hex="0126"/>
  <note>
		Hbar
	</note>
  <outline>
    <contour>
      <point x="35" y="1118" type="line"/>
      <point x="35" y="993" type="line"/>
      <point x="165" y="993" type="line"/>
      <point x="165" y="0" type="line"/>
      <point x="331" y="0" type="line"/>
      <point x="331" y="608" type="line"/>
      <point x="1049" y="608" type="line"/>
      <point x="1049" y="0" type="line"/>
      <point x="1215" y="0" type="line"/>
      <point x="1215" y="993" type="line"/>
      <point x="1345" y="993" type="line"/>
      <point x="1345" y="1118" type="line"/>
      <point x="1215" y="1118" type="line"/>
      <point x="1215" y="1334" type="line"/>
      <point x="1049" y="1334" type="line"/>
      <point x="1049" y="1118" type="line"/>
      <point x="331" y="1118" type="line"/>
      <point x="331" y="1334" type="line"/>
      <point x="165" y="1334" type="line"/>
      <point x="165" y="1118" type="line"/>
    </contour>
    <contour>
      <point x="1049" y="753" type="line"/>
      <point x="331" y="753" type="line"/>
      <point x="331" y="993" type="line"/>
      <point x="1049" y="993" type="line"/>
    </contour>
  </outline>
</glyph>
<glyph name="hbar" format="2">
  <advance width="1019"/>
  <unicode hex="0127"/>
  <note>
		hbar
	</note>
  <outline>
    <contour>
      <point x="18" y="1200" type="line"/>
      <point x="18" y="1090" type="line"/>
      <point x="134" y="1090" type="line"/>
      <point x="134" y="0" type="line"/>
      <point x="294" y="0" type="line"/>
      <point x="294" y="521" type="line" smooth="yes"/>
      <point x="294" y="698"/>
      <point x="415" y="813"/>
      <point x="553" y="813" type="curve" smooth="yes"/>
      <point x="674" y="813"/>
      <point x="739" y="738"/>
      <point x="739" y="598" type="curve" smooth="yes"/>
      <point x="739" y="0" type="line"/>
      <point x="899" y="0" type="line"/>
      <point x="899" y="631" type="line" smooth="yes"/>
      <point x="899" y="824"/>
      <point x="782" y="948"/>
      <point x="593" y="948" type="curve" smooth="yes"/>
      <point x="443" y="948"/>
      <point x="335" y="863"/>
      <point x="281" y="744" type="curve"/>
      <point x="290" y="805"/>
      <point x="294" y="866"/>
      <point x="294" y="928" type="curve" smooth="yes"/>
      <point x="294" y="1090" type="line"/>
      <point x="601" y="1090" type="line"/>
      <point x="601" y="1200" type="line"/>
      <point x="294" y="1200" type="line"/>
      <point x="294" y="1334" type="line"/>
      <point x="134" y="1334" type="line"/>
      <point x="134" y="1200" type="line"/>
    </contour>
  </outline>
</glyph>
<glyph name="Itilde" format="2">
  <advance width="446"/>
  <unicode hex="0128"/>
  <note>
		Itilde
	</note>
  <outline>
    <contour>
      <point x="83" y="1405" type="line"/>
      <point x="87" y="1435"/>
      <point x="109" y="1462"/>
      <point x="131" y="1462" type="qcurve"/>
      <point x="150" y="1462"/>
      <point x="186" y="1449"/>
      <point x="211" y="1436" type="qcurve"/>
      <point x="243" y="1421"/>
      <point x="289" y="1405"/>
      <point x="317" y="1405" type="qcurve"/>
      <point x="388" y="1405"/>
      <point x="462" y="1502"/>
      <point x="462" y="1589" type="qcurve"/>
      <point x="362" y="1589" type="line"/>
      <point x="358" y="1559"/>
      <point x="336" y="1533"/>
      <point x="316" y="1533" type="qcurve"/>
      <point x="300" y="1533"/>
      <point x="268" y="1544"/>
      <point x="239" y="1557" type="qcurve"/>
      <point x="206" y="1573"/>
      <point x="157" y="1589"/>
      <point x="128" y="1589" type="qcurve"/>
      <point x="57" y="1589"/>
      <point x="-16" y="1492"/>
      <point x="-16" y="1405" type="qcurve"/>
    </contour>
    <contour>
      <point x="140" y="0" type="line"/>
      <point x="306" y="0" type="line"/>
      <point x="306" y="1334" type="line"/>
      <point x="140" y="1334" type="line"/>
    </contour>
  </outline>
</glyph>
<glyph name="itilde" format="2">
  <advance width="447"/>
  <unicode hex="0129"/>
  <note>
		itilde
	</note>
  <outline>
    <contour>
      <point x="84" y="1069" type="line"/>
      <point x="88" y="1099"/>
      <point x="110" y="1126"/>
      <point x="132" y="1126" type="qcurve"/>
      <point x="151" y="1126"/>
      <point x="187" y="1113"/>
      <point x="211" y="1100" type="qcurve"/>
      <point x="243" y="1085"/>
      <point x="289" y="1069"/>
      <point x="317" y="1069" type="qcurve"/>
      <point x="388" y="1069"/>
      <point x="462" y="1166"/>
      <point x="462" y="1253" type="qcurve"/>
      <point x="362" y="1253" type="line"/>
      <point x="358" y="1223"/>
      <point x="336" y="1197"/>
      <point x="316" y="1197" type="qcurve"/>
      <point x="299" y="1197"/>
      <point x="267" y="1209"/>
      <point x="240" y="1221" type="qcurve"/>
      <point x="204" y="1237"/>
      <point x="157" y="1253"/>
      <point x="129" y="1253" type="qcurve"/>
      <point x="58" y="1253"/>
      <point x="-15" y="1156"/>
      <point x="-15" y="1069" type="qcurve"/>
    </contour>
    <contour>
      <point x="143" y="0" type="line"/>
      <point x="303" y="0" type="line"/>
      <point x="303" y="928" type="line"/>
      <point x="143" y="928" type="line"/>
    </contour>
  </outline>
</glyph>
<glyph name="Imacron" format="2">
  <advance width="446"/>
  <unicode hex="012A"/>
  <note>
		Imacron
	</note>
  <outline>
    <contour>
      <point x="0" y="1440" type="line"/>
      <point x="446" y="1440" type="line"/>
      <point x="446" y="1568" type="line"/>
      <point x="0" y="1568" type="line"/>
    </contour>
    <contour>
      <point x="141" y="0" type="line"/>
      <point x="307" y="0" type="line"/>
      <point x="307" y="1334" type="line"/>
      <point x="141" y="1334" type="line"/>
    </contour>
  </outline>
</glyph>
<glyph name="imacron" format="2">
  <advance width="400"/>
  <unicode hex="012B"/>
  <note>
		imacron
	</note>
  <outline>
    <contour>
      <point x="0" y="1090" type="line"/>
      <point x="400" y="1090" type="line"/>
      <point x="400" y="1220" type="line"/>
      <point x="0" y="1220" type="line"/>
    </contour>
    <contour>
      <point x="120" y="0" type="line"/>
      <point x="280" y="0" type="line"/>
      <point x="280" y="928" type="line"/>
      <point x="120" y="928" type="line"/>
    </contour>
  </outline>
</glyph>
<glyph name="ibreve" format="2">
  <advance width="400"/>
  <unicode hex="012D"/>
  <note>
		ibreve
	</note>
  <outline>
    <contour>
      <point x="200" y="1069" type="qcurve"/>
      <point x="275" y="1069"/>
      <point x="374" y="1140"/>
      <point x="420" y="1253"/>
      <point x="420" y="1316" type="qcurve"/>
      <point x="302" y="1316" type="line"/>
      <point x="299" y="1262"/>
      <point x="248" y="1199"/>
      <point x="200" y="1199" type="qcurve"/>
      <point x="151" y="1199"/>
      <point x="101" y="1262"/>
      <point x="98" y="1316" type="qcurve"/>
      <point x="-20" y="1316" type="line"/>
      <point x="-20" y="1253"/>
      <point x="26" y="1140"/>
      <point x="125" y="1069"/>
    </contour>
    <contour>
      <point x="120" y="0" type="line"/>
      <point x="280" y="0" type="line"/>
      <point x="280" y="928" type="line"/>
      <point x="120" y="928" type="line"/>
    </contour>
  </outline>
</glyph>
<glyph name="Iogonek" format="2">
  <advance width="446"/>
  <unicode hex="012E"/>
  <note>
		Iogonek
	</note>
  <outline>
    <contour>
      <point x="220" y="-354" type="qcurve"/>
      <point x="272" y="-354"/>
      <point x="306" y="-344" type="qcurve"/>
      <point x="306" y="-245" type="line"/>
      <point x="281" y="-250"/>
      <point x="261" y="-250" type="qcurve"/>
      <point x="215" y="-250"/>
      <point x="162" y="-205"/>
      <point x="162" y="-161" type="qcurve"/>
      <point x="162" y="-107"/>
      <point x="246" y="-19"/>
      <point x="306" y="0" type="qcurve"/>
      <point x="306" y="1334" type="line"/>
      <point x="140" y="1334" type="line"/>
      <point x="140" y="-6" type="line"/>
      <point x="90" y="-37"/>
      <point x="24" y="-136"/>
      <point x="24" y="-194" type="qcurve"/>
      <point x="24" y="-270"/>
      <point x="131" y="-354"/>
    </contour>
  </outline>
</glyph>
<glyph name="iogonek" format="2">
  <advance width="400"/>
  <unicode hex="012F"/>
  <note>
		iogonek
	</note>
  <outline>
    <contour>
      <point x="193" y="-354" type="qcurve"/>
      <point x="246" y="-354"/>
      <point x="280" y="-344" type="qcurve"/>
      <point x="280" y="-245" type="line"/>
      <point x="255" y="-250"/>
      <point x="234" y="-250" type="qcurve"/>
      <point x="188" y="-250"/>
      <point x="135" y="-205"/>
      <point x="135" y="-161" type="qcurve"/>
      <point x="135" y="-107"/>
      <point x="220" y="-19"/>
      <point x="280" y="0" type="qcurve"/>
      <point x="280" y="928" type="line"/>
      <point x="120" y="928" type="line"/>
      <point x="120" y="-2" type="line"/>
      <point x="67" y="-32"/>
      <point x="-3" y="-134"/>
      <point x="-3" y="-194" type="qcurve"/>
      <point x="-3" y="-270"/>
      <point x="105" y="-354"/>
    </contour>
    <contour>
      <point x="120" y="1104" type="line"/>
      <point x="280" y="1104" type="line"/>
      <point x="280" y="1334" type="line"/>
      <point x="120" y="1334" type="line"/>
    </contour>
  </outline>
</glyph>
<glyph name="dotlessi" format="2">
  <advance width="400"/>
  <unicode hex="0131"/>
  <note>
		dotlessi
	</note>
  <outline>
    <contour>
      <point x="120" y="0" type="line"/>
      <point x="280" y="0" type="line"/>
      <point x="280" y="928" type="line"/>
      <point x="120" y="928" type="line"/>
    </contour>
  </outline>
</glyph>
<glyph name="jcircumflex" format="2">
  <advance width="400"/>
  <unicode hex="0135"/>
  <note>
		jcircumflex
	</note>
  <outline>
    <contour>
      <point x="-59" y="1090" type="line"/>
      <point x="65" y="1090" type="line"/>
      <point x="200" y="1278" type="line"/>
      <point x="336" y="1090" type="line"/>
      <point x="459" y="1090" type="line"/>
      <point x="286" y="1392" type="line"/>
      <point x="115" y="1392" type="line"/>
    </contour>
    <contour>
      <point x="-75" y="-380" type="line"/>
      <point x="-18" y="-390"/>
      <point x="36" y="-390" type="qcurve"/>
      <point x="147" y="-390"/>
      <point x="280" y="-271"/>
      <point x="280" y="-158" type="qcurve"/>
      <point x="280" y="928" type="line"/>
      <point x="120" y="928" type="line"/>
      <point x="120" y="-130" type="line" smooth="yes"/>
      <point x="120" y="-189"/>
      <point x="63" y="-245"/>
      <point x="5" y="-245" type="qcurve"/>
      <point x="-38" y="-245"/>
      <point x="-75" y="-236" type="qcurve"/>
    </contour>
  </outline>
</glyph>
<glyph name="kgreenlandic" format="2">
  <advance width="985"/>
  <unicode hex="0138"/>
  <note>
		kgreenlandic
	</note>
  <outline>
    <contour>
      <point x="120" y="0" type="line"/>
      <point x="280" y="0" type="line"/>
      <point x="280" y="303" type="line"/>
      <point x="425" y="452" type="line"/>
      <point x="745" y="0" type="line"/>
      <point x="935" y="0" type="line"/>
      <point x="536" y="552" type="line"/>
      <point x="912" y="928" type="line"/>
      <point x="709" y="928" type="line"/>
      <point x="280" y="489" type="line"/>
      <point x="280" y="928" type="line"/>
      <point x="120" y="928" type="line"/>
    </contour>
  </outline>
</glyph>
<glyph name="Lslash" format="2">
  <advance width="1085"/>
  <unicode hex="0141"/>
  <note>
		Lslash
	</note>
  <outline>
    <contour>
      <point x="35" y="608" type="line"/>
      <point x="35" y="458" type="line"/>
      <point x="165" y="532" type="line"/>
      <point x="165" y="0" type="line"/>
      <point x="995" y="0" type="line"/>
      <point x="995" y="150" type="line"/>
      <point x="331" y="150" type="line"/>
      <point x="331" y="627" type="line"/>
      <point x="665" y="817" type="line"/>
      <point x="665" y="967" type="line"/>
      <point x="331" y="777" type="line"/>
      <point x="331" y="1334" type="line"/>
      <point x="165" y="1334" type="line"/>
      <point x="165" y="682" type="line"/>
    </contour>
  </outline>
</glyph>
<glyph name="lslash" format="2">
  <advance width="492"/>
  <unicode hex="0142"/>
  <note>
		lslash
	</note>
  <outline>
    <contour>
      <point x="30" y="481" type="line"/>
      <point x="166" y="558" type="line"/>
      <point x="166" y="0" type="line"/>
      <point x="326" y="0" type="line"/>
      <point x="326" y="648" type="line"/>
      <point x="462" y="725" type="line"/>
      <point x="462" y="876" type="line"/>
      <point x="326" y="799" type="line"/>
      <point x="326" y="1334" type="line"/>
      <point x="166" y="1334" type="line"/>
      <point x="166" y="708" type="line"/>
      <point x="30" y="631" type="line"/>
    </contour>
  </outline>
</glyph>
<glyph name="Eng" format="2">
  <advance width="1311"/>
  <unicode hex="014A"/>
  <note>
		Eng
	</note>
  <outline>
    <contour>
      <point x="927" y="-390" type="curve" smooth="yes"/>
      <point x="1070" y="-390"/>
      <point x="1171" y="-313"/>
      <point x="1171" y="-158" type="curve" smooth="yes"/>
      <point x="1171" y="1334" type="line"/>
      <point x="1011" y="1334" type="line"/>
      <point x="1011" y="449" type="line" smooth="yes"/>
      <point x="1011" y="381"/>
      <point x="1011" y="334"/>
      <point x="1021" y="246" type="curve"/>
      <point x="984" y="325"/>
      <point x="956" y="367"/>
      <point x="919" y="420" type="curve" smooth="yes"/>
      <point x="284" y="1334" type="line"/>
      <point x="140" y="1334" type="line"/>
      <point x="140" y="0" type="line"/>
      <point x="300" y="0" type="line"/>
      <point x="300" y="885" type="line" smooth="yes"/>
      <point x="300" y="953"/>
      <point x="300" y="1000"/>
      <point x="290" y="1088" type="curve"/>
      <point x="327" y="1009"/>
      <point x="355" y="967"/>
      <point x="392" y="914" type="curve" smooth="yes"/>
      <point x="1011" y="23" type="line"/>
      <point x="1011" y="-130" type="line" smooth="yes"/>
      <point x="1011" y="-210"/>
      <point x="973" y="-245"/>
      <point x="896" y="-245" type="curve" smooth="yes"/>
      <point x="865" y="-245"/>
      <point x="841" y="-242"/>
      <point x="816" y="-236" type="curve"/>
      <point x="816" y="-380" type="line"/>
      <point x="856" y="-387"/>
      <point x="890" y="-390"/>
    </contour>
  </outline>
</glyph>
<glyph name="eng" format="2">
  <advance width="1005"/>
  <unicode hex="014B"/>
  <note>
		eng
	</note>
  <outline>
    <contour>
      <point x="641" y="-390" type="curve" smooth="yes"/>
      <point x="784" y="-390"/>
      <point x="885" y="-313"/>
      <point x="885" y="-158" type="curve" smooth="yes"/>
      <point x="885" y="631" type="line" smooth="yes"/>
      <point x="885" y="824"/>
      <point x="768" y="948"/>
      <point x="579" y="948" type="curve" smooth="yes"/>
      <point x="429" y="948"/>
      <point x="321" y="863"/>
      <point x="267" y="744" type="curve"/>
      <point x="275" y="805"/>
      <point x="275" y="866"/>
      <point x="275" y="928" type="curve"/>
      <point x="120" y="928" type="line"/>
      <point x="120" y="0" type="line"/>
      <point x="280" y="0" type="line"/>
      <point x="280" y="521" type="line" smooth="yes"/>
      <point x="280" y="698"/>
      <point x="401" y="813"/>
      <point x="539" y="813" type="curve" smooth="yes"/>
      <point x="660" y="813"/>
      <point x="725" y="738"/>
      <point x="725" y="598" type="curve" smooth="yes"/>
      <point x="725" y="-130" type="line" smooth="yes"/>
      <point x="725" y="-210"/>
      <point x="687" y="-245"/>
      <point x="610" y="-245" type="curve" smooth="yes"/>
      <point x="579" y="-245"/>
      <point x="555" y="-242"/>
      <point x="530" y="-236" type="curve"/>
      <point x="530" y="-380" type="line"/>
      <point x="570" y="-387"/>
      <point x="604" y="-390"/>
    </contour>
  </outline>
</glyph>
<glyph name="OE" format="2">
  <advance width="1806"/>
  <unicode hex="0152"/>
  <note>
		OE
	</note>
  <outline>
    <contour>
      <point x="1706" y="0" type="line"/>
      <point x="1706" y="150" type="line"/>
      <point x="1083" y="150" type="line"/>
      <point x="1083" y="601" type="line"/>
      <point x="1574" y="601" type="line"/>
      <point x="1574" y="751" type="line"/>
      <point x="1083" y="751" type="line"/>
      <point x="1083" y="1184" type="line"/>
      <point x="1666" y="1184" type="line"/>
      <point x="1666" y="1334" type="line"/>
      <point x="758" y="1334" type="line" smooth="yes"/>
      <point x="562" y="1334"/>
      <point x="269" y="1165"/>
      <point x="112" y="862"/>
      <point x="112" y="666" type="qcurve"/>
      <point x="112" y="471"/>
      <point x="269" y="169"/>
      <point x="562" y="0"/>
      <point x="758" y="0" type="qcurve"/>
    </contour>
    <contour>
      <point x="287" y="666" type="qcurve"/>
      <point x="287" y="819"/>
      <point x="399" y="1053"/>
      <point x="612" y="1184"/>
      <point x="758" y="1184" type="qcurve"/>
      <point x="918" y="1184" type="line"/>
      <point x="918" y="150" type="line"/>
      <point x="758" y="150" type="line" smooth="yes"/>
      <point x="612" y="150"/>
      <point x="399" y="280"/>
      <point x="287" y="514"/>
    </contour>
  </outline>
</glyph>
<glyph name="oe" format="2">
  <advance width="1766"/>
  <unicode hex="0153"/>
  <note>
		oe
	</note>
  <outline>
    <contour>
      <point x="540" y="-20" type="curve" smooth="yes"/>
      <point x="717" y="-20"/>
      <point x="835" y="62"/>
      <point x="896" y="198" type="curve"/>
      <point x="958" y="62"/>
      <point x="1076" y="-20"/>
      <point x="1248" y="-20" type="curve" smooth="yes"/>
      <point x="1433" y="-20"/>
      <point x="1574" y="77"/>
      <point x="1641" y="240" type="curve"/>
      <point x="1488" y="284" type="line"/>
      <point x="1444" y="170"/>
      <point x="1356" y="110"/>
      <point x="1248" y="110" type="curve" smooth="yes"/>
      <point x="1091" y="110"/>
      <point x="984" y="232"/>
      <point x="976" y="438" type="curve"/>
      <point x="1666" y="438" type="line"/>
      <point x="1666" y="464" type="line" smooth="yes"/>
      <point x="1666" y="758"/>
      <point x="1508" y="948"/>
      <point x="1246" y="948" type="curve" smooth="yes"/>
      <point x="1077" y="948"/>
      <point x="958" y="868"/>
      <point x="896" y="731" type="curve"/>
      <point x="835" y="868"/>
      <point x="717" y="948"/>
      <point x="540" y="948" type="curve" smooth="yes"/>
      <point x="268" y="948"/>
      <point x="100" y="758"/>
      <point x="100" y="464" type="curve" smooth="yes"/>
      <point x="100" y="174"/>
      <point x="267" y="-20"/>
    </contour>
    <contour>
      <point x="265" y="464" type="curve" smooth="yes"/>
      <point x="265" y="684"/>
      <point x="365" y="818"/>
      <point x="540" y="818" type="curve" smooth="yes"/>
      <point x="715" y="818"/>
      <point x="815" y="684"/>
      <point x="815" y="464" type="curve" smooth="yes"/>
      <point x="815" y="239"/>
      <point x="712" y="110"/>
      <point x="540" y="110" type="curve" smooth="yes"/>
      <point x="369" y="110"/>
      <point x="265" y="239"/>
    </contour>
    <contour>
      <point x="1500" y="560" type="curve"/>
      <point x="982" y="560" type="line"/>
      <point x="1009" y="725"/>
      <point x="1106" y="818"/>
      <point x="1246" y="818" type="curve" smooth="yes"/>
      <point x="1386" y="818"/>
      <point x="1476" y="725"/>
    </contour>
  </outline>
</glyph>
<glyph name="Scedilla" format="2">
  <advance width="1165"/>
  <unicode hex="015E"/>
  <note>
		Scedilla
	</note>
  <outline>
    <contour>
      <point x="573" y="-400" type="qcurve"/>
      <point x="676" y="-400"/>
      <point x="805" y="-308"/>
      <point x="805" y="-222" type="qcurve"/>
      <point x="805" y="-163"/>
      <point x="719" y="-68"/>
      <point x="618" y="-62" type="qcurve"/>
      <point x="634" y="-19" type="line"/>
      <point x="770" y="-12"/>
      <point x="967" y="93"/>
      <point x="1070" y="275"/>
      <point x="1070" y="394" type="qcurve"/>
      <point x="1070" y="520"/>
      <point x="931" y="703"/>
      <point x="771" y="739" type="qcurve"/>
      <point x="500" y="799" type="line" smooth="yes"/>
      <point x="325" y="838"/>
      <point x="325" y="985" type="qcurve"/>
      <point x="325" y="1088"/>
      <point x="467" y="1209"/>
      <point x="597" y="1209" type="qcurve"/>
      <point x="721" y="1209"/>
      <point x="878" y="1089"/>
      <point x="894" y="976" type="qcurve"/>
      <point x="1061" y="1005" type="line"/>
      <point x="1043" y="1109"/>
      <point x="917" y="1267"/>
      <point x="719" y="1354"/>
      <point x="597" y="1354" type="qcurve"/>
      <point x="466" y="1354"/>
      <point x="265" y="1255"/>
      <point x="155" y="1083"/>
      <point x="155" y="978" type="qcurve"/>
      <point x="155" y="859"/>
      <point x="287" y="682"/>
      <point x="444" y="647" type="qcurve"/>
      <point x="702" y="589" type="line" smooth="yes"/>
      <point x="809" y="565"/>
      <point x="897" y="461"/>
      <point x="897" y="379" type="qcurve"/>
      <point x="897" y="298"/>
      <point x="820" y="184"/>
      <point x="683" y="125"/>
      <point x="594" y="125" type="qcurve"/>
      <point x="505" y="125"/>
      <point x="357" y="192"/>
      <point x="265" y="324"/>
      <point x="260" y="419" type="qcurve"/>
      <point x="95" y="386" type="line"/>
      <point x="107" y="272"/>
      <point x="223" y="96"/>
      <point x="417" y="-9"/>
      <point x="543" y="-18" type="qcurve"/>
      <point x="493" y="-148" type="line"/>
      <point x="522" y="-145"/>
      <point x="547" y="-145" type="qcurve"/>
      <point x="609" y="-145"/>
      <point x="677" y="-188"/>
      <point x="677" y="-231" type="qcurve"/>
      <point x="677" y="-278"/>
      <point x="606" y="-327"/>
      <point x="541" y="-327" type="qcurve"/>
      <point x="496" y="-327"/>
      <point x="449" y="-314" type="qcurve"/>
      <point x="449" y="-381" type="line"/>
      <point x="511" y="-400"/>
    </contour>
  </outline>
</glyph>
<glyph name="scedilla" format="2">
  <advance width="919"/>
  <unicode hex="015F"/>
  <note>
		scedilla
	</note>
  <outline>
    <contour>
      <point x="447" y="-400" type="qcurve"/>
      <point x="550" y="-400"/>
      <point x="679" y="-308"/>
      <point x="679" y="-222" type="qcurve"/>
      <point x="679" y="-163"/>
      <point x="593" y="-68"/>
      <point x="492" y="-62" type="qcurve"/>
      <point x="508" y="-18" type="line"/>
      <point x="605" y="-11"/>
      <point x="755" y="70"/>
      <point x="839" y="203"/>
      <point x="839" y="285" type="qcurve"/>
      <point x="839" y="390"/>
      <point x="717" y="504"/>
      <point x="602" y="529" type="qcurve"/>
      <point x="412" y="570" type="line" smooth="yes"/>
      <point x="342" y="585"/>
      <point x="274" y="637"/>
      <point x="274" y="689" type="qcurve"/>
      <point x="274" y="747"/>
      <point x="374" y="818"/>
      <point x="458" y="818" type="qcurve"/>
      <point x="548" y="818"/>
      <point x="655" y="740"/>
      <point x="662" y="664" type="qcurve"/>
      <point x="816" y="681" type="line"/>
      <point x="807" y="763"/>
      <point x="710" y="884"/>
      <point x="554" y="948"/>
      <point x="458" y="948" type="qcurve"/>
      <point x="361" y="948"/>
      <point x="207" y="880"/>
      <point x="119" y="757"/>
      <point x="119" y="677" type="qcurve"/>
      <point x="119" y="572"/>
      <point x="245" y="454"/>
      <point x="372" y="427" type="qcurve"/>
      <point x="537" y="392" type="line" smooth="yes"/>
      <point x="612" y="376"/>
      <point x="679" y="324"/>
      <point x="679" y="272" type="qcurve"/>
      <point x="679" y="226"/>
      <point x="629" y="152"/>
      <point x="534" y="110"/>
      <point x="468" y="110" type="qcurve"/>
      <point x="398" y="110"/>
      <point x="290" y="159"/>
      <point x="227" y="245"/>
      <point x="225" y="299" type="qcurve"/>
      <point x="70" y="291" type="line"/>
      <point x="74" y="207"/>
      <point x="165" y="73"/>
      <point x="319" y="-9"/>
      <point x="417" y="-18" type="qcurve"/>
      <point x="367" y="-148" type="line"/>
      <point x="396" y="-145"/>
      <point x="421" y="-145" type="qcurve"/>
      <point x="483" y="-145"/>
      <point x="551" y="-188"/>
      <point x="551" y="-231" type="qcurve"/>
      <point x="551" y="-278"/>
      <point x="480" y="-327"/>
      <point x="415" y="-327" type="qcurve"/>
      <point x="370" y="-327"/>
      <point x="323" y="-314" type="qcurve"/>
      <point x="323" y="-381" type="line"/>
      <point x="385" y="-400"/>
    </contour>
  </outline>
</glyph>
<glyph name="uni0162" format="2">
  <advance width="1170"/>
  <unicode hex="0162"/>
  <note>
		uni0162
	</note>
  <outline>
    <contour>
      <point x="502" y="0" type="line"/>
      <point x="541" y="0" type="line"/>
      <point x="484" y="-148" type="line"/>
      <point x="513" y="-145"/>
      <point x="538" y="-145" type="qcurve"/>
      <point x="600" y="-145"/>
      <point x="668" y="-188"/>
      <point x="668" y="-231" type="qcurve"/>
      <point x="668" y="-278"/>
      <point x="597" y="-327"/>
      <point x="532" y="-327" type="qcurve"/>
      <point x="487" y="-327"/>
      <point x="440" y="-314" type="qcurve"/>
      <point x="440" y="-381" type="line"/>
      <point x="502" y="-400"/>
      <point x="564" y="-400" type="qcurve"/>
      <point x="667" y="-400"/>
      <point x="796" y="-308"/>
      <point x="796" y="-222" type="qcurve"/>
      <point x="796" y="-163"/>
      <point x="710" y="-68"/>
      <point x="609" y="-62" type="qcurve"/>
      <point x="632" y="0" type="line"/>
      <point x="668" y="0" type="line"/>
      <point x="668" y="1187" type="line"/>
      <point x="1080" y="1187" type="line"/>
      <point x="1080" y="1334" type="line"/>
      <point x="90" y="1334" type="line"/>
      <point x="90" y="1187" type="line"/>
      <point x="502" y="1187" type="line"/>
    </contour>
  </outline>
</glyph>
<glyph name="uni0163" format="2">
  <advance width="641"/>
  <unicode hex="0163"/>
  <note>
		uni0163
	</note>
  <outline>
    <contour>
      <point x="450" y="-10" type="line"/>
      <point x="504" y="-10"/>
      <point x="561" y="0" type="qcurve"/>
      <point x="561" y="142" type="line"/>
      <point x="517" y="135"/>
      <point x="481" y="135" type="qcurve"/>
      <point x="419" y="135"/>
      <point x="363" y="188"/>
      <point x="363" y="250" type="qcurve"/>
      <point x="363" y="798" type="line"/>
      <point x="561" y="798" type="line"/>
      <point x="561" y="928" type="line"/>
      <point x="363" y="928" type="line"/>
      <point x="363" y="1198" type="line"/>
      <point x="203" y="1198" type="line"/>
      <point x="203" y="928" type="line"/>
      <point x="35" y="928" type="line"/>
      <point x="35" y="798" type="line"/>
      <point x="203" y="798" type="line"/>
      <point x="203" y="222" type="line" smooth="yes"/>
      <point x="203" y="133"/>
      <point x="280" y="23"/>
      <point x="354" y="2" type="qcurve"/>
      <point x="296" y="-148" type="line"/>
      <point x="325" y="-145"/>
      <point x="350" y="-145" type="qcurve"/>
      <point x="412" y="-145"/>
      <point x="480" y="-188"/>
      <point x="480" y="-231" type="qcurve"/>
      <point x="480" y="-278"/>
      <point x="409" y="-327"/>
      <point x="344" y="-327" type="qcurve"/>
      <point x="299" y="-327"/>
      <point x="252" y="-314" type="qcurve"/>
      <point x="252" y="-381" type="line"/>
      <point x="314" y="-400"/>
      <point x="376" y="-400" type="qcurve"/>
      <point x="479" y="-400"/>
      <point x="608" y="-308"/>
      <point x="608" y="-222" type="qcurve"/>
      <point x="608" y="-163"/>
      <point x="522" y="-68"/>
      <point x="421" y="-62" type="qcurve"/>
      <point x="441" y="-10" type="line"/>
    </contour>
  </outline>
</glyph>
<glyph name="Tbar" format="2">
  <advance width="1170"/>
  <unicode hex="0166"/>
  <note>
		Tbar
	</note>
  <outline>
    <contour>
      <point x="244" y="703" type="line"/>
      <point x="244" y="573" type="line"/>
      <point x="502" y="573" type="line"/>
      <point x="502" y="0" type="line"/>
      <point x="668" y="0" type="line"/>
      <point x="668" y="573" type="line"/>
      <point x="926" y="573" type="line"/>
      <point x="926" y="703" type="line"/>
      <point x="668" y="703" type="line"/>
      <point x="668" y="1187" type="line"/>
      <point x="1080" y="1187" type="line"/>
      <point x="1080" y="1334" type="line"/>
      <point x="90" y="1334" type="line"/>
      <point x="90" y="1187" type="line"/>
      <point x="502" y="1187" type="line"/>
      <point x="502" y="703" type="line"/>
    </contour>
  </outline>
</glyph>
<glyph name="tbar" format="2">
  <advance width="641"/>
  <unicode hex="0167"/>
  <note>
		tbar
	</note>
  <outline>
    <contour>
      <point x="35" y="540" type="line"/>
      <point x="35" y="420" type="line"/>
      <point x="203" y="420" type="line"/>
      <point x="203" y="222" type="line" smooth="yes"/>
      <point x="203" y="67"/>
      <point x="293" y="-10"/>
      <point x="450" y="-10" type="curve" smooth="yes"/>
      <point x="487" y="-10"/>
      <point x="521" y="-7"/>
      <point x="561" y="0" type="curve"/>
      <point x="561" y="142" type="line"/>
      <point x="536" y="138"/>
      <point x="512" y="135"/>
      <point x="481" y="135" type="curve" smooth="yes"/>
      <point x="399" y="135"/>
      <point x="363" y="166"/>
      <point x="363" y="250" type="curve" smooth="yes"/>
      <point x="363" y="420" type="line"/>
      <point x="561" y="420" type="line"/>
      <point x="561" y="540" type="line"/>
      <point x="363" y="540" type="line"/>
      <point x="363" y="798" type="line"/>
      <point x="561" y="798" type="line"/>
      <point x="561" y="928" type="line"/>
      <point x="363" y="928" type="line"/>
      <point x="363" y="1198" type="line"/>
      <point x="203" y="1198" type="line"/>
      <point x="203" y="928" type="line"/>
      <point x="35" y="928" type="line"/>
      <point x="35" y="798" type="line"/>
      <point x="203" y="798" type="line"/>
      <point x="203" y="540" type="line"/>
    </contour>
  </outline>
</glyph>
<glyph name="Uogonek" format="2">
  <advance width="1308"/>
  <unicode hex="0172"/>
  <note>
		Uogonek
	</note>
  <outline>
    <contour>
      <point x="860" y="-354" type="qcurve"/>
      <point x="912" y="-354"/>
      <point x="946" y="-344" type="qcurve"/>
      <point x="946" y="-245" type="line"/>
      <point x="919" y="-250"/>
      <point x="899" y="-250" type="qcurve"/>
      <point x="854" y="-250"/>
      <point x="801" y="-205"/>
      <point x="801" y="-161" type="qcurve"/>
      <point x="801" y="-110"/>
      <point x="892" y="0"/>
      <point x="974" y="64" type="qcurve"/>
      <point x="1069" y="138"/>
      <point x="1168" y="355"/>
      <point x="1168" y="491" type="qcurve"/>
      <point x="1168" y="1334" type="line"/>
      <point x="1001" y="1334" type="line"/>
      <point x="1001" y="499" type="line" smooth="yes"/>
      <point x="1001" y="319"/>
      <point x="830" y="125"/>
      <point x="654" y="125" type="qcurve"/>
      <point x="477" y="125"/>
      <point x="306" y="319"/>
      <point x="306" y="499" type="qcurve"/>
      <point x="306" y="1334" type="line"/>
      <point x="140" y="1334" type="line"/>
      <point x="140" y="491" type="line" smooth="yes"/>
      <point x="140" y="341"/>
      <point x="249" y="111"/>
      <point x="479" y="-20"/>
      <point x="654" y="-20" type="qcurve"/>
      <point x="712" y="-20"/>
      <point x="770" y="-12" type="qcurve"/>
      <point x="718" y="-49"/>
      <point x="664" y="-142"/>
      <point x="664" y="-194" type="qcurve"/>
      <point x="664" y="-270"/>
      <point x="771" y="-354"/>
    </contour>
  </outline>
</glyph>
<glyph name="uogonek" format="2">
  <advance width="995"/>
  <unicode hex="0173"/>
  <note>
		uogonek
	</note>
  <outline>
    <contour>
      <point x="421" y="-20" type="qcurve"/>
      <point x="526" y="-20"/>
      <point x="686" y="91"/>
      <point x="728" y="184" type="qcurve"/>
      <point x="723" y="143"/>
      <point x="720" y="62"/>
      <point x="720" y="0" type="qcurve"/>
      <point x="665" y="-30"/>
      <point x="593" y="-133"/>
      <point x="593" y="-194" type="qcurve"/>
      <point x="593" y="-270"/>
      <point x="700" y="-354"/>
      <point x="789" y="-354" type="qcurve"/>
      <point x="841" y="-354"/>
      <point x="875" y="-344" type="qcurve"/>
      <point x="875" y="-245" type="line"/>
      <point x="850" y="-250"/>
      <point x="830" y="-250" type="qcurve"/>
      <point x="784" y="-250"/>
      <point x="731" y="-205"/>
      <point x="731" y="-161" type="qcurve"/>
      <point x="731" y="-107"/>
      <point x="815" y="-19"/>
      <point x="875" y="0" type="qcurve"/>
      <point x="875" y="928" type="line"/>
      <point x="715" y="928" type="line"/>
      <point x="715" y="407" type="line" smooth="yes"/>
      <point x="715" y="321"/>
      <point x="645" y="188"/>
      <point x="528" y="115"/>
      <point x="461" y="115" type="qcurve"/>
      <point x="371" y="115"/>
      <point x="280" y="224"/>
      <point x="280" y="330" type="qcurve"/>
      <point x="280" y="928" type="line"/>
      <point x="120" y="928" type="line"/>
      <point x="120" y="297" type="line" smooth="yes"/>
      <point x="120" y="201"/>
      <point x="192" y="58"/>
      <point x="328" y="-20"/>
    </contour>
  </outline>
</glyph>
<glyph name="uni018F" format="2">
  <advance width="1496"/>
  <unicode hex="018F"/>
  <note>
		uni018F
	</note>
  <outline>
    <contour>
      <point x="748" y="-20" type="qcurve"/>
      <point x="938" y="-20"/>
      <point x="1226" y="155"/>
      <point x="1384" y="467"/>
      <point x="1384" y="667" type="qcurve"/>
      <point x="1384" y="867"/>
      <point x="1226" y="1179"/>
      <point x="938" y="1354"/>
      <point x="748" y="1354" type="qcurve"/>
      <point x="533" y="1354"/>
      <point x="235" y="1150"/>
      <point x="165" y="972" type="qcurve"/>
      <point x="329" y="924" type="line"/>
      <point x="377" y="1056"/>
      <point x="593" y="1209"/>
      <point x="748" y="1209" type="qcurve"/>
      <point x="879" y="1209"/>
      <point x="1081" y="1089"/>
      <point x="1200" y="870"/>
      <point x="1210" y="724" type="qcurve"/>
      <point x="114" y="724" type="line"/>
      <point x="112" y="700"/>
      <point x="112" y="658" type="qcurve"/>
      <point x="112" y="461"/>
      <point x="270" y="153"/>
      <point x="558" y="-20"/>
    </contour>
    <contour>
      <point x="1207" y="579" type="line"/>
      <point x="1193" y="440"/>
      <point x="1072" y="235"/>
      <point x="875" y="125"/>
      <point x="748" y="125" type="qcurve"/>
      <point x="618" y="125"/>
      <point x="419" y="235"/>
      <point x="299" y="440"/>
      <point x="286" y="579" type="qcurve"/>
    </contour>
  </outline>
</glyph>
<glyph name="uni0259" format="2">
  <advance width="1051"/>
  <unicode hex="0259"/>
  <note>
		uni0259
	</note>
  <outline>
    <contour>
      <point x="518" y="948" type="qcurve"/>
      <point x="380" y="948"/>
      <point x="176" y="811"/>
      <point x="125" y="688" type="qcurve"/>
      <point x="278" y="644" type="line"/>
      <point x="311" y="729"/>
      <point x="436" y="818"/>
      <point x="518" y="818" type="qcurve"/>
      <point x="596" y="818"/>
      <point x="716" y="740"/>
      <point x="786" y="592"/>
      <point x="790" y="490" type="qcurve"/>
      <point x="100" y="490" type="line"/>
      <point x="100" y="464" type="line" smooth="yes"/>
      <point x="100" y="318"/>
      <point x="201" y="99"/>
      <point x="391" y="-20"/>
      <point x="520" y="-20" type="qcurve"/>
      <point x="649" y="-20"/>
      <point x="844" y="99"/>
      <point x="951" y="318"/>
      <point x="951" y="464" type="qcurve"/>
      <point x="951" y="608"/>
      <point x="845" y="827"/>
      <point x="649" y="948"/>
    </contour>
    <contour>
      <point x="784" y="368" type="line"/>
      <point x="764" y="245"/>
      <point x="625" y="110"/>
      <point x="520" y="110" type="qcurve"/>
      <point x="415" y="110"/>
      <point x="284" y="244"/>
      <point x="266" y="368" type="qcurve"/>
    </contour>
  </outline>
</glyph>
<glyph name="circumflex" format="2">
  <advance width="698"/>
  <unicode hex="02C6"/>
  <note>
		circumflex
	</note>
  <outline>
    <contour>
      <point x="253" y="1334" type="line"/>
      <point x="50" y="1069" type="line"/>
      <point x="224" y="1069" type="line"/>
      <point x="349" y="1232" type="line"/>
      <point x="474" y="1069" type="line"/>
      <point x="648" y="1069" type="line"/>
      <point x="445" y="1334" type="line"/>
    </contour>
  </outline>
</glyph>
<glyph name="dotaccent" format="2">
  <advance width="278"/>
  <unicode hex="02D9"/>
  <note>
		dotaccent
	</note>
  <outline>
    <contour>
      <point x="50" y="1246" type="line"/>
      <point x="50" y="1069" type="line"/>
      <point x="228" y="1069" type="line"/>
      <point x="228" y="1246" type="line"/>
    </contour>
  </outline>
</glyph>
<glyph name="ring" format="2">
  <advance width="562"/>
  <unicode hex="02DA"/>
  <note>
		ring
	</note>
  <outline>
    <contour>
      <point x="281" y="1069" type="curve" smooth="yes"/>
      <point x="409" y="1069"/>
      <point x="512" y="1164"/>
      <point x="512" y="1292" type="curve" smooth="yes"/>
      <point x="512" y="1421"/>
      <point x="409" y="1517"/>
      <point x="281" y="1517" type="curve" smooth="yes"/>
      <point x="153" y="1517"/>
      <point x="50" y="1421"/>
      <point x="50" y="1292" type="curve" smooth="yes"/>
      <point x="50" y="1164"/>
      <point x="153" y="1069"/>
    </contour>
    <contour>
      <point x="164" y="1292" type="curve" smooth="yes"/>
      <point x="164" y="1362"/>
      <point x="216" y="1410"/>
      <point x="281" y="1410" type="curve" smooth="yes"/>
      <point x="346" y="1410"/>
      <point x="398" y="1362"/>
      <point x="398" y="1292" type="curve" smooth="yes"/>
      <point x="398" y="1223"/>
      <point x="344" y="1176"/>
      <point x="281" y="1176" type="curve" smooth="yes"/>
      <point x="216" y="1176"/>
      <point x="164" y="1223"/>
    </contour>
  </outline>
</glyph>
<glyph name="tilde" format="2">
  <advance width="715"/>
  <unicode hex="02DC"/>
  <note>
		tilde
	</note>
  <outline>
    <contour>
      <point x="50" y="1069" type="curve"/>
      <point x="150" y="1069" type="line"/>
      <point x="158" y="1126"/>
      <point x="186" y="1151"/>
      <point x="240" y="1151" type="curve" smooth="yes"/>
      <point x="322" y="1151"/>
      <point x="372" y="1069"/>
      <point x="486" y="1069" type="curve" smooth="yes"/>
      <point x="590" y="1069"/>
      <point x="658" y="1150"/>
      <point x="665" y="1284" type="curve"/>
      <point x="565" y="1284" type="line"/>
      <point x="557" y="1227"/>
      <point x="529" y="1202"/>
      <point x="475" y="1202" type="curve" smooth="yes"/>
      <point x="393" y="1202"/>
      <point x="343" y="1284"/>
      <point x="229" y="1284" type="curve" smooth="yes"/>
      <point x="125" y="1284"/>
      <point x="57" y="1203"/>
    </contour>
  </outline>
</glyph>
<glyph name="hungarumlaut" format="2">
  <advance width="670"/>
  <unicode hex="02DD"/>
  <note>
		hungarumlaut
	</note>
  <outline>
    <contour>
      <point x="427" y="1334" type="line"/>
      <point x="350" y="1069" type="line"/>
      <point x="460" y="1069" type="line"/>
      <point x="620" y="1334" type="line"/>
    </contour>
    <contour>
      <point x="127" y="1334" type="line"/>
      <point x="50" y="1069" type="line"/>
      <point x="160" y="1069" type="line"/>
      <point x="320" y="1334" type="line"/>
    </contour>
  </outline>
</glyph>
<glyph name="gravecomb" format="2">
  <unicode hex="0300"/>
  <note>
		gravecomb
	</note>
  <outline>
    <contour>
      <point x="50" y="1334" type="line"/>
      <point x="240" y="1069" type="line"/>
      <point x="350" y="1069" type="line"/>
      <point x="263" y="1334" type="line"/>
    </contour>
  </outline>
</glyph>
<glyph name="acutecomb" format="2">
  <unicode hex="0301"/>
  <note>
		acutecomb
	</note>
  <outline>
    <contour>
      <point x="137" y="1334" type="line"/>
      <point x="50" y="1069" type="line"/>
      <point x="160" y="1069" type="line"/>
      <point x="350" y="1334" type="line"/>
    </contour>
  </outline>
</glyph>
<glyph name="uni0302" format="2">
  <unicode hex="0302"/>
  <note>
		uni0302
	</note>
  <outline>
    <contour>
      <point x="253" y="1334" type="line"/>
      <point x="50" y="1069" type="line"/>
      <point x="224" y="1069" type="line"/>
      <point x="349" y="1232" type="line"/>
      <point x="474" y="1069" type="line"/>
      <point x="648" y="1069" type="line"/>
      <point x="445" y="1334" type="line"/>
    </contour>
  </outline>
</glyph>
<glyph name="tildecomb" format="2">
  <unicode hex="0303"/>
  <note>
		tildecomb
	</note>
  <outline>
    <contour>
      <point x="150" y="1069" type="line"/>
      <point x="156" y="1112"/>
      <point x="199" y="1151"/>
      <point x="240" y="1151" type="qcurve"/>
      <point x="266" y="1151"/>
      <point x="311" y="1133"/>
      <point x="342" y="1115" type="qcurve"/>
      <point x="382" y="1093"/>
      <point x="445" y="1069"/>
      <point x="486" y="1069" type="qcurve"/>
      <point x="564" y="1069"/>
      <point x="660" y="1184"/>
      <point x="665" y="1284" type="qcurve"/>
      <point x="565" y="1284" type="line"/>
      <point x="559" y="1241"/>
      <point x="516" y="1202"/>
      <point x="475" y="1202" type="qcurve"/>
      <point x="449" y="1202"/>
      <point x="404" y="1220"/>
      <point x="373" y="1238" type="qcurve"/>
      <point x="333" y="1260"/>
      <point x="270" y="1284"/>
      <point x="229" y="1284" type="qcurve"/>
      <point x="151" y="1284"/>
      <point x="55" y="1169"/>
      <point x="50" y="1069" type="qcurve"/>
    </contour>
  </outline>
</glyph>
<glyph name="uni0304" format="2">
  <unicode hex="0304"/>
  <note>
		uni0304
	</note>
  <outline>
    <contour>
      <point x="50" y="1094" type="line"/>
      <point x="630" y="1094" type="line"/>
      <point x="630" y="1224" type="line"/>
      <point x="50" y="1224" type="line"/>
    </contour>
  </outline>
</glyph>
<glyph name="uni0306" format="2">
  <unicode hex="0306"/>
  <note>
		uni0306
	</note>
  <outline>
    <contour>
      <point x="318" y="1069" type="qcurve"/>
      <point x="399" y="1069"/>
      <point x="521" y="1143"/>
      <point x="586" y="1265"/>
      <point x="586" y="1334" type="qcurve"/>
      <point x="458" y="1334" type="line"/>
      <point x="451" y="1270"/>
      <point x="376" y="1199"/>
      <point x="318" y="1199" type="qcurve"/>
      <point x="259" y="1199"/>
      <point x="185" y="1270"/>
      <point x="178" y="1334" type="qcurve"/>
      <point x="50" y="1334" type="line"/>
      <point x="50" y="1265"/>
      <point x="115" y="1143"/>
      <point x="237" y="1069"/>
    </contour>
  </outline>
</glyph>
<glyph name="uni0307" format="2">
  <unicode hex="0307"/>
  <note>
		uni0307
	</note>
  <outline>
    <contour>
      <point x="50" y="1246" type="line"/>
      <point x="50" y="1069" type="line"/>
      <point x="228" y="1069" type="line"/>
      <point x="228" y="1246" type="line"/>
    </contour>
  </outline>
</glyph>
<glyph name="uni0308" format="2">
  <unicode hex="0308"/>
  <note>
		uni0308
	</note>
  <outline>
    <contour>
      <point x="491" y="1249" type="line"/>
      <point x="491" y="1069" type="line"/>
      <point x="656" y="1069" type="line"/>
      <point x="656" y="1249" type="line"/>
    </contour>
    <contour>
      <point x="50" y="1249" type="line"/>
      <point x="50" y="1069" type="line"/>
      <point x="215" y="1069" type="line"/>
      <point x="215" y="1249" type="line"/>
    </contour>
  </outline>
</glyph>
<glyph name="uni030A" format="2">
  <unicode hex="030A"/>
  <note>
		uni030A
	</note>
  <outline>
    <contour>
      <point x="281" y="1069" type="curve" smooth="yes"/>
      <point x="409" y="1069"/>
      <point x="512" y="1164"/>
      <point x="512" y="1292" type="curve" smooth="yes"/>
      <point x="512" y="1421"/>
      <point x="409" y="1517"/>
      <point x="281" y="1517" type="curve" smooth="yes"/>
      <point x="153" y="1517"/>
      <point x="50" y="1421"/>
      <point x="50" y="1292" type="curve" smooth="yes"/>
      <point x="50" y="1164"/>
      <point x="153" y="1069"/>
    </contour>
    <contour>
      <point x="164" y="1292" type="curve" smooth="yes"/>
      <point x="164" y="1362"/>
      <point x="216" y="1410"/>
      <point x="281" y="1410" type="curve" smooth="yes"/>
      <point x="346" y="1410"/>
      <point x="398" y="1362"/>
      <point x="398" y="1292" type="curve" smooth="yes"/>
      <point x="398" y="1223"/>
      <point x="344" y="1176"/>
      <point x="281" y="1176" type="curve" smooth="yes"/>
      <point x="216" y="1176"/>
      <point x="164" y="1223"/>
    </contour>
  </outline>
</glyph>
